<?xml version="1.0" standalone="no"?><!DOCTYPE svg PUBLIC "-//W3C//DTD SVG 1.1//EN" "http://www.w3.org/Graphics/SVG/1.1/DTD/svg11.dtd"><svg class="icon" width="200px" height="200.00px" viewBox="0 0 1024 1024" version="1.1" xmlns="http://www.w3.org/2000/svg"><path d="M0 0m128 0l768 0q128 0 128 128l0 768q0 128-128 128l-768 0q-128 0-128-128l0-768q0-128 128-128Z" fill="#10AAFF" opacity=".1" /><path d="M403.84 705.92h-4.16V704l3.84 2.24z" fill="#F7F7F7" /><path d="M403.84 705.92h-4.16V704l3.84 2.24z" fill="#F7F7F7" /><path d="M898.88 388.16l-32 22.4a13.44 13.44 0 0 1-7.36 2.24l32-22.4a11.2 11.2 0 0 0 7.36-2.24" fill="#BEA159" /><path d="M891.52 390.4l-32.64 22.4h-35.52l32.64-22.4h35.52z" fill="#BBA05B" /><path d="M856 390.4l-32 22.4a15.36 15.36 0 0 1-14.72-14.72 13.44 13.44 0 0 1 5.76-12.16l32-22.4a13.76 13.76 0 0 0-5.76 12.16 15.36 15.36 0 0 0 14.72 14.72" fill="#BEA159" /><path d="M890.24 361.28a15.68 15.68 0 0 1 15.04 14.4 13.76 13.76 0 0 1-13.76 14.72h-35.52a15.36 15.36 0 0 1-14.72-14.72 13.44 13.44 0 0 1 13.44-14.4z" fill="#F8C441" /><path d="M868.48 529.92l-32 22.08a12.8 12.8 0 0 1-7.68 2.24 16.96 16.96 0 0 1-7.36-1.92l32-22.08a15.68 15.68 0 0 0 7.36 1.92 15.36 15.36 0 0 0 7.68-2.24" fill="#BEA159" /><path d="M853.44 530.24l-32.64 22.08-31.36-18.24 32.64-22.08 31.36 18.24z" fill="#BBA05B" /><path d="M822.08 512l-32 22.08a14.72 14.72 0 0 1-6.08-19.84 15.04 15.04 0 0 1 4.16-4.8l32-22.4a13.44 13.44 0 0 0-4.16 5.12 14.72 14.72 0 0 0 6.08 19.84" fill="#BEA159" /><path d="M866.88 504.96a15.36 15.36 0 0 1 5.76 20.16 13.12 13.12 0 0 1-11.84 7.04 15.68 15.68 0 0 1-7.36-1.92l-32-18.24a14.72 14.72 0 0 1-6.08-19.84 12.8 12.8 0 0 1 11.84-7.36 15.68 15.68 0 0 1 7.36 1.92z" fill="#F8C441" /><path d="M855.68 246.4l-32 22.08 32-22.4" fill="#BEA159" /><path d="M855.04 246.72l-32.64 22.08-30.08 18.24 32.64-22.08 30.08-18.24z" fill="#BBA05B" /><path d="M824.96 264.96l-32 22.08a14.72 14.72 0 0 1-7.04 1.92l32-22.08a14.72 14.72 0 0 0 7.04-1.92" fill="#BEA159" /><path d="M805.12 259.52l-32 22.08a14.72 14.72 0 0 1 4.16-19.52l32-22.08a14.72 14.72 0 0 0-4.16 19.52" fill="#BEA159" /><path d="M817.92 266.88l-32 22.08a14.72 14.72 0 0 1-12.8-7.36l32-22.08a14.72 14.72 0 0 0 12.8 7.36" fill="#BEA159" /><path d="M817.92 266.88a14.72 14.72 0 0 1-12.8-7.36 14.4 14.4 0 0 1 4.48-19.84l29.76-18.24a14.72 14.72 0 0 1 7.04-1.92 14.72 14.72 0 0 1 12.8 7.36 14.08 14.08 0 0 1-4.16 19.84l-30.08 18.24a14.72 14.72 0 0 1-7.04 1.92z" fill="#F8C441" /><path d="M712.64 522.56l-32 22.08a160 160 0 0 1-91.84 28.16 182.72 182.72 0 0 1-178.88-174.4A167.68 167.68 0 0 1 480 251.52l32-22.08a166.72 166.72 0 0 0-71.36 146.56 182.72 182.72 0 0 0 180.16 174.4 163.84 163.84 0 0 0 91.84-27.84" fill="#BEA159" /><path d="M605.12 201.6a182.4 182.4 0 0 1 178.88 174.4 163.52 163.52 0 0 1-163.2 174.4 182.72 182.72 0 0 1-178.88-174.4 163.2 163.2 0 0 1 163.2-174.4z" fill="#F8C441" /><path d="M405.44 264.64l-32 22.08a11.84 11.84 0 0 1-7.36 2.24 14.72 14.72 0 0 1-8-0.96l32-22.08a14.72 14.72 0 0 0 7.36 1.92 15.36 15.36 0 0 0 7.36-2.24" fill="#BEA159" /><path d="M352 226.88l-32 22.08a21.44 21.44 0 0 1 4.48-4.8l32-22.4a17.92 17.92 0 0 0-4.48 5.12" fill="#BEA159" /><path d="M390.72 264.96l-32.64 22.08-31.68-18.24 32.64-22.08 31.68 18.24z" fill="#BBA05B" /><path d="M359.04 246.72l-32 22.4a15.36 15.36 0 0 1-7.04-20.16l32-22.08a14.72 14.72 0 0 0 6.08 19.84" fill="#BEA159" /><path d="M404.16 239.68a15.04 15.04 0 0 1 5.76 19.84 12.8 12.8 0 0 1-11.84 7.36 14.72 14.72 0 0 1-7.36-1.92l-32-18.24a14.72 14.72 0 0 1-6.72-19.84 13.44 13.44 0 0 1 12.16-7.36 14.72 14.72 0 0 1 7.04 1.92z" fill="#F8C441" /><path d="M490.24 174.08l-32 22.08 32-22.4" fill="#BEA159" /><path d="M450.56 137.6l-32 22.08a14.4 14.4 0 0 1 4.16-19.52l32-22.4a14.72 14.72 0 0 0-4.16 19.84" fill="#BEA159" /><path d="M469.76 168.96l-32.64 22.4-19.2-31.68 32.64-22.08 19.2 31.36z" fill="#BBA05B" /><path d="M489.92 174.4l-32 22.4a14.72 14.72 0 0 1-7.36 1.92 15.68 15.68 0 0 1-12.8-7.36l32-22.4a15.68 15.68 0 0 0 12.8 7.36 14.72 14.72 0 0 0 7.36-1.92" fill="#BEA159" /><path d="M469.76 168.96l-19.2-32a14.4 14.4 0 0 1 4.48-19.84 12.48 12.48 0 0 1 6.72-1.92 14.72 14.72 0 0 1 12.8 7.36l19.2 32a14.08 14.08 0 0 1-3.84 19.84 14.72 14.72 0 0 1-7.36 1.92 15.68 15.68 0 0 1-12.8-7.36z" fill="#F8C441" /><path d="M585.6 92.48l-32 22.08a13.44 13.44 0 0 1 6.08-11.84l32-22.4a13.44 13.44 0 0 0-6.08 12.16" fill="#BEA159" /><path d="M609.92 140.8l-32 22.4a14.4 14.4 0 0 1-7.36 2.24l32-22.08a12.8 12.8 0 0 0 7.36-2.56" fill="#BEA159" /><path d="M587.2 128.64l-32.64 22.4-1.6-36.48 32.64-22.08 1.6 36.16z" fill="#BBA05B" /><path d="M602.56 143.36l-32 22.08a15.04 15.04 0 0 1-15.36-14.4l32-22.4a15.36 15.36 0 0 0 15.36 14.72" fill="#BEA159" /><path d="M602.56 143.36a15.36 15.36 0 0 1-15.36-15.36l-1.6-35.52a13.76 13.76 0 0 1 13.76-14.4 15.04 15.04 0 0 1 15.04 14.4L616 128a13.76 13.76 0 0 1-13.44 15.36z" fill="#F8C441" /><path d="M728 123.2l-32 22.08a16 16 0 0 1 4.48-4.8l32-22.4a14.08 14.08 0 0 0-4.48 5.12" fill="#BEA159" /><path d="M711.68 154.56l-32.64 22.4 16.32-31.68 32.64-22.08-16.32 31.36z" fill="#BBA05A" /><path d="M732.8 174.08l-32 22.08a13.76 13.76 0 0 1-7.68 2.56 15.68 15.68 0 0 1-7.36-1.92l32-22.4a15.68 15.68 0 0 0 7.36 1.92 13.44 13.44 0 0 0 7.68-2.24" fill="#BEA159" /><path d="M717.76 174.4l-32 22.4a15.36 15.36 0 0 1-6.08-20.16l32-22.08a15.04 15.04 0 0 0 6.08 19.84" fill="#BEA159" /><path d="M717.76 174.4a15.04 15.04 0 0 1-6.08-19.84l16.32-32a13.44 13.44 0 0 1 12.16-7.36 13.76 13.76 0 0 1 7.04 1.92 15.04 15.04 0 0 1 6.4 19.84l-16.32 32a14.08 14.08 0 0 1-12.16 7.36 15.68 15.68 0 0 1-7.36-1.92z" fill="#F8C441" /><path d="M768 728.96l-32 22.08a140.16 140.16 0 0 1-80 24.64l32-22.4a142.4 142.4 0 0 0 80-24.32" fill="#BEBEBE" /><path d="M687.36 753.28l-32.64 22.4h-89.28l32.64-22.4h89.28z" fill="#BBBBBB" /><path d="M368.32 463.36l-32 22.08a120 120 0 0 1-1.6-15.04 144.96 144.96 0 0 1 64-128l32-22.4a145.6 145.6 0 0 0-62.4 128 120 120 0 0 0 0 15.04" fill="#BEBEBE" /><path d="M445.44 578.88l-32.64 22.4-3.2-2.24 32.64-22.08 3.2 1.92zM598.08 753.28l-32.64 22.4h-60.48l32.64-22.4h60.48z" fill="#BBBBBB" /><path d="M537.6 753.28l-32.64 22.4H283.84l32.64-22.4h221.12z" fill="#BBBBBB" /><path d="M316.48 753.28l-32 22.4A160 160 0 0 1 128 623.04a146.24 146.24 0 0 1 64-128l32-22.08a145.92 145.92 0 0 0-64 128 160 160 0 0 0 156.8 152.64" fill="#BEBEBE" /><path d="M672 448a160 160 0 0 1 156.8 152.32 143.04 143.04 0 0 1-142.72 152.64H316.48A160 160 0 0 1 160 600.64 143.04 143.04 0 0 1 302.4 448a148.8 148.8 0 0 1 65.92 15.04 120 120 0 0 1 0-15.04 143.04 143.04 0 0 1 142.72-152.64A160 160 0 0 1 666.24 448z m-231.36 130.56h3.52l-3.2-1.92v1.92" fill="#F8F8F8" /><path d="M418.88 839.36l-16.64 5.76 42.56-26.24 16.32-5.76-42.24 26.24z" fill="#4D9BBA" /><path d="M461.44 933.12l-16.64 5.44a48.32 48.32 0 0 1-15.36 2.56 52.16 52.16 0 0 1-51.2-51.84 50.88 50.88 0 0 1 24-44.48l16.64-5.44a49.6 49.6 0 0 0-24 44.48 51.84 51.84 0 0 0 51.2 51.52 48.32 48.32 0 0 0 15.36-2.24" fill="#4D9BBB" /><path d="M461.44 813.12l25.92 44.8a56.64 56.64 0 0 1 7.68 25.92 49.28 49.28 0 0 1-48.96 51.52 51.84 51.84 0 0 1-51.2-51.52 49.6 49.6 0 0 1 24-44.48z" fill="#2BB8F0" /></svg>