<?xml version="1.0" standalone="no"?><!DOCTYPE svg PUBLIC "-//W3C//DTD SVG 1.1//EN" "http://www.w3.org/Graphics/SVG/1.1/DTD/svg11.dtd"><svg class="icon" width="200px" height="200.00px" viewBox="0 0 1024 1024" version="1.1" xmlns="http://www.w3.org/2000/svg"><path d="M0 0m128 0l768 0q128 0 128 128l0 768q0 128-128 128l-768 0q-128 0-128-128l0-768q0-128 128-128Z" fill="#10AAFF" opacity=".1" /><path d="M403.84 705.92h-4.16V704l3.84 2.24z" fill="#F7F7F7" /><path d="M403.84 705.92h-4.16V704l3.84 2.24z" fill="#F7F7F7" /><path d="M850.56 650.88l-32 22.4a171.52 171.52 0 0 1-96 29.76l32-22.4a171.52 171.52 0 0 0 96-29.76" fill="#BEBEBE" /><path d="M753.28 680.64l-32.64 22.4h-91.52l32.64-22.4h91.52z" fill="#BBBBBB" /><path d="M376.64 320l-32 22.4a176 176 0 0 1 76.16-148.8l32-22.08A175.36 175.36 0 0 0 376.64 320" fill="#BEBEBE" /><path d="M661.76 680.64l-32.64 22.4h-90.88l32.64-22.4h90.88z" fill="#BBBBBB" /><path d="M570.88 680.64l-32.64 22.4H295.36l32.64-22.4h242.88z" fill="#BBBBBB" /><path d="M328 680.64l-32 22.4a194.88 194.88 0 0 1-192-185.92 177.28 177.28 0 0 1 76.8-155.52l32-22.4a178.24 178.24 0 0 0-76.16 155.84 194.56 194.56 0 0 0 192 185.6" fill="#BEBEBE" /><path d="M550.4 143.04a194.24 194.24 0 0 1 188.48 166.4 194.56 194.56 0 0 1 189.12 185.6 174.08 174.08 0 0 1-173.44 185.6H328a194.56 194.56 0 0 1-192-185.6 174.4 174.4 0 0 1 173.76-185.6 187.52 187.52 0 0 1 64 11.84 173.44 173.44 0 0 1 176.64-178.24z" fill="#F8F8F8" /><path d="M424.96 776.96l-16.32 5.44 12.48-7.68 16.64-5.44-12.8 7.68zM418.56 761.6l-16.64 5.76 5.76-3.52 16.64-5.76-5.76 3.52z" fill="#80A4BD" /><path d="M445.76 837.76l-16.64 5.44-6.4 1.92 16.64-5.76 6.4-1.6zM442.88 820.16l-16.64 5.44-11.84 3.2 16.32-5.44 12.16-3.2zM440 798.08l-16.64 5.44-21.44-5.76 16.64-5.44 21.44 5.76zM413.44 783.68l-16.32 5.76 4.8-22.08 16.64-5.76-5.12 22.08z" fill="#80A3BB" /><path d="M439.36 839.36l-16.64 5.76-12.8-7.68 16.32-5.44 13.12 7.36z" fill="#80A3BB" /><path d="M392.64 757.76l-16.64 5.76 8.96-9.28 16.32-5.44-8.64 8.96z" fill="#80A4BC" /><path d="M426.56 850.24l-16.64 5.76-5.76-3.52 16.32-5.76 6.08 3.52z" fill="#80A3BB" /><path d="M420.48 846.72l-16.32 5.76-6.08-22.08 16.32-5.76 6.08 22.08z" fill="#80A3BB" /><path d="M382.72 742.4l-16.32 5.76 4.48-5.12 16.64-5.44-4.8 4.8z" fill="#80A4BC" /><path d="M383.04 757.76l-16.32 5.44-0.32-15.04 16.32-5.76 0.32 15.36z" fill="#80A3BB" /><path d="M393.6 795.84l-16.64 5.44 20.16-11.84 16.32-5.76-19.84 12.16z" fill="#80A4BD" /><path d="M414.4 824.64l-16.32 5.76-20.8-12.16 16.64-5.44 20.48 11.84zM384 795.84l-16.64 5.44-0.32-24 16.32-5.76 0.64 24.32zM410.56 860.16l-16.64 5.44h-6.72l16.64-5.44h6.72zM367.36 755.52l-16.32 5.76-0.32-7.04 16.64-5.44v6.72z" fill="#80A3BB" /><path d="M383.36 771.52l-16.32 5.76-16-16 16.32-5.76 16 16zM403.84 860.16l-16.64 5.44-8.96-9.28 16.64-5.44 8.96 9.28zM384.96 837.12l-16.64 5.44-0.32-24 16.32-5.44 0.64 24z" fill="#80A3BB" /><path d="M385.6 866.24l-16.32 5.44-0.64-15.36 16.64-5.44 0.32 15.36z" fill="#80A3BB" /><path d="M390.4 871.04l-16.32 5.44-4.8-4.8 16.32-5.44 4.8 4.8zM379.52 804.48l-16.64 5.44-20.48-12.16 16.64-5.44 20.48 12.16zM348.16 764.16l-16.32 5.76 3.2-6.08 16.32-5.76-3.2 6.08zM351.68 776.96l-16.64 5.44-3.2-12.48 16.32-5.76 3.52 12.8z" fill="#80A3BB" /><path d="M359.36 816.32l-16.32 5.76 19.84-12.16 16.64-5.44-20.16 11.84z" fill="#80A4BD" /><path d="M369.6 852.8l-16.32 5.76 15.04-16 16.64-5.44-15.36 15.68z" fill="#80A4BC" /><path d="M376.64 860.16l-16.64 5.44h-6.72l16.64-5.44h6.72z" fill="#80A3BB" /><path d="M369.92 860.16l-16.64 5.44v-7.04l16.32-5.76 0.32 7.36zM334.08 777.6l-16.32 5.76-1.92-7.04 16.32-5.44 1.92 6.72z" fill="#80A3BB" /><path d="M347.2 785.28l-16.64 5.44-12.8-7.36 16.32-5.76 13.12 7.68zM359.04 792.32l-16.64 5.44-21.12 5.76 16.32-5.44 21.44-5.76zM353.28 850.24l-16.64 5.76-3.52-6.08 16.64-5.76 3.52 6.08z" fill="#80A3BB" /><path d="M349.76 844.16l-16.64 5.76 3.2-12.48 16.64-5.44-3.2 12.16zM337.6 798.08l-16.32 5.44-6.08-3.2 16.64-5.76 5.76 3.52zM331.84 794.56l-16.64 5.76 3.52-6.08 16.32-5.76-3.2 6.08zM347.84 823.36l-16.32 5.44-12.16-3.2 16.64-5.76 11.84 3.52z" fill="#80A3BB" /><path d="M332.16 813.76l-16.64 5.76 6.08-3.52 16.64-5.44-6.08 3.2z" fill="#80A4BD" /><path d="M336 819.84l-16.64 5.76-3.84-6.08 16.64-5.76 3.84 6.08z" fill="#80A3BB" /><path d="M335.36 831.04l-16.64 5.44 12.8-7.68 16.32-5.44-12.48 7.68z" fill="#80A4BD" /><path d="M340.16 839.36l-16.32 5.76-6.72-1.92 16.64-5.44 6.4 1.6z" fill="#80A3BB" /><path d="M387.52 737.6l4.8 4.8 0.32 15.36 8.64-8.96h6.72l0.32 6.72-15.36 16 0.64 24.32 19.84-12.16 5.12-22.08 5.76-3.52 3.84 6.08-3.2 12.8 12.8-7.68 6.4 1.6-1.6 6.72-12.48 7.68 11.84 3.2 3.84 6.08-5.76 3.52-21.44-5.76-20.16 12.16 20.48 11.84 21.44-5.76 5.76 3.52-3.2 6.08-12.16 3.2 13.12 7.68 1.92 6.72-6.4 1.6-13.12-7.36 3.52 12.16-3.2 6.08-6.08-3.52-6.08-22.08-20.48-11.84 0.32 24.32 16 16 0.32 7.04h-6.72l-8.96-9.28 0.32 15.36-4.8 4.8-4.8-4.8-0.32-15.36-8.64 9.28h-6.72l-0.32-7.36 15.36-15.68-0.64-24-19.84 11.52-5.44 22.08-5.76 3.52-3.52-6.08 3.2-12.16-12.8 7.36-6.4-1.6 1.6-6.72 12.48-7.68-11.84-3.52-3.84-6.08 6.08-3.2 21.12 5.76 20.16-11.84-20.48-12.16-21.44 5.76-5.76-3.52 3.2-6.08 12.16-3.2-13.12-7.68-1.92-6.72 6.4-1.6 13.12 7.68-3.52-12.8 3.2-6.08 6.08 3.84 6.08 21.76 20.48 12.16-0.64-24.32-16-16v-6.72h6.72l8.96 8.96-0.32-15.36 4.8-4.8z" fill="#87C9F6" /><path d="M333.76 837.76l-16.64 5.44 1.6-6.72 16.64-5.44-1.6 6.72z" fill="#80A3BB" /><path d="M635.84 776.96l-16.32 5.44 12.16-7.68 16.64-5.44-12.48 7.68zM629.44 761.6l-16.64 5.76 5.76-3.52 16.64-5.76-5.76 3.52z" fill="#80A4BD" /><path d="M656.32 837.76l-16.32 5.44-6.72 1.92 16.64-5.76 6.4-1.6zM653.44 820.16l-16.32 5.44-11.84 3.2 16.32-5.44 11.84-3.2zM650.56 798.08l-16.64 5.44-21.44-5.76 16.64-5.44 21.44 5.76zM624 783.68l-16.32 5.76 5.12-22.08 16.64-5.76-5.44 22.08z" fill="#80A3BB" /><path d="M649.92 839.36l-16.64 5.76-12.8-7.68 16.32-5.44 13.12 7.36z" fill="#80A3BB" /><path d="M603.52 757.76l-16.64 5.76 8.32-9.28 16.64-5.44-8.32 8.96z" fill="#80A4BC" /><path d="M637.12 850.24l-16.32 5.76-6.08-3.52 16.64-5.76 5.76 3.52z" fill="#80A3BB" /><path d="M631.36 846.72l-16.64 5.76-6.08-22.08 16.32-5.76 6.4 22.08z" fill="#80A3BB" /><path d="M593.28 742.4l-16.32 5.76 4.48-5.12 16.64-5.44-4.8 4.8z" fill="#80A4BC" /><path d="M593.6 757.76l-16.32 5.44-0.32-15.04 16.32-5.76 0.32 15.36z" fill="#80A3BB" /><path d="M604.16 795.84l-16.32 5.44 19.84-11.84 16.32-5.76-19.84 12.16z" fill="#80A4BD" /><path d="M624.96 824.64l-16.32 5.76-20.48-12.16 16.64-5.44 20.16 11.84zM594.56 795.84l-16.64 5.44-0.32-24 16.32-5.76 0.64 24.32zM621.44 860.16l-16.64 5.44h-7.04l16.64-5.44h7.04zM577.92 755.52l-16.32 5.76-0.32-7.04 16.64-5.44v6.72z" fill="#80A3BB" /><path d="M593.92 771.52l-16.32 5.76-16-16 16.32-5.76 16 16zM614.4 860.16l-16.64 5.44-8.64-9.28 16.32-5.44 8.96 9.28zM595.52 837.12l-16.64 5.44-0.32-24 16.32-5.44 0.64 24z" fill="#80A3BB" /><path d="M596.16 866.24l-16.64 5.44-0.32-15.36 16.64-5.44 0.32 15.36z" fill="#80A3BB" /><path d="M600.96 871.04l-16.32 5.44-5.12-4.8 16.64-5.44 4.8 4.8zM590.08 804.48l-16.64 5.44-20.48-12.16 16.64-5.44 20.48 12.16zM558.72 764.16l-16.32 5.76 3.2-6.08 16.32-5.76-3.2 6.08zM562.24 776.96l-16.32 5.44-3.52-12.48 16.32-5.76 3.52 12.8z" fill="#80A3BB" /><path d="M570.24 816.32l-16.64 5.76 19.84-12.16 16.64-5.44-19.84 11.84z" fill="#80A4BD" /><path d="M580.16 852.8l-16.32 5.76 15.04-16 16.64-5.44-15.36 15.68z" fill="#80A4BC" /><path d="M587.52 860.16l-16.64 5.44h-7.04l16.64-5.44h7.04z" fill="#80A3BB" /><path d="M580.48 860.16l-16.64 5.44v-7.04l16.32-5.76 0.32 7.36zM544.64 777.6l-16.64 5.76-1.6-7.04 16.32-5.44 1.92 6.72z" fill="#80A3BB" /><path d="M557.76 785.28l-16.64 5.44-13.12-7.36 16.64-5.76 13.12 7.68zM569.6 792.32l-16.64 5.44-21.12 5.76 16.64-5.44 21.12-5.76zM564.16 850.24l-16.64 5.76-3.52-6.08 16.64-5.76 3.52 6.08z" fill="#80A3BB" /><path d="M560.64 844.16l-16.64 5.76 2.88-12.48 16.64-5.44-2.88 12.16zM548.48 798.08l-16.64 5.44-5.76-3.2 16.32-5.76 6.08 3.52zM542.4 794.56l-16.32 5.76 3.2-6.08 16.32-5.76-3.2 6.08zM558.4 823.36l-16.32 5.44-12.16-3.2 16.32-5.76 12.16 3.52z" fill="#80A3BB" /><path d="M543.04 813.76l-16.64 5.76 5.76-3.52 16.64-5.44-5.76 3.2z" fill="#80A4BD" /><path d="M546.24 819.84l-16.32 5.76-3.52-6.08 16.64-5.76 3.2 6.08z" fill="#80A3BB" /><path d="M545.92 831.04l-16.64 5.44 12.8-7.68 16.32-5.44-12.48 7.68z" fill="#80A4BD" /><path d="M551.04 839.36l-16.64 5.76-6.72-1.92 16.64-5.44 6.72 1.6z" fill="#80A3BB" /><path d="M598.08 737.6l5.12 4.8 0.32 15.36 8.32-8.96h7.04v6.72l-15.04 16 0.32 24.32 19.84-12.16 5.44-22.08 5.76-3.52 3.52 6.08-2.88 12.8 12.48-7.68 6.72 1.6-1.6 6.72-12.8 7.68 12.16 3.2 3.52 6.08-5.76 3.52-21.44-5.76-19.84 12.16 20.48 11.84 21.12-5.76 5.76 3.52-3.2 6.08-11.84 3.2 12.8 7.68 1.92 6.72-6.4 1.6-13.12-7.36 3.52 12.16-3.2 6.08-5.76-3.52-6.4-22.08-20.16-11.84 0.32 24.32 16 16 0.32 7.04h-7.04l-8.96-9.28 0.32 15.36-4.8 4.8-4.8-4.8-0.32-15.36-8.32 9.28h-7.04l-0.32-7.36 15.36-15.68-0.64-24-19.84 11.52-5.12 22.08-5.76 3.52-3.52-6.08 2.88-12.16-12.48 7.36-6.72-1.6 1.6-6.72 12.48-7.68-12.16-3.52-3.2-6.08 5.76-3.2 21.44 5.76 19.84-11.84-20.48-12.16-21.12 5.76-6.08-3.52 3.2-6.08 12.16-3.2-13.12-7.68-1.92-6.72 6.72-1.6 12.8 7.68-3.52-12.8 3.2-6.08 6.08 3.84 6.4 21.76 20.16 12.16-0.64-24.32-16-16v-6.72h7.04l8.64 8.96-0.32-15.36 4.8-4.8z" fill="#87C9F6" /><path d="M544.32 837.76l-16.64 5.44 1.6-6.72 16.64-5.44-1.6 6.72z" fill="#80A3BB" /></svg>