<?xml version="1.0" standalone="no"?><!DOCTYPE svg PUBLIC "-//W3C//DTD SVG 1.1//EN" "http://www.w3.org/Graphics/SVG/1.1/DTD/svg11.dtd"><svg class="icon" width="200px" height="200.00px" viewBox="0 0 1024 1024" version="1.1" xmlns="http://www.w3.org/2000/svg"><path d="M0 0m128 0l768 0q128 0 128 128l0 768q0 128-128 128l-768 0q-128 0-128-128l0-768q0-128 128-128Z" fill="#10AAFF" opacity=".1" /><path d="M403.84 705.92h-4.16V704l3.84 2.24z" fill="#F7F7F7" /><path d="M403.84 705.92h-4.16V704l3.84 2.24z" fill="#F7F7F7" /><path d="M850.56 651.2l-32 22.08a170.56 170.56 0 0 1-96 29.76l32-22.4a173.76 173.76 0 0 0 96-29.44" fill="#BEBEBE" /><path d="M753.28 680.64l-32.64 22.4h-91.2l32.64-22.4h91.2z" fill="#BBBBBB" /><path d="M376.32 320l-32 22.4a177.6 177.6 0 0 1 76.16-148.8l32-22.08A176.64 176.64 0 0 0 376.32 320" fill="#BEBEBE" /><path d="M662.08 680.64l-32.64 22.4h-91.2l32.64-22.4h91.2z" fill="#BBBBBB" /><path d="M570.88 680.64l-32.64 22.4H295.36l32.64-22.4h242.88z" fill="#BBBBBB" /><path d="M328 680.64l-32 22.4a194.24 194.24 0 0 1-192-185.92 175.68 175.68 0 0 1 76.8-155.52l32-22.4a176.32 176.32 0 0 0-75.2 155.84 193.92 193.92 0 0 0 192 185.6" fill="#BEBEBE" /><path d="M550.08 143.04a194.56 194.56 0 0 1 189.12 166.4 194.56 194.56 0 0 1 188.8 185.6 174.08 174.08 0 0 1-173.44 185.6H328a193.92 193.92 0 0 1-190.4-185.6 174.08 174.08 0 0 1 173.44-185.6 184.64 184.64 0 0 1 64 11.84 173.76 173.76 0 0 1 175.04-178.24z" fill="#F8F8F8" /><path d="M556.48 776.96l-16.64 5.44 12.48-7.68 16.32-5.44-12.16 7.68zM550.08 761.6l-16.64 5.76 5.76-3.52 16.64-5.76-5.76 3.52z" fill="#80A4BD" /><path d="M576.96 837.76l-16.32 5.44-6.4 1.92 16.32-5.76 6.4-1.6zM574.08 820.16l-16.32 5.44-12.16 3.2 16.64-5.44 11.84-3.2zM571.2 798.08l-16.64 5.44-21.12-5.76 16.32-5.44 21.44 5.76zM544.96 783.68l-16.64 5.76 5.12-22.08 16.64-5.76-5.12 22.08zM570.56 839.36l-16.32 5.76-13.12-7.68 16.64-5.44 12.8 7.36z" fill="#80A3BB" /><path d="M524.16 757.76l-16.64 5.76 8.64-9.28 16.64-5.44-8.64 8.96z" fill="#80A4BC" /><path d="M557.76 850.24l-16.32 5.76-6.08-3.52 16.64-5.76 5.76 3.52z" fill="#80A3BB" /><path d="M552 846.72l-16.64 5.76-6.4-22.08 16.64-5.76 6.4 22.08z" fill="#80A3BB" /><path d="M513.92 742.4l-16.64 5.76 5.12-5.12 16.32-5.44-4.8 4.8z" fill="#80A4BC" /><path d="M514.24 757.76l-16.32 5.44-0.64-15.04 16.64-5.76 0.32 15.36z" fill="#80A3BB" /><path d="M524.8 795.84l-16.32 5.44 19.84-11.84 16.64-5.76-20.16 12.16z" fill="#80A4BD" /><path d="M545.6 824.64l-16.64 5.76-20.16-12.16 16.32-5.44 20.48 11.84zM515.2 795.84l-16.64 5.44-0.64-24 16.64-5.76 0.64 24.32zM541.76 860.16l-16.32 5.44h-6.72l16.64-5.44h6.4zM498.56 755.52l-16.32 5.76-0.32-7.04 16.64-5.44v6.72z" fill="#80A3BB" /><path d="M514.56 771.52l-16.64 5.76-15.68-16 16.32-5.76 16 16zM535.36 860.16l-16.64 5.44-8.96-9.28 16.32-5.44 9.28 9.28zM516.16 837.12l-16.64 5.44-0.32-24 16.32-5.44 0.64 24z" fill="#80A3BB" /><path d="M516.8 866.24l-16.64 5.44-0.32-15.36 16.64-5.44 0.32 15.36z" fill="#80A3BB" /><path d="M521.92 871.04l-16.64 5.44-5.12-4.8 16.64-5.44 5.12 4.8zM510.72 804.48l-16.64 5.44-20.16-12.16 16.32-5.44 20.48 12.16zM479.36 764.16l-16.64 5.76 3.52-6.08 16.64-5.76-3.52 6.08zM482.88 776.96l-16.32 5.44-3.84-12.48 16.64-5.76 3.52 12.8z" fill="#80A3BB" /><path d="M490.88 816.32l-16.64 5.76 19.84-12.16 16.64-5.44-19.84 11.84z" fill="#80A4BD" /><path d="M501.12 852.8l-16.64 5.76 15.04-16 16.64-5.44-15.04 15.68z" fill="#80A4BC" /><path d="M507.84 860.16l-16.32 5.44h-6.72l16.64-5.44h6.4z" fill="#80A3BB" /><path d="M501.44 860.16l-16.64 5.44-0.32-7.04 16.64-5.76 0.32 7.36zM465.6 777.6l-16.64 5.76-2.24-7.04 16.64-5.44 2.24 6.72z" fill="#80A3BB" /><path d="M478.08 785.28l-16.32 5.44-12.8-7.36 16.64-5.76 12.48 7.68zM490.24 792.32l-16.32 5.44-21.44 5.76 16.64-5.44 21.12-5.76zM484.8 850.24l-16.64 5.76-3.52-6.08 16.64-5.76 3.52 6.08zM481.28 844.16l-16.64 5.76 2.88-12.48 16.32-5.44-2.56 12.16z" fill="#80A3BB" /><path d="M469.12 798.08l-16.64 5.44-5.76-3.2 16.32-5.76 6.08 3.52zM463.04 794.56l-16.32 5.76 3.2-6.08 16.32-5.76-3.2 6.08zM479.36 823.36l-16.64 5.44-12.16-3.2 16.32-5.76 12.48 3.52z" fill="#80A3BB" /><path d="M463.36 813.76l-16.32 5.76 5.76-3.52 16.32-5.44-5.76 3.2z" fill="#80A4BD" /><path d="M466.88 819.84l-16.32 5.76-3.52-6.08 16.32-5.76 3.52 6.08z" fill="#80A3BB" /><path d="M466.56 831.04l-16.32 5.44 12.48-7.68 16.64-5.44-12.8 7.68z" fill="#80A4BD" /><path d="M471.68 839.36l-16.64 5.76-6.72-1.92 16.64-5.44 6.72 1.6z" fill="#80A3BB" /><path d="M518.72 737.6l4.8 4.8 0.64 15.36 8.64-8.96h6.72v6.72l-15.04 16 0.32 24.32 20.16-12.16 5.12-22.08 5.76-3.52 3.52 6.08-2.88 12.8 12.16-7.68 6.72 1.6-1.28 6.72-12.8 7.68 12.16 3.2 3.52 6.08-5.76 3.52-21.44-5.76-19.84 12.16 20.48 11.84 21.12-5.76 5.76 3.52-3.2 6.08-11.84 3.2 13.12 7.68 1.6 6.72-6.4 1.6-12.8-7.36 3.2 12.16-3.2 6.08-5.76-3.52-6.4-22.08-20.48-11.84 0.64 24.32 16 16v7.04h-6.4l-9.28-9.28 0.32 15.36-4.48 4.8-5.12-4.8-0.32-15.36-8.64 9.28h-6.4l-0.32-7.36 15.04-15.68-0.64-24-19.84 11.52-5.12 22.08-5.76 3.52-3.52-6.08 2.56-12.16-12.16 7.36-6.72-1.6 1.6-6.72 12.8-7.68-12.48-3.52-3.52-6.08 5.76-3.2 21.76 5.76 19.84-11.84-20.48-12.16-21.12 5.76-6.08-3.52 3.2-6.08 11.84-3.2-12.48-7.68-2.24-6.72 6.72-1.6 12.8 7.68-3.52-12.8 3.52-6.08 5.76 3.84 6.08 21.76 20.48 12.16-0.64-24.32-16-16v-6.72h6.72l8.96 8.96-0.32-15.36 4.8-4.8z" fill="#87C9F6" /><path d="M464.96 837.76l-16.64 5.44 1.92-6.72 16.32-5.44-1.6 6.72z" fill="#80A3BB" /></svg>