<?xml version="1.0" standalone="no"?><!DOCTYPE svg PUBLIC "-//W3C//DTD SVG 1.1//EN" "http://www.w3.org/Graphics/SVG/1.1/DTD/svg11.dtd"><svg class="icon" width="200px" height="200.00px" viewBox="0 0 1024 1024" version="1.1" xmlns="http://www.w3.org/2000/svg"><path d="M0 0m128 0l768 0q128 0 128 128l0 768q0 128-128 128l-768 0q-128 0-128-128l0-768q0-128 128-128Z" fill="#10AAFF" opacity=".1" /><path d="M403.84 705.92h-4.16V704l3.84 2.24z" fill="#F7F7F7" /><path d="M403.84 705.92h-4.16V704l3.84 2.24z" fill="#F7F7F7" /><path d="M850.88 602.56l-32 22.4a175.04 175.04 0 0 1-97.92 29.76l32-22.4a172.8 172.8 0 0 0 97.92-29.76" fill="#BEBEBE" /><path d="M752.96 632.32l-32.64 22.4h-90.88l32.64-22.4h90.88z" fill="#BBBBBB" /><path d="M376.32 272.96l-32 22.4a177.6 177.6 0 0 1 76.16-148.8l32-22.08a175.68 175.68 0 0 0-76.16 148.48" fill="#BEBEBE" /><path d="M662.08 632.32l-32.64 22.4h-91.2l32.64-22.4h91.2z" fill="#BBBBBB" /><path d="M570.88 632.32l-32.64 22.4H295.36l32.64-22.4h242.88z" fill="#BBBBBB" /><path d="M328 632.32l-32 22.4a194.88 194.88 0 0 1-192-185.6 177.6 177.6 0 0 1 76.8-156.16l32-22.08A176.96 176.96 0 0 0 137.28 448a194.88 194.88 0 0 0 192 185.6" fill="#BEBEBE" /><path d="M550.08 96a193.92 193.92 0 0 1 188.8 166.4A194.24 194.24 0 0 1 928 448a174.08 174.08 0 0 1-173.76 185.6H328a194.88 194.88 0 0 1-192-185.6 174.4 174.4 0 0 1 173.76-185.6 184.64 184.64 0 0 1 64 11.84A173.76 173.76 0 0 1 550.08 96z" fill="#F8F8F8" /><path d="M284.16 711.36l-16.64 5.44 40.32-24.32 16.32-5.76-40 24.64z" fill="#4D9BBA" /><path d="M323.84 800l-16.32 5.44a43.84 43.84 0 0 1-14.4 2.24 48.96 48.96 0 0 1-48-48.32 47.04 47.04 0 0 1 22.4-41.6l16.64-5.44a47.04 47.04 0 0 0-22.4 41.6A48.64 48.64 0 0 0 309.44 800a52.16 52.16 0 0 0 14.4-2.24" fill="#4D9BBB" /><path d="M324.16 686.72l24.32 41.92a52.48 52.48 0 0 1 7.04 24.32A46.72 46.72 0 0 1 309.44 800a48.64 48.64 0 0 1-47.68-48.32 47.04 47.04 0 0 1 22.4-41.6z" fill="#2BB8F0" /><path d="M467.2 711.36l-16.32 5.44 40-24.32 16.64-5.76-40.32 24.64z" fill="#4D9BBA" /><path d="M507.2 800l-16.64 5.44a42.56 42.56 0 0 1-14.4 2.24 48.96 48.96 0 0 1-48-48.32 46.72 46.72 0 0 1 22.72-41.6l16.32-5.44a47.36 47.36 0 0 0-22.72 41.6A49.28 49.28 0 0 0 492.8 800a54.08 54.08 0 0 0 14.4-2.24" fill="#4D9BBB" /><path d="M507.2 686.72l24.32 41.92a48.96 48.96 0 0 1 7.04 24.32A46.4 46.4 0 0 1 492.8 800a49.28 49.28 0 0 1-48.32-48.32 47.36 47.36 0 0 1 22.72-41.6z" fill="#2BB8F0" /><path d="M650.56 711.36l-16.64 5.44 40-24.32 16.64-5.76-40 24.64z" fill="#4D9BBA" /><path d="M690.24 800l-16.32 5.44a45.76 45.76 0 0 1-14.72 2.24 49.28 49.28 0 0 1-48-48.32 47.36 47.36 0 0 1 22.72-41.6l16.64-5.44a46.72 46.72 0 0 0-22.72 41.6 48.96 48.96 0 0 0 48 46.08 52.16 52.16 0 0 0 14.4-2.24" fill="#4D9BBB" /><path d="M690.56 686.72l24.32 41.92a52.48 52.48 0 0 1 7.04 24.32A46.72 46.72 0 0 1 675.84 800a48.96 48.96 0 0 1-48-48.32 46.72 46.72 0 0 1 22.72-41.6z" fill="#2BB8F0" /><path d="M360 857.6l-16.32 5.76h-0.32l16.32-5.76h0.32z" fill="#4F9AB8" /><path d="M359.68 857.6l-16.32 5.76 27.52-16.64 16.32-5.44-27.52 16.32z" fill="#4D9BBA" /><path d="M387.2 917.76l-16.32 5.76a32 32 0 0 1-42.88-32 32 32 0 0 1 15.68-28.8l16.32-5.44a32 32 0 0 0-15.36 28.48 32 32 0 0 0 32 32 32 32 0 0 0 9.92-1.6" fill="#4D9BBB" /><path d="M387.2 840.96l16.96 28.8a36.16 36.16 0 0 1 4.8 16.64 32 32 0 0 1-32 32 32 32 0 0 1-32-32 32 32 0 0 1 15.36-28.48z" fill="#2BB8F0" /><path d="M536.64 857.6l-16.64 5.76 16.32-5.76h0.32z" fill="#4F9AB8" /><path d="M536.32 857.6l-16.32 5.76 27.2-16.64 16.64-5.44-27.52 16.32z" fill="#4D9BBA" /><path d="M563.84 917.76l-16.64 5.76a32 32 0 0 1-9.92 1.6 32 32 0 0 1-32-32 32 32 0 0 1 15.36-28.8l16.64-5.44a32 32 0 0 0-15.36 28.48 32 32 0 0 0 32 32 33.92 33.92 0 0 0 9.92-1.6" fill="#4D9BBB" /><path d="M563.84 840.96l16.64 28.8a36.16 36.16 0 0 1 4.8 16.64 32 32 0 0 1-32 32 32 32 0 0 1-32-32 32 32 0 0 1 15.36-28.48z" fill="#2BB8F0" /></svg>