<?xml version="1.0" standalone="no"?><!DOCTYPE svg PUBLIC "-//W3C//DTD SVG 1.1//EN" "http://www.w3.org/Graphics/SVG/1.1/DTD/svg11.dtd"><svg class="icon" width="200px" height="200.00px" viewBox="0 0 1024 1024" version="1.1" xmlns="http://www.w3.org/2000/svg"><path d="M0 0m128 0l768 0q128 0 128 128l0 768q0 128-128 128l-768 0q-128 0-128-128l0-768q0-128 128-128Z" fill="#10AAFF" opacity=".1" /><path d="M403.84 705.92h-4.16V704l3.84 2.24z" fill="#F7F7F7" /><path d="M403.84 705.92h-4.16V704l3.84 2.24z" fill="#F7F7F7" /><path d="M850.56 650.88l-32 22.4a173.44 173.44 0 0 1-97.92 29.76l32-22.4a171.52 171.52 0 0 0 96-29.76" fill="#BEBEBE" /><path d="M752.96 680.64l-32.64 22.4h-90.88l32.64-22.4h90.88z" fill="#BBBBBB" /><path d="M376.32 320l-32 22.4a177.6 177.6 0 0 1 76.16-148.8l32-22.08A175.68 175.68 0 0 0 376.32 320" fill="#BEBEBE" /><path d="M662.08 680.64l-32.64 22.4h-91.2l32.64-22.4h91.2z" fill="#BBBBBB" /><path d="M570.88 680.64l-32.64 22.4H295.36l32.64-22.4h242.88z" fill="#BBBBBB" /><path d="M328 680.64l-32 22.4a194.88 194.88 0 0 1-192-185.92 176.64 176.64 0 0 1 76.8-155.52l32-22.4a177.28 177.28 0 0 0-76.16 155.84 194.56 194.56 0 0 0 192 185.6" fill="#BEBEBE" /><path d="M550.08 143.04a194.24 194.24 0 0 1 188.8 166.4 194.56 194.56 0 0 1 189.12 185.6 173.76 173.76 0 0 1-173.76 185.6H328a194.56 194.56 0 0 1-192-185.6 174.4 174.4 0 0 1 173.76-185.6 184.64 184.64 0 0 1 64 11.84 173.44 173.44 0 0 1 176.32-178.24z" fill="#F8F8F8" /><path d="M343.04 776.96l-16.32 5.44 12.16-7.68 16.64-5.44-12.48 7.68zM336.64 761.6l-16.32 5.76 5.76-3.52 16.32-5.76-5.76 3.52z" fill="#80A4BD" /><path d="M363.84 837.76l-16.64 5.44-6.4 1.92 16.64-5.76 6.4-1.6zM360.96 820.16l-16.64 5.44-11.84 3.2 16.32-5.44 12.16-3.2zM357.76 798.08l-16.32 5.44-21.76-5.76 16.64-5.44 21.44 5.76zM331.52 783.68l-16.64 5.76 5.44-22.08 16.32-5.76-5.12 22.08z" fill="#80A3BB" /><path d="M357.44 839.36l-16.64 5.76-13.12-7.68 16.32-5.44 13.44 7.36z" fill="#80A3BB" /><path d="M310.72 757.76l-16.32 5.76 8.32-9.28 16.32-5.44-8.32 8.96z" fill="#80A4BC" /><path d="M344.64 850.24l-16.64 5.76-5.76-3.52 16.32-5.76 6.08 3.52z" fill="#80A3BB" /><path d="M338.56 846.72l-16.32 5.76-6.4-22.08 16.32-5.76 6.4 22.08z" fill="#80A3BB" /><path d="M300.48 742.4l-16.32 5.76 4.8-5.12 16.64-5.44-5.12 4.8z" fill="#80A4BC" /><path d="M301.12 757.76l-16.64 5.44-0.32-15.04 16.32-5.76 0.64 15.36z" fill="#80A3BB" /><path d="M311.68 795.84l-16.64 5.44 19.84-11.84 16.64-5.76-19.84 12.16z" fill="#80A4BD" /><path d="M332.16 824.64l-16.32 5.76-20.48-12.16 16.64-5.44 20.16 11.84zM301.76 795.84l-16.32 5.44-0.64-24 16.64-5.76 0.32 24.32zM328.64 860.16l-16.64 5.44h-6.72l16.32-5.44h7.04zM285.44 755.52l-16.64 5.76v-7.04l16.32-5.44 0.32 6.72z" fill="#80A3BB" /><path d="M301.44 771.52l-16.64 5.76-16-16 16.64-5.76 16 16zM321.6 860.16l-16.32 5.44-8.96-9.28 16.64-5.44 8.64 9.28zM302.72 837.12l-16.32 5.44-0.64-24 16.64-5.44 0.32 24z" fill="#80A3BB" /><path d="M303.36 866.24l-16.32 5.44-0.32-15.36 16.32-5.44 0.32 15.36z" fill="#80A3BB" /><path d="M308.48 871.04l-16.32 5.44-5.12-4.8 16.32-5.44 5.12 4.8zM297.28 804.48l-16.32 5.44-20.8-12.16 16.64-5.44 20.48 12.16zM265.92 764.16l-16.32 5.76 3.2-6.08 16.32-5.76-3.2 6.08zM269.76 776.96l-16.64 5.44-3.52-12.48 16.32-5.76 3.84 12.8z" fill="#80A3BB" /><path d="M277.44 816.32l-16.32 5.76 19.84-12.16 16.32-5.44-19.84 11.84z" fill="#80A4BD" /><path d="M287.68 852.8l-16.32 5.76 15.04-16 16.32-5.44-15.04 15.68z" fill="#80A4BC" /><path d="M294.72 860.16l-16.64 5.44h-6.72l16.64-5.44h6.72z" fill="#80A3BB" /><path d="M288 860.16l-16.64 5.44v-7.04l16.32-5.76 0.32 7.36zM251.84 777.6l-16.32 5.76-1.92-7.04 16.64-5.44 1.6 6.72z" fill="#80A3BB" /><path d="M264.96 785.28l-16.64 5.44-12.8-7.36 16.32-5.76 13.12 7.68zM276.8 792.32l-16.64 5.44-20.8 5.76 16.32-5.44 21.12-5.76zM271.36 850.24l-16.64 5.76-3.2-6.08 16.32-5.76 3.52 6.08zM267.84 844.16l-16.32 5.76 2.56-12.48 16.64-5.44-2.88 12.16z" fill="#80A3BB" /><path d="M255.68 798.08l-16.32 5.44-6.08-3.2 16.64-5.76 5.76 3.52zM249.92 794.56l-16.64 5.76 3.2-6.08 16.64-5.76-3.2 6.08zM265.6 823.36l-16.32 5.44-12.16-3.2 16.64-5.76 11.84 3.52z" fill="#80A3BB" /><path d="M250.24 813.76l-16.64 5.76 6.08-3.52 16.32-5.44-5.76 3.2z" fill="#80A4BD" /><path d="M253.76 819.84l-16.64 5.76-3.52-6.08 16.64-5.76 3.52 6.08z" fill="#80A3BB" /><path d="M253.12 831.04l-16.64 5.44 12.8-7.68 16.32-5.44-12.48 7.68z" fill="#80A4BD" /><path d="M258.24 839.36l-16.32 5.76-6.72-1.92 16.32-5.44 6.72 1.6z" fill="#80A3BB" /><path d="M305.6 737.6l4.8 4.8 0.32 15.36 8.32-8.96h7.04l0.32 6.72-15.36 16 0.64 24.32 19.84-12.16 5.12-22.08 5.76-3.52 3.52 6.08-2.88 12.8 12.48-7.68 6.72 1.6-1.6 6.72-12.48 7.68 11.84 3.2 3.52 6.08-5.76 3.52-21.44-5.76-19.84 12.16 20.48 11.84 21.12-5.76 6.08 3.52-3.2 6.08-12.16 3.2 13.12 7.68 1.92 6.72-6.4 1.6-13.44-7.36 3.84 12.16-3.2 6.08-6.08-3.52-6.4-22.08-20.16-11.84 0.64 24.32 16 16v7.04h-7.04l-8.64-9.28 0.32 15.36-4.8 4.8-5.12-4.8-0.32-15.36-8.32 9.28H288l-0.32-7.36 15.04-15.68-0.32-24-19.84 11.52-5.44 22.08-5.76 3.52-3.52-6.08 2.88-12.16-12.48 7.36-6.72-1.6 1.6-6.72 12.48-7.68-11.84-3.52-3.52-6.08 5.76-3.2 21.44 5.76 19.84-11.84-20.48-12.16-21.12 5.76-5.76-3.52 3.2-6.08 11.84-3.2-13.12-7.68-1.6-6.72 6.4-1.6 13.12 7.68-3.84-12.8 3.2-6.08 6.08 3.84 6.4 21.76 20.16 12.16-0.32-24.32-16-16-0.32-6.72h7.04l8.96 8.96-0.64-15.36 5.12-4.8z" fill="#87C9F6" /><path d="M251.52 837.76l-16.32 5.44 1.28-6.72 16.64-5.44-1.6 6.72z" fill="#80A3BB" /><path d="M556.16 776.96l-16.32 5.44 12.48-7.68 16.64-5.44-12.8 7.68zM550.08 761.6l-16.32 5.76 5.76-3.52 16.32-5.76-5.76 3.52z" fill="#80A4BD" /><path d="M577.28 837.76l-16.64 5.44-6.72 1.92 16.64-5.76 6.72-1.6zM574.4 820.16l-16.64 5.44-11.84 3.2 16.32-5.44 12.16-3.2zM571.2 798.08l-16.32 5.44-21.76-5.76 16.64-5.44 21.44 5.76zM544.64 783.68l-16.32 5.76 5.44-22.08 16.32-5.76-5.44 22.08z" fill="#80A3BB" /><path d="M570.56 839.36l-16.64 5.76-12.8-7.68 16.32-5.44 13.12 7.36z" fill="#80A3BB" /><path d="M523.84 757.76l-16.32 5.76 8.64-9.28 16.32-5.44-8.64 8.96z" fill="#80A4BC" /><path d="M558.08 850.24l-16.64 5.76-6.08-3.52 16.32-5.76 6.4 3.52zM551.68 846.72l-16.32 5.76-6.08-22.08 16.32-5.76 6.08 22.08z" fill="#80A3BB" /><path d="M513.92 742.4l-16.32 5.76 4.48-5.12 16.64-5.44-4.8 4.8z" fill="#80A4BC" /><path d="M514.24 757.76l-16.32 5.44-0.32-15.04 16.32-5.76 0.32 15.36z" fill="#80A3BB" /><path d="M524.8 795.84l-16.64 5.44 20.16-11.84 16.32-5.76-19.84 12.16z" fill="#80A4BD" /><path d="M545.6 824.64l-16.32 5.76-20.8-12.16 16.64-5.44 20.48 11.84zM515.2 795.84l-16.32 5.44-0.64-24 16.64-5.76 0.32 24.32zM541.76 860.16l-16.64 5.44h-6.4l16.32-5.44h6.72zM498.88 755.52l-16.64 5.76v-7.04l16.32-5.44 0.32 6.72z" fill="#80A3BB" /><path d="M514.88 771.52l-16.64 5.76-16-16 16.64-5.76 16 16zM535.04 860.16l-16.32 5.44-9.28-9.28 16.64-5.44 8.96 9.28zM516.16 837.12l-16.32 5.44-0.64-24 16.32-5.44 0.64 24z" fill="#80A3BB" /><path d="M516.8 866.24l-16.32 5.44-0.32-15.36 16.32-5.44 0.32 15.36zM521.6 871.04l-16.32 5.44-4.8-4.8 16.32-5.44 4.8 4.8zM510.72 804.48l-16.32 5.44-20.8-12.16 16.64-5.44 20.48 12.16zM479.36 764.16l-16.32 5.76 3.2-6.08 16.32-5.76-3.2 6.08zM483.2 776.96l-16.64 5.44-3.52-12.48 16.32-5.76 3.84 12.8z" fill="#80A3BB" /><path d="M490.56 816.32l-16.32 5.76 20.16-12.16 16.32-5.44-20.16 11.84z" fill="#80A4BD" /><path d="M501.12 852.8l-16.64 5.76 15.36-16 16.32-5.44-15.04 15.68z" fill="#80A4BC" /><path d="M508.16 860.16l-16.64 5.44h-7.04l16.64-5.44h7.04z" fill="#80A3BB" /><path d="M501.12 860.16l-16.64 5.44v-7.04l16.64-5.76v7.36zM465.28 777.6l-16.32 5.76-1.92-7.04 16.32-5.44 1.92 6.72z" fill="#80A3BB" /><path d="M478.4 785.28l-16.64 5.44-12.8-7.36 16.32-5.76 13.12 7.68zM490.24 792.32l-16.64 5.44-21.12 5.76 16.64-5.44 21.12-5.76zM484.8 850.24l-16.64 5.76-3.52-6.08 16.32-5.76 3.84 6.08zM480.96 844.16l-16.32 5.76 2.88-12.48 16.64-5.44-3.2 12.16z" fill="#80A3BB" /><path d="M469.12 798.08l-16.64 5.44-5.76-3.2 16.64-5.76 5.76 3.52zM463.36 794.56l-16.64 5.76 3.2-6.08 16.64-5.76-3.2 6.08zM479.04 823.36l-16.32 5.44-12.16-3.2 16.64-5.76 11.84 3.52z" fill="#80A3BB" /><path d="M463.68 813.76l-16.64 5.76 5.76-3.52 16.64-5.44-5.76 3.2z" fill="#80A4BD" /><path d="M467.2 819.84l-16.64 5.76-3.52-6.08 16.64-5.76 3.52 6.08z" fill="#80A3BB" /><path d="M466.56 831.04l-16.64 5.44 12.8-7.68 16.32-5.44-12.48 7.68z" fill="#80A4BD" /><path d="M471.36 839.36l-16.32 5.76-6.4-1.92 16.32-5.44 6.4 1.6z" fill="#80A3BB" /><path d="M518.72 737.6l4.8 4.8 0.32 15.36 8.64-8.96h6.72l0.32 6.72-15.36 16 0.64 24.32 19.84-12.16 5.44-22.08 5.76-3.52 3.52 6.08-3.2 12.8 12.8-7.68 6.72 1.6-1.92 6.72-12.48 7.68 12.16 3.2 3.52 6.08-5.76 3.52-21.44-5.76-19.84 12.16 20.48 11.84 21.12-5.76 6.08 3.52-3.2 6.08-12.16 3.2 12.8 7.68 2.24 6.72-6.72 1.6-13.12-7.36 3.84 12.16-3.2 6.08-6.4-3.52-6.08-22.08-20.48-11.84 0.64 24.32 16 16v7.04h-6.72l-8.96-9.28 0.32 15.36-4.8 4.8-4.8-4.8-0.32-15.36-8.32 9.28h-7.04v-7.36l15.04-15.68-0.64-24-19.84 11.52-5.12 22.08-5.76 3.52-3.84-6.08 3.2-12.16-12.8 7.36-6.4-1.6 1.6-6.72 12.48-7.68-11.84-3.52-3.52-6.08 5.76-3.2 21.12 5.76 20.16-11.84-20.48-12.16-21.12 5.76-5.76-3.52 3.2-6.08 11.84-3.2-13.12-7.68-1.92-6.72 6.4-1.6 13.44 7.68-3.84-12.8 3.2-6.08 6.08 3.84 6.4 21.76 20.16 12.16-0.32-24.32-16-16-0.32-6.72h6.72l8.96 8.96-0.32-15.36 4.8-4.8z" fill="#87C9F6" /><path d="M464.96 837.76l-16.32 5.44 1.28-6.72 16.64-5.44-1.6 6.72z" fill="#80A3BB" /><path d="M769.6 776.96l-16.32 5.44 12.48-7.68 16.64-5.44-12.8 7.68zM763.2 761.6l-16.32 5.76 5.76-3.52 16.64-5.76-6.08 3.52z" fill="#80A4BD" /><path d="M790.4 837.76l-16.64 5.44-6.4 1.92 16.64-5.76 6.4-1.6zM787.52 820.16l-16.64 5.44-11.84 3.2 16.32-5.44 12.16-3.2zM784.64 798.08l-16.64 5.44-21.44-5.76 16.64-5.44 21.44 5.76zM758.08 783.68l-16.32 5.76 5.12-22.08 16.32-5.76-5.12 22.08z" fill="#80A3BB" /><path d="M784 839.36l-16.64 5.76-12.8-7.68 16.32-5.44 13.12 7.36z" fill="#80A3BB" /><path d="M737.28 757.76l-16.64 5.76 8.96-9.28 16.32-5.44-8.64 8.96z" fill="#80A4BC" /><path d="M771.2 850.24l-16.64 5.76-5.76-3.52 16.32-5.76 6.08 3.52zM765.12 846.72l-16.32 5.76-6.08-22.08 16.32-5.76 6.08 22.08z" fill="#80A3BB" /><path d="M727.36 742.4l-16.32 5.76 4.48-5.12 16.64-5.44-4.8 4.8z" fill="#80A4BC" /><path d="M727.68 757.76l-16.32 5.44-0.32-15.04 16.32-5.76 0.32 15.36z" fill="#80A3BB" /><path d="M738.24 795.84l-16.64 5.44 20.16-11.84 16.32-5.76-19.84 12.16z" fill="#80A4BD" /><path d="M759.04 824.64l-16.32 5.76-20.8-12.16 16.64-5.44 20.48 11.84zM728.64 795.84l-16.64 5.44-0.32-24 16.32-5.76 0.64 24.32zM755.2 860.16l-16.64 5.44h-6.4l16.32-5.44h6.72zM712.32 755.52l-16.64 5.76-0.32-7.04 16.64-5.44 0.32 6.72z" fill="#80A3BB" /><path d="M728 771.52l-16.32 5.76-16-16 16.64-5.76 15.68 16zM748.48 860.16l-16.32 5.44-9.28-9.28 16.64-5.44 8.96 9.28zM729.6 837.12l-16.32 5.44-0.64-24 16.32-5.44 0.64 24z" fill="#80A3BB" /><path d="M730.24 866.24l-16.64 5.44-0.32-15.36 16.64-5.44 0.32 15.36z" fill="#80A3BB" /><path d="M735.04 871.04l-16.32 5.44-5.12-4.8 16.64-5.44 4.8 4.8zM724.16 804.48l-16.64 5.44-20.48-12.16 16.64-5.44 20.48 12.16zM692.8 764.16l-16.32 5.76 3.2-6.08 16.32-5.76-3.2 6.08zM696.32 776.96l-16.64 5.44-3.2-12.48 16.32-5.76 3.52 12.8z" fill="#80A3BB" /><path d="M704 816.32l-16.32 5.76 19.84-12.16 16.64-5.44-20.16 11.84z" fill="#80A4BD" /><path d="M714.24 852.8l-16.32 5.76 15.36-16 16.32-5.44-15.36 15.68z" fill="#80A4BC" /><path d="M721.28 860.16l-16.64 5.44h-6.72l16.64-5.44h6.72z" fill="#80A3BB" /><path d="M714.56 860.16l-16.64 5.44v-7.04l16.32-5.76 0.32 7.36zM678.72 777.6l-16.32 5.76-1.92-7.04 16.32-5.44 1.92 6.72zM691.84 785.28l-16.64 5.44-12.8-7.36 16.32-5.76 13.12 7.68zM703.68 792.32l-16.64 5.44-21.44 5.76 16.64-5.44 21.44-5.76zM697.92 850.24l-16.64 5.76-3.2-6.08 16.32-5.76 3.52 6.08z" fill="#80A3BB" /><path d="M694.4 844.16l-16.32 5.76 2.88-12.48 16.64-5.44-3.2 12.16zM682.24 798.08l-16.64 5.44-5.76-3.2 16.64-5.76 5.76 3.52zM676.48 794.56l-16.64 5.76 3.52-6.08 16.64-5.76-3.52 6.08zM692.48 823.36l-16.32 5.44-12.16-3.2 16.64-5.76 11.84 3.52z" fill="#80A3BB" /><path d="M676.8 813.76l-16.64 5.76 6.08-3.52 16.64-5.44-6.08 3.2z" fill="#80A4BD" /><path d="M680.64 819.84l-16.64 5.76-3.84-6.08 16.64-5.76 3.84 6.08z" fill="#80A3BB" /><path d="M680 831.04l-16.64 5.44 12.8-7.68 16.32-5.44-12.48 7.68z" fill="#80A4BD" /><path d="M684.8 839.36l-16.32 5.76-6.72-1.92 16.64-5.44 6.4 1.6z" fill="#80A3BB" /><path d="M732.16 737.6l4.8 4.8 0.32 15.36 8.64-8.96h6.72v6.72l-15.04 16 0.64 24.32 19.84-12.16 5.12-22.08 6.08-3.52 3.52 6.08-3.2 12.8 12.8-7.68 6.4 1.6-1.6 6.72-12.48 7.68 11.84 3.2 3.84 6.08-5.76 3.52-21.44-5.76-20.16 12.16 20.48 11.84 21.44-5.76 5.76 3.52-3.2 6.08-12.16 3.2 13.12 7.68 1.92 6.72-6.4 1.6-13.12-7.36 3.52 12.16-3.2 6.08-6.08-3.52-6.08-22.08-20.48-11.84 0.64 24.32 15.68 16 0.32 7.04h-6.72l-8.96-9.28 0.32 15.36-4.8 4.8-4.8-4.8-0.32-15.36-8.64 9.28h-6.72l-0.32-7.36 15.36-15.68-0.64-24-19.84 11.52-5.12 22.08-6.08 3.52-3.52-6.08 3.2-12.16-12.8 7.36-6.4-1.6 1.6-6.72 12.48-7.68-11.84-3.52-3.84-6.08 6.08-3.2 21.12 5.76 20.16-11.84-20.48-12.16-21.44 5.76-5.76-3.52 3.52-6.08 11.84-3.2-13.12-7.68-1.92-6.72 6.4-1.6 13.12 7.68-3.52-12.8 3.2-6.08 6.08 3.84 6.08 21.76 20.48 12.16-0.64-24.32-15.68-16-0.32-6.72h6.72l8.96 8.96-0.32-15.36 4.8-4.8z" fill="#87C9F6" /><path d="M678.4 837.76l-16.64 5.44 1.6-6.72 16.64-5.44-1.6 6.72z" fill="#80A3BB" /></svg>