<?xml version="1.0" standalone="no"?><!DOCTYPE svg PUBLIC "-//W3C//DTD SVG 1.1//EN" "http://www.w3.org/Graphics/SVG/1.1/DTD/svg11.dtd"><svg class="icon" width="200px" height="200.00px" viewBox="0 0 1024 1024" version="1.1" xmlns="http://www.w3.org/2000/svg"><path d="M0 0m128 0l768 0q128 0 128 128l0 768q0 128-128 128l-768 0q-128 0-128-128l0-768q0-128 128-128Z" fill="#10AAFF" opacity=".1" /><path d="M403.84 705.92h-4.16V704l3.84 2.24z" fill="#F4B425" /><path d="M403.84 705.92h-4.16V704l3.84 2.24z" fill="#F4B425" /><path d="M192 262.08l-16.32 5.44a39.36 39.36 0 0 1-12.48 1.92 40.96 40.96 0 0 1-39.36-40.64A39.36 39.36 0 0 1 150.08 192l16.64-5.76A39.04 39.04 0 0 0 140.48 224a40.96 40.96 0 0 0 40.32 40A38.72 38.72 0 0 0 192 262.08" fill="#B8974C" /><path d="M178.88 182.72A40.96 40.96 0 0 1 219.2 224a38.72 38.72 0 0 1-38.4 40.64A40.96 40.96 0 0 1 140.48 224a38.72 38.72 0 0 1 38.4-41.28z" fill="#ECB02A" /><path d="M873.92 262.08l-16.64 5.44a38.72 38.72 0 0 1-12.16 1.92 40.64 40.64 0 0 1-40.32-40.64A38.4 38.4 0 0 1 832 192l16.64-5.76A39.36 39.36 0 0 0 821.12 224a41.28 41.28 0 0 0 40.32 40.64 39.36 39.36 0 0 0 12.48-1.92" fill="#B8974C" /><path d="M859.84 182.72A41.28 41.28 0 0 1 900.16 224a39.04 39.04 0 0 1-38.72 40.64A41.28 41.28 0 0 1 821.12 224a39.04 39.04 0 0 1 38.72-41.28z" fill="#ECB02A" /><path d="M533.76 262.08l-16.64 5.44a38.72 38.72 0 0 1-12.16 1.92 40.96 40.96 0 0 1-40.32-40.64A38.72 38.72 0 0 1 490.88 192l16.64-5.76A39.68 39.68 0 0 0 480 224a41.6 41.6 0 0 0 41.6 40 38.72 38.72 0 0 0 12.16-1.92" fill="#B8974C" /><path d="M519.68 182.72A40.96 40.96 0 0 1 560 224a39.04 39.04 0 0 1-38.4 40.64A41.6 41.6 0 0 1 480 224a39.36 39.36 0 0 1 39.68-41.28z" fill="#ECB02A" /><path d="M192 833.6l-16.64 5.44a32 32 0 0 1-12.48 2.24A41.28 41.28 0 0 1 123.84 800a40 40 0 0 1 26.24-38.72l16.64-5.44a38.72 38.72 0 0 0-26.24 38.72 40.64 40.64 0 0 0 40.32 40.32 42.24 42.24 0 0 0 11.2-1.28" fill="#B8974C" /><path d="M178.88 754.56a40.64 40.64 0 0 1 40.32 40.64 38.4 38.4 0 0 1-38.4 40.32 40.64 40.64 0 0 1-40.32-40.32 38.72 38.72 0 0 1 38.4-40.64z" fill="#ECB02A" /><path d="M873.92 833.6l-16.64 5.76a38.72 38.72 0 0 1-12.16 1.92A40.96 40.96 0 0 1 804.8 800a39.04 39.04 0 0 1 27.2-38.08l16.32-5.44a39.36 39.36 0 0 0-26.24 38.72 40.96 40.96 0 0 0 40.32 40.32 39.36 39.36 0 0 0 12.48-1.92" fill="#B8974C" /><path d="M859.84 754.56a40.96 40.96 0 0 1 40.32 40.64 38.72 38.72 0 0 1-38.72 40.32 40.96 40.96 0 0 1-40.32-40.32 39.04 39.04 0 0 1 38.72-40.64z" fill="#ECB02A" /><path d="M533.76 833.6l-16.64 5.76a38.72 38.72 0 0 1-12.16 1.92A40.96 40.96 0 0 1 464.64 800a39.04 39.04 0 0 1 26.24-38.72l16.64-5.44a39.36 39.36 0 0 0-27.52 39.36 41.28 41.28 0 0 0 40.64 40.32 38.72 38.72 0 0 0 12.16-1.92" fill="#B8974C" /><path d="M519.68 754.56a40.96 40.96 0 0 1 40.32 40.64 38.72 38.72 0 0 1-38.4 40.32 41.28 41.28 0 0 1-41.6-40.32 39.04 39.04 0 0 1 39.68-40.64z" fill="#ECB02A" /><path d="M788.8 613.44l-32 22.4a128 128 0 0 0 55.04-112.64 140.8 140.8 0 0 0-137.6-134.4 128 128 0 0 0-72.96 23.36l32-22.4a128 128 0 0 1 72.64-23.04 140.8 140.8 0 0 1 137.92 134.08 128 128 0 0 1-55.04 112.64" fill="#B8974C" /><path d="M525.12 430.08l-32 22.08a269.12 269.12 0 0 1 77.12-84.48l32-22.4a270.08 270.08 0 0 0-77.12 84.8" fill="#B8974C" /><path d="M819.52 658.56l-32 22.08a174.4 174.4 0 0 1-98.88 30.08c-73.28 0-144.32-54.08-189.44-115.52l32-22.4c45.12 61.76 116.16 115.84 189.44 115.84a175.04 175.04 0 0 0 98.56-30.08" fill="#B8974C" /><path d="M422.72 610.88l-32 22.4a207.04 207.04 0 0 0 79.04-110.08l32-22.4a205.76 205.76 0 0 1-79.04 110.08" fill="#B8974C" /><path d="M501.76 500.8l-32 22.4c-32-72-90.56-134.4-163.52-134.4a123.84 123.84 0 0 0-70.4 21.76l32-22.4a125.44 125.44 0 0 1 70.4-21.44c72.96 0 132.16 62.4 163.52 134.08" fill="#B8974C" /><path d="M453.12 655.04l-32 22.08A176.96 176.96 0 0 1 320 710.72a196.48 196.48 0 0 1-192-187.52 179.2 179.2 0 0 1 77.12-157.76l32-22.4A179.84 179.84 0 0 0 160 500.8a196.48 196.48 0 0 0 192 187.84 179.2 179.2 0 0 0 100.48-33.6" fill="#B8974C" /><path d="M704 312.96a197.12 197.12 0 0 1 192 187.84 176 176 0 0 1-175.68 187.84c-73.28 0-144.32-54.08-189.44-115.84-39.36 61.76-105.28 115.84-178.88 115.84a196.48 196.48 0 0 1-192-187.84 176.32 176.32 0 0 1 175.68-187.84c76.8 0 142.72 49.92 189.44 117.12 40.64-67.2 102.08-117.12 178.88-117.12z m14.4 321.92a125.76 125.76 0 0 0 125.44-134.08 140.8 140.8 0 0 0-137.92-134.08c-72.64 0-126.4 62.4-151.04 134.08 21.12 59.84 90.56 134.08 163.52 134.08m-368 0c72.96 0 135.68-74.24 151.36-134.08-32-71.68-90.56-134.08-163.52-134.08a126.08 126.08 0 0 0-125.44 134.08A140.48 140.48 0 0 0 352 634.88" fill="#EEB129" /></svg>