<?xml version="1.0" standalone="no"?><!DOCTYPE svg PUBLIC "-//W3C//DTD SVG 1.1//EN" "http://www.w3.org/Graphics/SVG/1.1/DTD/svg11.dtd"><svg class="icon" width="200px" height="200.00px" viewBox="0 0 1024 1024" version="1.1" xmlns="http://www.w3.org/2000/svg"><path d="M0 0m128 0l768 0q128 0 128 128l0 768q0 128-128 128l-768 0q-128 0-128-128l0-768q0-128 128-128Z" fill="#10AAFF" opacity=".1" /><path d="M403.84 705.92h-4.16V704l3.84 2.24z" fill="#F4B425" /><path d="M403.84 705.92h-4.16V704l3.84 2.24z" fill="#F4B425" /><path d="M885.76 796.16l-32 22.4a27.2 27.2 0 0 1-14.4 4.16l32-22.08a24.64 24.64 0 0 0 14.4-4.48" fill="#B8974C" /><path d="M871.36 800.64l-32.64 22.08H155.2l32.64-22.08h683.52z" fill="#B6964E" /><path d="M187.84 800l-32 22.08a28.48 28.48 0 0 1-27.84-25.92 26.24 26.24 0 0 1 11.2-22.72l32-22.08a25.92 25.92 0 0 0-11.2 22.4 28.48 28.48 0 0 0 27.84 26.88" fill="#B8974C" /><path d="M868.8 746.88a28.48 28.48 0 0 1 27.84 26.88 25.28 25.28 0 0 1-25.28 26.88H187.84a28.48 28.48 0 0 1-27.84-26.88 25.6 25.6 0 0 1 25.28-26.88z" fill="#EEB129" /><path d="M530.88 672l-16.32 5.76a36.16 36.16 0 0 1-10.24 1.6 34.24 34.24 0 0 1-32-33.6 32 32 0 0 1 22.08-32l16.32-5.44a32 32 0 0 0-21.76 32 33.92 33.92 0 0 0 32 32 25.92 25.92 0 0 0 9.92-1.6" fill="#B8974C" /><path d="M519.36 608a34.24 34.24 0 0 1 33.6 32 32 32 0 0 1-32 32 33.92 33.92 0 0 1-32-32 32 32 0 0 1 30.4-32z" fill="#ECB02A" /><path d="M536.96 454.08l-16.32 5.44a52.48 52.48 0 0 1-16 2.56 52.8 52.8 0 0 1-51.52-52.16 50.56 50.56 0 0 1 33.92-49.92l16.32-5.76a51.52 51.52 0 0 0-33.92 50.24 53.12 53.12 0 0 0 51.84 52.16 50.24 50.24 0 0 0 15.68-2.56" fill="#B8974C" /><path d="M519.04 352a53.12 53.12 0 0 1 51.84 52.48 50.24 50.24 0 0 1-49.6 52.16 53.12 53.12 0 0 1-51.84-52.16A50.24 50.24 0 0 1 519.04 352z" fill="#ECB02A" /><path d="M266.88 589.12l-16.64 5.44a42.56 42.56 0 0 1-15.68 2.56A52.8 52.8 0 0 1 182.72 544a51.2 51.2 0 0 1 34.24-49.92l16.32-5.44a50.56 50.56 0 0 0-33.92 49.92 53.12 53.12 0 0 0 51.84 52.16 51.84 51.84 0 0 0 15.68-2.56" fill="#B8974C" /><path d="M248.64 487.04a53.12 53.12 0 0 1 52.16 52.48 50.24 50.24 0 0 1-49.6 52.16 53.12 53.12 0 0 1-51.84-52.16 49.92 49.92 0 0 1 49.28-52.48z" fill="#ECB02A" /><path d="M260.8 335.04l-16.32 5.44a36.16 36.16 0 0 1-10.24 0 33.6 33.6 0 0 1-32-32 32 32 0 0 1 21.76-32l16.64-5.44a32 32 0 0 0-22.08 32 32 32 0 0 0 43.52 32" fill="#B8974C" /><path d="M249.28 269.44a34.56 34.56 0 0 1 32 33.6 32 32 0 0 1-32 32 34.24 34.24 0 0 1-32-32 32 32 0 0 1 32-33.6z" fill="#ECB02A" /><path d="M800 274.88l-16.64 5.76a32 32 0 0 1-9.92 1.6 34.88 34.88 0 0 1-33.6-33.92 32 32 0 0 1 22.08-32l16.32-5.44a32 32 0 0 0-21.76 32 34.24 34.24 0 0 0 33.6 33.92 25.92 25.92 0 0 0 9.92-1.92" fill="#B8974C" /><path d="M789.76 209.28a33.92 33.92 0 0 1 32 32 32 32 0 0 1-32 33.92 34.24 34.24 0 0 1-33.6-33.92 32 32 0 0 1 33.6-32z" fill="#ECB02A" /><path d="M807.36 529.28l-16.64 5.44a48.32 48.32 0 0 1-15.36 2.56 53.12 53.12 0 0 1-52.16-52.48 50.24 50.24 0 0 1 33.92-49.6l16.32-5.44A50.56 50.56 0 0 0 739.52 480a53.44 53.44 0 0 0 52.16 52.48 50.24 50.24 0 0 0 15.68-2.56" fill="#B8974C" /><path d="M789.44 426.88A53.12 53.12 0 0 1 841.28 480a50.24 50.24 0 0 1-49.6 52.48A53.44 53.44 0 0 1 739.52 480a50.24 50.24 0 0 1 49.92-53.12z" fill="#ECB02A" /></svg>