<?xml version="1.0" standalone="no"?><!DOCTYPE svg PUBLIC "-//W3C//DTD SVG 1.1//EN" "http://www.w3.org/Graphics/SVG/1.1/DTD/svg11.dtd"><svg class="icon" width="200px" height="200.00px" viewBox="0 0 1024 1024" version="1.1" xmlns="http://www.w3.org/2000/svg"><path d="M0 0m128 0l768 0q128 0 128 128l0 768q0 128-128 128l-768 0q-128 0-128-128l0-768q0-128 128-128Z" fill="#10AAFF" opacity=".1" /><path d="M403.84 705.92h-4.16V704l3.84 2.24z" fill="#F7F7F7" /><path d="M403.84 705.92h-4.16V704l3.84 2.24z" fill="#F7F7F7" /><path d="M851.52 740.48l-32 22.4a176 176 0 0 1-97.92 29.76l32-22.4a173.44 173.44 0 0 0 97.92-29.76" fill="#BEBEBE" /><path d="M753.6 770.24l-32.64 22.4h-91.52l32.64-22.4h91.52z" fill="#BBBBBB" /><path d="M376 410.24l-32 22.08a177.92 177.92 0 0 1 76.48-148.8l32-22.4a177.6 177.6 0 0 0-76.48 149.12" fill="#BEBEBE" /><path d="M662.08 770.24l-32.64 22.4h-91.2l32.64-22.4h91.2z" fill="#BBBBBB" /><path d="M570.88 770.24l-32.64 22.4h-243.2l32.64-22.4h243.2z" fill="#BBBBBB" /><path d="M327.68 770.24l-32 22.4a194.88 194.88 0 0 1-192-186.24 177.28 177.28 0 0 1 76.16-156.16l32-22.08a176.64 176.64 0 0 0-76.16 156.16 194.56 194.56 0 0 0 192 185.92" fill="#BEBEBE" /><path d="M550.4 231.36a195.2 195.2 0 0 1 189.12 166.72A195.2 195.2 0 0 1 928 584.32a174.4 174.4 0 0 1-174.08 185.92H327.68a194.56 194.56 0 0 1-192-185.92 174.72 174.72 0 0 1 174.72-186.24 186.56 186.56 0 0 1 65.6 12.16 174.4 174.4 0 0 1 174.4-178.88z" fill="#F8F8F8" /></svg>