<?xml version="1.0" standalone="no"?><!DOCTYPE svg PUBLIC "-//W3C//DTD SVG 1.1//EN" "http://www.w3.org/Graphics/SVG/1.1/DTD/svg11.dtd"><svg class="icon" width="200px" height="200.00px" viewBox="0 0 1024 1024" version="1.1" xmlns="http://www.w3.org/2000/svg"><path d="M0 0m128 0l768 0q128 0 128 128l0 768q0 128-128 128l-768 0q-128 0-128-128l0-768q0-128 128-128Z" fill="#10AAFF" opacity=".1" /><path d="M403.84 705.92h-4.16V704l3.84 2.24z" fill="#F4B425" /><path d="M403.84 705.92h-4.16V704l3.84 2.24z" fill="#F4B425" /><path d="M822.4 587.52l-32 22.4c-5.44 3.84-11.52 7.36-17.6 11.2l32-22.08 17.6-11.52" fill="#B8974C" /><path d="M713.6 426.88l-32 22.08c7.04-4.8 13.76-9.6 19.84-14.4 45.12-35.2 67.2-72 56.96-103.36-14.08-42.24-83.84-64-179.2-64-16.64 0-33.92 0-51.84 2.24l32-22.4q26.88-1.92 51.84-1.92c96 0 165.12 22.72 179.2 64 10.24 32-12.16 68.16-56.96 103.36-6.08 4.8-12.8 9.6-19.84 14.4" fill="#B8974C" /><path d="M739.84 585.6l-32 22.4c51.84-35.52 78.72-73.6 68.16-105.28a64 64 0 0 0-32-33.6l32-22.08a64 64 0 0 1 32 32c10.56 32-16.32 70.08-68.48 105.28" fill="#B8974C" /><path d="M771.52 744l-32 22.08c44.16-30.08 67.2-64 58.24-89.6a72.64 72.64 0 0 0-52.8-39.36l32-22.4a73.92 73.92 0 0 1 52.8 39.68c8.96 26.88-14.08 59.52-58.24 89.6" fill="#B8974C" /><path d="M777.6 448l-32 22.08a782.08 782.08 0 0 1-198.72 78.08 848.32 848.32 0 0 1-204.48 27.84 516.8 516.8 0 0 1-69.44-4.48l32-22.4a516.8 516.8 0 0 0 69.44 4.48 832 832 0 0 0 204.48-27.84A794.24 794.24 0 0 0 777.6 448" fill="#B8974C" /><path d="M776.96 614.72l-32 22.4a731.52 731.52 0 0 1-158.08 59.2 758.72 758.72 0 0 1-183.36 24.96 476.16 476.16 0 0 1-64-4.16l32-22.4a426.88 426.88 0 0 0 64 4.16 757.12 757.12 0 0 0 183.36-24.64 731.2 731.2 0 0 0 158.08-59.52" fill="#B8974C" /><path d="M841.28 745.92l-32 22.08a560 560 0 0 1-172.48 72.96 628.8 628.8 0 0 1-155.2 21.12 394.24 394.24 0 0 1-53.44-3.52l32-22.08a396.48 396.48 0 0 0 53.44 3.2 642.88 642.88 0 0 0 155.2-20.8 568 568 0 0 0 172.48-72.96" fill="#B8974C" /><path d="M696.32 233.28c100.8 0 175.36 24.32 190.4 69.76 11.84 36.16-16 79.04-70.72 118.72 41.6 10.24 70.4 28.16 78.72 53.12 12.16 37.76-23.68 83.84-89.92 124.16 52.48 6.08 89.28 23.68 98.24 50.56 18.24 55.68-86.4 131.52-234.24 169.28a642.88 642.88 0 0 1-155.2 20.8 396.48 396.48 0 0 1-53.44-3.2 665.92 665.92 0 0 0 141.44-20.8c143.04-36.48 245.44-108.8 228.16-160a73.92 73.92 0 0 0-52.8-39.68 731.2 731.2 0 0 1-158.08 59.52 757.12 757.12 0 0 1-183.36 24.64 426.88 426.88 0 0 1-64-4.16 746.56 746.56 0 0 0 166.4-24.32 713.28 713.28 0 0 0 169.28-64l12.48-7.36c64-38.4 99.2-81.92 87.36-117.44a64 64 0 0 0-32-32 794.24 794.24 0 0 1-198.72 77.76 832 832 0 0 1-204.48 27.84 516.8 516.8 0 0 1-69.44-4.48 853.12 853.12 0 0 0 185.28-27.2 733.44 733.44 0 0 0 224-94.08c7.04-4.8 13.76-9.6 19.84-14.4 44.8-35.2 67.2-72.32 56.96-103.36-14.08-42.24-83.84-64-179.2-64q-24.96 0-51.84 1.92a790.72 790.72 0 0 1 138.88-17.6z" fill="#EEB129" /><path d="M402.24 366.72l-16.32 5.44a35.2 35.2 0 0 1-13.12 2.24 44.8 44.8 0 0 1-43.52-43.84 43.2 43.2 0 0 1 28.8-42.56l16.32-5.44a42.56 42.56 0 0 0-28.48 41.6 44.16 44.16 0 0 0 43.52 43.84 41.28 41.28 0 0 0 12.8-1.92" fill="#B8974C" /><path d="M387.52 280.96a44.8 44.8 0 0 1 43.52 43.84 41.92 41.92 0 0 1-41.6 43.84 44.16 44.16 0 0 1-43.52-43.84 42.24 42.24 0 0 1 41.6-43.84z" fill="#ECB02A" /><path d="M248.64 263.68l-16.64 5.76a45.12 45.12 0 0 1-13.12 2.24 43.84 43.84 0 0 1-43.2-43.84 41.92 41.92 0 0 1 28.16-41.6l16.32-5.76A43.2 43.2 0 0 0 192 224a44.16 44.16 0 0 0 43.2 41.92 37.12 37.12 0 0 0 13.44-2.24" fill="#B8974C" /><path d="M233.28 178.56A44.16 44.16 0 0 1 276.8 224a41.92 41.92 0 0 1-41.6 43.52A44.16 44.16 0 0 1 192 224a41.92 41.92 0 0 1 41.28-45.44z" fill="#ECB02A" /><path d="M197.12 469.12l-16.32 5.76a44.8 44.8 0 0 1-13.12 1.92 44.16 44.16 0 0 1-43.52-43.52 42.56 42.56 0 0 1 28.16-41.92l16.64-5.44a42.56 42.56 0 0 0-28.48 41.92 44.48 44.48 0 0 0 43.52 43.52 43.2 43.2 0 0 0 13.12-2.24" fill="#B8974C" /><path d="M182.08 384a44.48 44.48 0 0 1 43.52 44.16 41.92 41.92 0 0 1-41.6 43.52 44.48 44.48 0 0 1-43.52-43.52A42.24 42.24 0 0 1 182.08 384z" fill="#ECB02A" /><path d="M226.56 681.92l-16.64 5.76a43.2 43.2 0 0 1-13.12 1.92 44.8 44.8 0 0 1-43.52-43.84 42.88 42.88 0 0 1 28.48-41.6l16.64-5.76a42.24 42.24 0 0 0-28.48 41.6 44.8 44.8 0 0 0 43.52 43.84 36.48 36.48 0 0 0 13.12-2.24" fill="#B8974C" /><path d="M211.52 596.48A44.48 44.48 0 0 1 256 640a42.24 42.24 0 0 1-41.6 43.84A44.8 44.8 0 0 1 169.92 640a41.92 41.92 0 0 1 41.6-43.52z" fill="#ECB02A" /><path d="M343.68 832l-16.32 5.44a36.48 36.48 0 0 1-13.12 2.24 44.48 44.48 0 0 1-43.52-43.84 42.56 42.56 0 0 1 28.48-41.92l16.32-5.44A42.56 42.56 0 0 0 288 790.72a44.8 44.8 0 0 0 43.52 43.84 41.6 41.6 0 0 0 13.12-2.24" fill="#B8974C" /><path d="M289.726658 804.421023a44.16 42.24 71.34 1 0 80.039214-27.029514 44.16 42.24 71.34 1 0-80.039214 27.029514Z" fill="#ECB02A" /><path d="M448 176l-16.32 5.44a36.48 36.48 0 0 1-13.12 2.24 44.8 44.8 0 0 1-43.52-43.84 43.52 43.52 0 0 1 28.48-41.92l16.64-5.44a42.56 42.56 0 0 0-28.48 41.6 44.48 44.48 0 0 0 43.52 44.16 41.28 41.28 0 0 0 12.8-2.24" fill="#B8974C" /><path d="M433.92 90.24a44.8 44.8 0 0 1 43.52 43.84 42.56 42.56 0 0 1-41.6 44.16 44.48 44.48 0 0 1-43.52-44.16 42.24 42.24 0 0 1 41.6-43.84z" fill="#ECB02A" /></svg>