<?xml version="1.0" standalone="no"?><!DOCTYPE svg PUBLIC "-//W3C//DTD SVG 1.1//EN" "http://www.w3.org/Graphics/SVG/1.1/DTD/svg11.dtd"><svg class="icon" width="200px" height="200.00px" viewBox="0 0 1024 1024" version="1.1" xmlns="http://www.w3.org/2000/svg"><path d="M0 0m128 0l768 0q128 0 128 128l0 768q0 128-128 128l-768 0q-128 0-128-128l0-768q0-128 128-128Z" fill="#10AAFF" opacity=".1" /><path d="M403.84 705.92h-4.16V704l3.84 2.24z" fill="#F7F7F7" /><path d="M403.84 705.92h-4.16V704l3.84 2.24z" fill="#F7F7F7" /><path d="M850.56 640l-32 22.08a173.76 173.76 0 0 1-97.92 30.08l32-22.4a171.52 171.52 0 0 0 96-29.76" fill="#BEBEBE" /><path d="M752.96 670.08l-32.64 22.4h-90.88l32.64-22.4h90.88z" fill="#BBBBBB" /><path d="M376.32 310.72l-32 22.4a176.64 176.64 0 0 1 76.16-148.8l32-22.08a175.68 175.68 0 0 0-76.16 148.48" fill="#BEBEBE" /><path d="M662.08 670.08l-32.64 22.4h-90.88l32.64-22.4h90.88z" fill="#BBBBBB" /><path d="M571.2 670.08l-32.64 22.4h-243.2l32.64-22.4h243.2z" fill="#BBBBBB" /><path d="M328 670.08l-32 22.4a194.24 194.24 0 0 1-192-185.6A176.64 176.64 0 0 1 181.12 352l32-22.08a176.32 176.32 0 0 0-75.52 154.56 194.24 194.24 0 0 0 192 185.6" fill="#BEBEBE" /><path d="M550.08 132.48a194.24 194.24 0 0 1 189.12 166.4 194.56 194.56 0 0 1 188.8 185.6 174.08 174.08 0 0 1-173.76 185.6H328a194.24 194.24 0 0 1-190.4-185.6 174.08 174.08 0 0 1 173.44-185.6 185.92 185.92 0 0 1 64 11.84 173.44 173.44 0 0 1 175.04-178.24z" fill="#F8F8F8" /><path d="M258.24 758.4l-16.64 5.76 43.2-26.56 16.32-5.44-42.88 26.24z" fill="#4D9BBA" /><path d="M301.12 852.8l-16.32 5.76a51.84 51.84 0 0 1-15.68 2.56 52.8 52.8 0 0 1-51.84-52.48 50.24 50.24 0 0 1 24.32-44.48l16.64-5.76a49.92 49.92 0 0 0-24.32 44.8 52.48 52.48 0 0 0 51.84 52.16 48.32 48.32 0 0 0 15.36-2.56" fill="#4D9BBB" /><path d="M301.12 732.16l26.56 45.12a55.04 55.04 0 0 1 7.04 25.92 49.6 49.6 0 0 1-48.96 52.16 52.48 52.48 0 0 1-51.84-52.16 49.92 49.92 0 0 1 24.32-44.8z" fill="#2BB8F0" /><path d="M685.44 758.4l-16.32 5.76 42.88-26.56 16.64-5.44-43.2 26.24z" fill="#4D9BBA" /><path d="M728.64 852.8l-16.64 5.76a48.32 48.32 0 0 1-15.36 2.56 52.8 52.8 0 0 1-51.84-52.48 48.96 48.96 0 0 1 24.32-44.48l16.32-5.76a51.2 51.2 0 0 0-24.32 44.8 52.48 52.48 0 0 0 51.84 52.16 50.24 50.24 0 0 0 15.68-2.56" fill="#4D9BBB" /><path d="M728.64 732.16l26.24 45.12a55.36 55.36 0 0 1 7.36 25.92 49.92 49.92 0 0 1-49.28 52.16 52.48 52.48 0 0 1-51.84-52.16 51.2 51.2 0 0 1 24.32-44.8z" fill="#2BB8F0" /><path d="M561.92 747.52l-16.32 5.76 16.64-5.76" fill="#80A5BE" /><path d="M568.32 785.6l-16.32 5.44h-2.24l16.64-5.44h1.92" fill="#80A5BE" /><path d="M566.4 785.92l-16.64 5.44h-1.6l16.64-5.76h1.6" fill="#80A5BE" /><path d="M569.28 814.4l-16.64 5.44 16.32-5.44" fill="#80A5BE" /><path d="M545.6 757.76l-16.64 5.44 16.64-9.92 16.32-5.76-16.32 10.24z" fill="#80A4BD" /><path d="M536.96 737.92l-16.32 5.44a5.44 5.44 0 0 1 3.84-4.48l16.64-5.44a6.4 6.4 0 0 0-4.16 4.48" fill="#80A5BE" /><path d="M569.28 840.32l-16.32 5.76h-1.92l16.32-5.44h1.92" fill="#80A5BE" /><path d="M567.36 840.96l-16.32 5.44a6.4 6.4 0 0 1-3.52 0l16.64-5.44a6.08 6.08 0 0 0 3.2 0" fill="#80A5BE" /><path d="M568.64 814.4l-16.32 5.44-15.68 4.8 16.32-5.76 15.68-4.48zM564.8 785.6l-16.64 5.76-28.16-7.68 16.64-5.76 28.16 7.68zM530.24 766.72l-16.64 5.76 7.04-29.12 16.32-5.44-6.72 28.8zM564.16 840l-16.64 5.44-17.28-9.92 16.64-5.76 17.28 10.24z" fill="#80A3BB" /><path d="M545.6 854.4l-16.64 5.76a6.08 6.08 0 0 1-5.76-4.8l16.32-5.76a6.08 6.08 0 0 0 6.08 4.8" fill="#80A5BE" /><path d="M547.84 854.08l-16.64 5.76 16.64-5.44" fill="#80A5BE" /><path d="M547.2 854.4l-16.64 5.44 16.64-5.76h1.6" fill="#80A5BE" /><path d="M502.72 732.48l-16.64 5.76 11.52-12.16 16.64-5.44-11.52 11.84z" fill="#80A4BC" /><path d="M539.52 849.6l-16.64 5.76-8-29.12 16.64-5.44 8 28.8z" fill="#80A3BB" /><path d="M489.6 712.64l-16.32 5.44a6.08 6.08 0 0 1 4.16-6.08l16.32-5.76a6.4 6.4 0 0 0-4.16 6.4" fill="#80A5BE" /><path d="M490.24 732.48l-16.64 5.44-0.32-19.84 16.32-5.44 0.64 19.84z" fill="#80A3BB" /><path d="M503.68 782.4l-16.32 5.76 26.24-15.68 16.64-5.76-26.56 15.68z" fill="#80A4BD" /><path d="M531.52 820.8l-16.64 5.44-27.2-15.68 16.64-5.76 27.2 16zM491.2 782.4l-16.32 5.76-0.96-32 16.64-5.44 0.64 31.68zM526.4 867.2l-16.64 5.44h-8.96l16.64-5.44h8.96zM469.44 729.6l-16.32 5.76-0.32-9.28 16.64-5.44v8.96z" fill="#80A3BB" /><path d="M490.56 750.72l-16.64 5.44-20.8-20.8 16.32-5.76 21.12 21.12zM517.44 867.2l-16.64 5.44-11.84-11.84 16.32-5.76 12.16 12.16zM492.48 836.8l-16.32 5.44-0.96-31.68 16.64-5.76 0.64 32z" fill="#80A3BB" /><path d="M501.76 881.28l-16.64 5.44h-1.6l16.32-5.44h1.92" fill="#80A5BE" /><path d="M493.44 874.88l-16.64 5.76-0.32-19.84 16.32-5.76 0.64 19.84z" fill="#80A3BB" /><path d="M499.84 881.6l-16.32 5.44a6.72 6.72 0 0 1-6.72-6.4l16.64-5.76a6.4 6.4 0 0 0 6.4 6.72" fill="#80A5BE" /><path d="M485.44 793.6l-16.64 5.76-26.88-15.68 16.32-5.76 27.2 15.68z" fill="#80A3BB" /><path d="M444.16 741.12l-16.64 5.76a6.72 6.72 0 0 1 4.16-8l16.32-5.44a6.4 6.4 0 0 0-3.84 7.68" fill="#80A5BE" /><path d="M448.64 757.76l-16.32 5.44-4.48-16.32 16.32-5.76 4.48 16.64z" fill="#80A3BB" /><path d="M459.2 809.6l-16.64 5.44 26.24-15.68 16.64-5.76-26.24 16z" fill="#80A4BD" /><path d="M472.64 857.6l-16.32 5.76 19.84-21.12 16.32-5.44-19.84 20.8z" fill="#80A4BC" /><path d="M481.92 866.88l-16.64 5.76h-8.96l16.64-5.76h8.96zM472.96 866.88l-16.64 5.76v-9.28l16.32-5.76 0.32 9.28zM442.56 768.64l-16.64 5.76-16.64-9.92 16.32-5.76 16.96 9.92z" fill="#80A3BB" /><path d="M425.6 758.72l-16.32 5.44a6.4 6.4 0 0 1-2.56-8.64 4.8 4.8 0 0 1 3.2-2.88l16.64-5.76a7.04 7.04 0 0 0-3.2 2.88 6.72 6.72 0 0 0 2.24 8.96" fill="#80A5BE" /><path d="M458.24 777.92l-16.32 5.76-27.84 7.68 16.32-5.76 27.84-7.68z" fill="#80A3BB" /><path d="M451.2 854.4l-16.64 5.44a6.08 6.08 0 0 1-4.48-7.68l16.64-5.76a6.08 6.08 0 0 0 4.48 8" fill="#80A5BE" /><path d="M452.8 854.72l-16.32 5.44h-1.92l16.64-5.44h1.6" fill="#80A5BE" /><path d="M454.72 854.4l-16.64 5.44 16.32-5.44h1.92" fill="#80A5BE" /><path d="M430.4 785.6l-16.32 5.76 16.32-5.44" fill="#80A5BE" /><path d="M446.72 846.4l-16.64 5.76 3.84-16.32 16.32-5.76-3.52 16.32z" fill="#80A3BB" /><path d="M422.4 781.12l-16.32 5.44a6.08 6.08 0 0 1 3.84-7.68l16.64-5.76a7.04 7.04 0 0 0-4.16 8" fill="#80A5BE" /><path d="M428.8 785.92l-16.32 5.44a6.4 6.4 0 0 1-6.4-4.8l16.32-5.44a6.72 6.72 0 0 0 6.4 4.8" fill="#80A5BE" /><path d="M444.16 818.56l-16.64 5.76-16-4.48 16.64-5.44 16 4.16z" fill="#80A3BB" /><path d="M428.16 814.4l-16.64 5.44a6.4 6.4 0 0 1-4.48-8 5.44 5.44 0 0 1 3.84-4.48l16.32-5.44a6.08 6.08 0 0 0-3.84 4.48 6.72 6.72 0 0 0 4.8 8" fill="#80A5BE" /><path d="M427.2 828.8l-16.32 5.44 16.64-9.92 16.64-5.76-16.96 10.24z" fill="#80A4BD" /><path d="M432.64 840.32l-16.32 5.76h-2.24l16.64-5.44h1.92" fill="#80A5BE" /><path d="M496 705.92a6.4 6.4 0 0 1 6.08 6.72v19.84l11.52-11.84h8.64v8.96l-20.16 21.44v32l26.56-15.68 6.72-28.8a6.08 6.08 0 0 1 6.08-4.8H544a6.72 6.72 0 0 1 4.8 8l-3.84 16.32 16.32-9.92a6.08 6.08 0 0 1 8.64 2.24 6.4 6.4 0 0 1-1.92 8.96l-16.64 9.92 16 4.48a7.04 7.04 0 0 1 4.48 8 6.08 6.08 0 0 1-6.08 4.8h-1.6l-28.16-7.68-24 14.72 27.2 16 27.52-7.68h1.6a6.72 6.72 0 0 1 6.4 5.12 6.08 6.08 0 0 1-4.48 7.68l-15.68 4.48 16.96 9.92a6.72 6.72 0 0 1 2.88 8.96 6.72 6.72 0 0 1-5.44 3.2 6.08 6.08 0 0 1-3.2 0l-17.28-10.24 4.8 16.64a6.4 6.4 0 0 1-4.48 8h-1.6a6.08 6.08 0 0 1-6.08-4.8l-8-28.8-27.2-16v32l21.12 21.12v9.28h-8.96l-11.84-12.16v19.84a6.4 6.4 0 0 1-6.08 6.72 6.4 6.4 0 0 1-6.4-6.72v-19.84l-10.88 11.84h-8.96v-10.56l19.84-20.8v-32l-26.24 16.32-7.04 28.48a6.08 6.08 0 0 1-5.76 5.12h-3.52a6.08 6.08 0 0 1-4.48-8l3.52-16.32-16.32 9.92a6.08 6.08 0 0 1-8.64-2.24 6.4 6.4 0 0 1 1.92-8.96l16.64-10.24-15.68-4.16a6.72 6.72 0 0 1-4.8-8 6.08 6.08 0 0 1 5.76-4.8h1.6l28.48 7.68 26.24-16-27.2-15.68-27.84 7.68a6.72 6.72 0 0 1-6.4-4.8 6.4 6.4 0 0 1 4.8-8l15.36-4.48-16.96-9.92a6.72 6.72 0 0 1-2.24-8.96 5.76 5.76 0 0 1 5.12-3.2 5.44 5.44 0 0 1 3.2 0l16.96 9.92-4.48-16.32a6.72 6.72 0 0 1 4.16-8h1.6a6.4 6.4 0 0 1 6.4 4.8l8.32 28.8 26.56 15.68v-32l-21.12-21.12v-8.96h8.64l12.16 11.84v-19.84a6.4 6.4 0 0 1 3.52-5.12z" fill="#87C9F6" /><path d="M430.72 840.96l-16.64 5.44a6.08 6.08 0 0 1-5.44-3.2 6.72 6.72 0 0 1 2.24-8.96l16.32-5.44a6.4 6.4 0 0 0-1.92 8.96 6.08 6.08 0 0 0 5.44 3.2" fill="#80A5BE" /></svg>