<?xml version="1.0" standalone="no"?><!DOCTYPE svg PUBLIC "-//W3C//DTD SVG 1.1//EN" "http://www.w3.org/Graphics/SVG/1.1/DTD/svg11.dtd"><svg class="icon" width="200px" height="200.00px" viewBox="0 0 1024 1024" version="1.1" xmlns="http://www.w3.org/2000/svg"><path d="M0 0m128 0l768 0q128 0 128 128l0 768q0 128-128 128l-768 0q-128 0-128-128l0-768q0-128 128-128Z" fill="#10AAFF" opacity=".1" /><path d="M403.84 705.92h-4.16V704l3.84 2.24z" fill="#F7F7F7" /><path d="M403.84 705.92h-4.16V704l3.84 2.24z" fill="#F7F7F7" /><path d="M850.56 621.76l-32 22.4a171.52 171.52 0 0 1-96 29.76l32-22.4a171.52 171.52 0 0 0 96-29.76" fill="#BEBEBE" /><path d="M752.96 651.52l-32.64 22.4h-90.88l32.64-22.4h90.88z" fill="#BBBBBB" /><path d="M376.32 292.16l-32 22.4a176.64 176.64 0 0 1 76.16-148.8l32-22.08a176 176 0 0 0-76.16 148.48" fill="#BEBEBE" /><path d="M662.08 651.52l-32.64 22.4h-90.88l32.64-22.4h90.88z" fill="#BBBBBB" /><path d="M571.2 651.52l-32.64 22.4h-243.2l32.64-22.4h243.2z" fill="#BBBBBB" /><path d="M328 651.52l-32 22.4a194.24 194.24 0 0 1-192-185.92 176.32 176.32 0 0 1 76.16-155.84l32-22.4a177.28 177.28 0 0 0-74.56 156.16 193.92 193.92 0 0 0 192 185.6" fill="#BEBEBE" /><path d="M550.08 113.92a194.56 194.56 0 0 1 189.12 166.4 194.56 194.56 0 0 1 188.8 185.6 173.76 173.76 0 0 1-173.76 185.6H328a193.92 193.92 0 0 1-190.4-185.6 174.4 174.4 0 0 1 173.44-185.92 186.24 186.24 0 0 1 64 12.16 173.44 173.44 0 0 1 175.04-178.24z" fill="#F8F8F8" /><path d="M265.28 739.84l-16.32 5.44 42.88-25.92 16.64-5.76-43.2 26.24z" fill="#4D9BBA" /><path d="M308.16 834.56l-16.32 5.44a51.84 51.84 0 0 1-15.68 2.56A52.8 52.8 0 0 1 224 790.4a50.88 50.88 0 0 1 24.32-45.12l16.32-5.44a51.2 51.2 0 0 0-24.32 44.8 52.8 52.8 0 0 0 51.52 52.48 50.24 50.24 0 0 0 15.68-2.56" fill="#4D9BBB" /><path d="M308.48 713.6l26.24 45.12a51.2 51.2 0 0 1-41.92 78.08 52.8 52.8 0 0 1-51.52-52.48 51.2 51.2 0 0 1 24.32-44.8z" fill="#2BB8F0" /><path d="M659.84 739.84l-16.32 5.44 42.88-25.92 16.64-5.76-43.2 26.24z" fill="#4D9BBA" /><path d="M704 834.56l-16.64 5.44a48.32 48.32 0 0 1-15.36 2.56 52.8 52.8 0 0 1-51.52-52.16 50.24 50.24 0 0 1 24.32-45.12l16.32-5.44a50.56 50.56 0 0 0-24.32 44.8 52.8 52.8 0 0 0 51.52 52.48 51.84 51.84 0 0 0 15.68-2.56" fill="#4D9BBB" /><path d="M704 713.6l25.92 45.12a55.68 55.68 0 0 1 7.68 25.92 50.56 50.56 0 0 1-49.6 52.48 52.8 52.8 0 0 1-51.52-52.48 50.56 50.56 0 0 1 24.32-44.8z" fill="#2BB8F0" /><path d="M472 899.84l-16.32 5.44 6.4-122.24 16.32-5.44-6.4 122.24z" fill="#BBA05B" /><path d="M478.4 777.6l-16.32 5.44h-63.68l16.32-5.44h63.68z" fill="#BBA05B" /><path d="M414.72 777.6l-16.32 5.44 89.92-127.04 16.64-5.44-90.24 127.04z" fill="#BCA05A" /><path d="M562.24 772.8l-90.24 127.04 6.4-122.24h-63.68l90.24-127.04-6.4 122.24h63.68z" fill="#F6C342" /></svg>