<?xml version="1.0" standalone="no"?><!DOCTYPE svg PUBLIC "-//W3C//DTD SVG 1.1//EN" "http://www.w3.org/Graphics/SVG/1.1/DTD/svg11.dtd"><svg class="icon" width="200px" height="200.00px" viewBox="0 0 1024 1024" version="1.1" xmlns="http://www.w3.org/2000/svg"><path d="M0 0m128 0l768 0q128 0 128 128l0 768q0 128-128 128l-768 0q-128 0-128-128l0-768q0-128 128-128Z" fill="#10AAFF" opacity=".1" /><path d="M403.84 705.92h-4.16V704l3.84 2.24z" fill="#F7F7F7" /><path d="M403.84 705.92h-4.16V704l3.84 2.24z" fill="#F7F7F7" /><path d="M850.56 642.56l-32 22.4a171.52 171.52 0 0 1-96 29.76l32-22.4a171.52 171.52 0 0 0 96-29.76" fill="#BEBEBE" /><path d="M753.28 672.32l-32.64 22.4h-91.2l32.64-22.4h91.2z" fill="#BBBBBB" /><path d="M376.32 312.96l-32 22.4a177.6 177.6 0 0 1 76.16-148.8l32-22.08a176.64 176.64 0 0 0-76.16 148.48" fill="#BEBEBE" /><path d="M662.08 672.32l-32.64 22.4h-91.2l32.64-22.4h91.2z" fill="#BBBBBB" /><path d="M570.88 672.32l-32.64 22.4H295.36l32.64-22.4h242.88z" fill="#BBBBBB" /><path d="M328 672l-32 22.4a194.24 194.24 0 0 1-192-185.92A176.32 176.32 0 0 1 181.12 352l32-22.4a178.24 178.24 0 0 0-76.48 156.16 194.56 194.56 0 0 0 192 185.6" fill="#BEBEBE" /><path d="M550.4 134.72a193.92 193.92 0 0 1 188.48 166.4 194.24 194.24 0 0 1 189.12 185.6A174.08 174.08 0 0 1 753.28 672H328a194.56 194.56 0 0 1-192-185.6 174.72 174.72 0 0 1 175.04-185.6 177.92 177.92 0 0 1 64 12.16 173.76 173.76 0 0 1 175.36-178.24z" fill="#F8F8F8" /><path d="M357.44 770.24l-16.64 5.76-0.32-0.32 16.64-5.76 0.32 0.32z" fill="#4F9AB8" /><path d="M357.12 769.92l-16.64 5.76 42.88-25.92 16.64-5.76-42.88 25.92z" fill="#4D9BBA" /><path d="M400 864l-16.64 5.76a48.32 48.32 0 0 1-15.36 2.56 52.48 52.48 0 0 1-51.52-51.84 51.2 51.2 0 0 1 24.32-44.48l16.64-5.44a51.2 51.2 0 0 0-24.32 44.48 52.16 52.16 0 0 0 50.88 51.2 42.56 42.56 0 0 0 16-2.24" fill="#4D9BBB" /><path d="M400 744l25.92 44.8a55.36 55.36 0 0 1 7.36 25.92A49.28 49.28 0 0 1 384 866.24a52.16 52.16 0 0 1-51.2-51.52 51.2 51.2 0 0 1 24.32-44.48z" fill="#2BB8F0" /><path d="M567.68 770.24l-16.64 5.76 42.88-26.24 16.64-5.76-42.88 26.24z" fill="#4D9BBA" /><path d="M610.24 864l-16.32 5.44a50.24 50.24 0 0 1-15.68 2.56 52.16 52.16 0 0 1-51.2-51.84 50.88 50.88 0 0 1 24-44.48l16.64-5.44a50.24 50.24 0 0 0-23.68 44.48 51.84 51.84 0 0 0 51.2 51.52 48.32 48.32 0 0 0 15.36-2.24" fill="#4D9BBB" /><path d="M610.56 744l25.92 44.8a59.2 59.2 0 0 1 7.36 25.92 49.28 49.28 0 0 1-48.96 51.52A51.84 51.84 0 0 1 544 814.72a50.24 50.24 0 0 1 24-44.48z" fill="#2BB8F0" /></svg>