<?xml version="1.0" standalone="no"?><!DOCTYPE svg PUBLIC "-//W3C//DTD SVG 1.1//EN" "http://www.w3.org/Graphics/SVG/1.1/DTD/svg11.dtd"><svg class="icon" width="200px" height="200.00px" viewBox="0 0 1024 1024" version="1.1" xmlns="http://www.w3.org/2000/svg"><path d="M0 0m128 0l768 0q128 0 128 128l0 768q0 128-128 128l-768 0q-128 0-128-128l0-768q0-128 128-128Z" fill="#10AAFF" opacity=".1" /><path d="M403.84 705.92h-4.16V704l3.84 2.24z" fill="#F7F7F7" /><path d="M403.84 705.92h-4.16V704l3.84 2.24z" fill="#F7F7F7" /><path d="M850.56 601.28l-32 22.08a170.56 170.56 0 0 1-96 29.76l32-22.08a170.56 170.56 0 0 0 96-29.76" fill="#BEBEBE" /><path d="M753.28 631.04l-32.64 22.08h-91.2l32.64-22.08h91.2z" fill="#BBBBBB" /><path d="M376.32 271.68l-32 22.08a177.6 177.6 0 0 1 76.16-148.8l32-22.08a176.96 176.96 0 0 0-76.16 148.8" fill="#BEBEBE" /><path d="M662.08 631.04l-32.64 22.08h-91.2l32.64-22.08h91.2z" fill="#BBBBBB" /><path d="M570.88 631.04l-32.64 22.08H295.36l32.64-22.08h242.88z" fill="#BBBBBB" /><path d="M328 631.04l-32 22.08a194.24 194.24 0 0 1-192-185.6 176.96 176.96 0 0 1 76.8-155.84l32-22.4a177.6 177.6 0 0 0-75.2 156.16 194.24 194.24 0 0 0 192 185.6" fill="#BEBEBE" /><path d="M550.08 93.12a194.56 194.56 0 0 1 189.12 166.4 194.88 194.88 0 0 1 188.8 185.92 174.08 174.08 0 0 1-173.44 185.6H328a194.24 194.24 0 0 1-190.4-185.6 174.08 174.08 0 0 1 173.44-185.92 184.64 184.64 0 0 1 64 12.16 173.76 173.76 0 0 1 175.04-178.56z" fill="#F8F8F8" /><path d="M353.6 724.8l-16.64 5.44 11.84-7.04 16.64-5.76-11.84 7.36zM347.52 710.72l-16.32 5.44 5.44-3.52 16.64-5.44-5.76 3.52z" fill="#80A4BD" /><path d="M373.12 781.76l-16.32 5.76-6.08 1.6 16.32-5.76 6.08-1.6zM370.24 765.44l-16.32 5.44-11.2 2.88 16.64-5.44 10.88-2.88zM367.68 744.64l-16.64 5.76-20.16-5.44 16.64-5.44 20.16 5.12zM342.72 731.2l-16.32 5.76 4.8-20.8 16.32-5.44-4.8 20.48z" fill="#80A3BB" /><path d="M367.04 783.36l-16.32 5.76-12.48-7.04 16.32-5.76 12.48 7.04z" fill="#80A3BB" /><path d="M323.2 706.88l-16.64 5.76 8.32-8.64 16.32-5.76-8 8.64z" fill="#80A4BC" /><path d="M355.2 793.92l-16.64 5.44-5.76-3.2 16.64-5.76 5.76 3.52z" fill="#80A3BB" /><path d="M349.44 790.4l-16.64 5.76-5.76-20.8 16.32-5.76 6.08 20.8z" fill="#80A3BB" /><path d="M313.92 692.48l-16.64 5.76 4.48-5.12 16.32-5.44-4.16 4.8z" fill="#80A4BC" /><path d="M314.24 706.56l-16.64 5.76-0.32-14.08 16.64-5.76 0.32 14.08z" fill="#80A3BB" /><path d="M323.84 742.4l-16.32 5.76 18.88-11.2 16.32-5.76-18.88 11.2z" fill="#80A4BD" /><path d="M343.36 769.6l-16.32 5.76-19.2-11.2 16.32-5.76 19.2 11.2zM314.88 742.4l-16.32 5.76-0.64-22.72 16.64-5.44 0.32 22.4zM340.16 802.88l-16.64 5.76h-6.4l16.64-5.76h6.4zM299.52 704.64l-16.64 5.44v-6.4l16.32-5.76 0.32 6.72z" fill="#80A3BB" /><path d="M314.56 720l-16.64 5.44-15.04-15.36 16.64-5.44 15.04 15.36zM333.76 802.88l-16.64 5.76-8.64-8.64 16.64-5.44 8.64 8.32zM315.84 781.12l-16.32 5.76-0.64-22.72 16.64-5.76 0.32 22.72z" fill="#80A3BB" /><path d="M316.48 808.64l-16.64 5.44-0.32-14.08 16.64-5.44 0.32 14.08zM320.96 813.44l-16.32 5.44-4.8-4.8 16.64-5.44 4.48 4.8zM310.72 750.4l-16.64 5.76-19.2-11.2 16.32-5.44 19.52 10.88zM281.28 712.96l-16.64 5.44 3.2-5.76 16.64-5.44-3.2 5.76z" fill="#80A3BB" /><path d="M284.48 724.8l-16.32 5.44-3.52-11.84 16.64-5.44 3.2 11.84z" fill="#80A3BB" /><path d="M292.16 761.6l-16.64 5.76 18.56-11.2 16.64-5.76-18.56 11.2z" fill="#80A4BD" /><path d="M301.76 796.48l-16.64 5.44 14.4-15.04 16.32-5.76-14.08 15.36z" fill="#80A4BC" /><path d="M308.16 802.88l-16.64 5.44h-6.08l16.32-5.44h6.4zM301.76 802.88l-16.32 5.44-0.32-6.4 16.64-5.44v6.4zM268.16 725.44l-16.64 5.76-1.6-6.4 16.32-5.44 1.92 6.08z" fill="#80A3BB" /><path d="M280.32 732.8l-16.64 5.44-12.16-7.04 16.64-5.76 12.16 7.36zM291.2 739.52l-16.32 5.44-19.84 5.44 16.64-5.76 19.52-5.12zM286.08 793.92l-16.32 5.44-3.52-5.76 16.64-5.44 3.2 5.76z" fill="#80A3BB" /><path d="M282.88 788.16l-16.64 5.44 2.88-11.52 16.64-5.76-2.88 11.84zM271.68 744.64l-16.64 5.76-5.44-3.52 16.32-5.44 5.76 3.2z" fill="#80A3BB" /><path d="M265.92 741.44l-16.32 5.44 2.88-5.76 16.32-5.44-2.88 5.76zM280.96 768.32l-16.32 5.44-11.52-2.88 16.64-5.76 11.2 3.2z" fill="#80A3BB" /><path d="M266.24 759.68l-16.32 5.76 5.44-3.52 16.64-5.76-5.76 3.52z" fill="#80A4BD" /><path d="M269.76 765.12l-16.64 5.76-3.2-5.44 16.32-5.76 3.52 5.44z" fill="#80A3BB" /><path d="M269.12 775.36l-16.32 5.76 11.84-7.36 16.32-5.44-11.84 7.04z" fill="#80A4BD" /><path d="M273.92 783.36l-16.64 5.76-6.08-1.6 16.64-5.76 6.08 1.6z" fill="#80A3BB" /><path d="M318.08 687.68l4.8 4.8 0.32 14.4 8-8.64h6.4l0.32 6.72-14.4 15.04 0.32 22.4 18.88-11.2 4.8-20.48 5.76-3.52 2.88 5.76-2.56 11.84 11.84-7.36 6.4 1.92-1.6 6.08-11.84 7.36 11.2 3.2 3.52 5.44-5.44 3.2-20.16-5.12-18.88 10.88 19.2 11.2 20.16-5.44 5.44 3.52-3.2 5.76-10.88 2.88 12.16 7.04 1.6 6.4-6.08 1.6-12.48-7.04 3.52 11.84-2.88 5.76-5.76-3.52-6.08-20.8-19.2-11.2 0.64 22.72 15.04 15.36 0.32 6.4h-6.4l-8.64-8.32 0.32 14.08-4.48 4.8-4.48-4.8-0.32-14.08-8 8.32h-6.4v-6.4l14.08-15.36-0.32-22.72-18.88 11.2-5.12 20.8-5.44 3.52-3.2-5.76 2.88-11.84-11.84 7.04-6.08-1.6 1.28-6.4 11.84-7.04-11.2-3.2-3.52-5.44 5.76-3.52 20.16 5.44 18.56-11.2-19.52-10.88-19.52 5.12-5.76-3.2 2.88-5.76 11.52-2.88-12.16-7.36-1.92-6.08 6.08-1.92 12.16 7.36-3.2-11.84 3.2-5.76 5.44 3.52 5.76 20.48 19.2 11.2-0.32-22.4-15.04-15.36-0.32-6.72h6.4l8.64 8.64-0.32-14.08 4.16-4.8z" fill="#87C9F6" /><path d="M267.84 781.76l-16.64 5.76 1.6-6.4 16.32-5.76-1.28 6.4z" fill="#80A3BB" /><path d="M438.72 852.48l-16.64 5.76 8.96-5.44 16.64-5.76-8.96 5.44zM433.92 841.6l-16.64 5.76 4.16-2.56 16.64-5.76-4.16 2.56z" fill="#80A4BD" /><path d="M453.44 896.64l-16.32 5.76-4.8 0.96 16.64-5.44 4.48-1.28zM451.2 883.84l-16.32 5.44-8.64 2.88 16.64-5.76 8.32-2.56zM449.28 868.16l-16.64 5.44-15.68-4.16 16.64-5.76 15.68 4.48zM430.08 857.6l-16.32 5.76 3.52-16 16.64-5.76-3.84 16z" fill="#80A3BB" /><path d="M448.96 897.92l-16.64 5.44-9.6-5.44 16.64-5.44 9.6 5.44z" fill="#80A3BB" /><path d="M415.04 838.72l-16.64 5.76 6.4-6.72 16.32-5.44-6.08 6.4z" fill="#80A4BC" /><path d="M439.36 905.92l-16.32 5.44-4.16-2.56 16.32-5.44 4.16 2.56z" fill="#80A3BB" /><path d="M435.2 903.36l-16.32 5.44-4.48-16 16.32-5.44 4.48 16z" fill="#80A3BB" /><path d="M407.68 827.84l-16.32 5.76 3.52-3.84 16.32-5.76-3.52 3.84z" fill="#80A4BC" /><path d="M408 838.72l-16.64 5.76v-10.88l16.32-5.76 0.32 10.88z" fill="#80A3BB" /><path d="M415.68 866.24l-16.64 5.76 14.72-8.64 16.32-5.76-14.4 8.64z" fill="#80A4BD" /><path d="M430.72 887.36l-16.32 5.44-15.04-8.64 16.32-5.44 15.04 8.64zM408.64 866.24l-16.64 5.76-0.32-17.6 16.64-5.44 0.32 17.28zM428.16 912.96l-16.64 5.44h-5.12l16.64-5.44h5.12zM396.8 837.44l-16.64 5.44v-5.12l16.64-5.44v5.12z" fill="#80A3BB" /><path d="M408.32 848.96l-16.64 5.44-11.52-11.52 16.64-5.44 11.52 11.52zM423.04 912.96l-16.64 5.44-6.4-6.72 16.32-5.44 6.72 6.72zM409.28 896l-16.64 5.76-0.32-17.6 16.64-5.44 0.32 17.28z" fill="#80A3BB" /><path d="M409.6 917.44l-16.32 5.44-0.32-11.2 16.64-5.44v11.2z" fill="#80A3BB" /><path d="M413.44 920.96l-16.64 5.44-3.52-3.52 16.32-5.44 3.84 3.52zM405.44 872.64l-16.64 5.76-14.72-8.96 16.32-5.76 15.04 8.96zM382.72 843.52l-16.32 5.76 2.24-4.48 16.64-5.76-2.56 4.48z" fill="#80A3BB" /><path d="M385.28 852.48l-16.64 5.76-2.24-8.96 16.32-5.76 2.56 8.96z" fill="#80A3BB" /><path d="M390.72 881.28l-16.32 5.44 14.4-8.32 16.64-5.76-14.72 8.64z" fill="#80A4BD" /><path d="M398.4 907.52l-16.64 5.76 10.88-11.52 16.64-5.76-10.88 11.52z" fill="#80A4BC" /><path d="M403.52 912.96l-16.64 5.44h-4.8l16.32-5.44h5.12z" fill="#80A3BB" /><path d="M398.4 912.96l-16.32 5.44-0.32-5.12 16.64-5.76v5.44zM372.8 853.12l-16.64 5.76-1.6-5.12 16.64-5.44 1.6 4.8z" fill="#80A3BB" /><path d="M382.08 858.56l-16.64 5.44-9.28-5.12 16.64-5.76 9.28 5.44zM390.4 863.68l-16.32 5.76-15.36 4.16 16.64-5.44 15.04-4.48zM386.56 905.92l-16.32 5.44-2.56-4.16 16.32-5.44 2.56 4.16z" fill="#80A3BB" /><path d="M384 901.76l-16.32 5.44 1.92-9.28 16.32-5.44-1.92 9.28zM375.36 868.16l-16.64 5.44-4.16-2.56 16.32-5.44 4.48 2.56z" fill="#80A3BB" /><path d="M370.88 865.6l-16.32 5.44 1.92-4.16 16.64-5.76-2.24 4.48zM382.72 886.4l-16.64 5.76-8.64-2.88 16.64-5.44 8.64 2.56z" fill="#80A3BB" /><path d="M371.2 879.36l-16.32 5.76 4.16-2.56 16.32-5.44-4.16 2.24z" fill="#80A4BD" /><path d="M374.08 883.84l-16.64 5.44-2.56-4.16 16.32-5.76 2.88 4.48z" fill="#80A3BB" /><path d="M373.44 891.84l-16.32 5.76 8.96-5.44 16.64-5.76-9.28 5.44z" fill="#80A4BD" /><path d="M376.96 897.92l-16.32 5.44-4.8-0.96 16.32-5.76 4.8 1.28z" fill="#80A3BB" /><path d="M411.2 824l3.52 3.84 0.32 10.88 6.08-6.4h5.12v5.12l-11.2 11.52 0.64 17.28 14.4-8.64 3.84-16 4.16-2.56 2.56 4.48-1.92 8.96 8.96-5.44 4.8 1.28-1.28 4.8-9.28 5.76 8.96 2.24 2.56 4.48-4.16 2.56-15.68-4.48-14.4 8.96 14.72 8.64 15.36-4.16 4.48 2.24-2.56 4.48-8.32 2.56 9.28 5.44 1.28 4.8-4.48 1.28-9.6-5.44 2.56 9.28-2.56 4.16-4.16-2.56-4.48-16-15.04-8.64 0.64 17.28 11.52 11.84 0.32 5.12h-5.12l-6.72-6.72 0.32 11.2-3.2 3.52-3.84-3.52v-11.2l-6.08 6.72h-5.12v-5.44l10.88-11.52-0.32-17.28-14.4 8.96-3.84 15.68-4.16 2.56-2.56-4.16 1.92-9.28-8.96 5.44-4.8-1.28 1.28-4.8 9.28-5.44-8.64-2.56-2.88-4.48 4.16-2.24 15.36 4.16 14.72-8.64-15.04-8.96-15.04 4.48-4.48-2.56 2.24-4.48 8.96-2.56-9.28-5.44-1.6-4.8 4.8-1.28 9.28 5.44-2.56-8.96 2.56-4.48 4.16 2.56 4.48 16 14.72 8.64-0.32-17.28-11.52-11.52v-5.12h4.48l6.72 6.4-0.32-10.88 3.52-3.84z" fill="#87C9F6" /><path d="M372.16 896.64l-16.32 5.76 1.28-4.8 16.32-5.76-1.28 4.8z" fill="#80A3BB" /><path d="M657.6 852.48l-16.32 5.76 8.96-5.44 16.64-5.76-9.28 5.44zM653.12 841.6l-16.64 5.76 4.16-2.56 16.64-5.76-4.16 2.56z" fill="#80A4BD" /><path d="M672.64 896.64l-16.32 5.76-4.8 0.96 16.32-5.44 4.8-1.28zM670.72 883.84l-16.64 5.44-8.64 2.88 16.32-5.76 8.96-2.56zM668.48 868.16l-16.64 5.44-15.36-4.16 16.64-5.76 15.36 4.48zM649.28 857.6l-16.64 5.76 3.84-16 16.64-5.76-3.84 16z" fill="#80A3BB" /><path d="M667.84 897.92l-16.32 5.44-9.28-5.44 16.32-5.44 9.28 5.44z" fill="#80A3BB" /><path d="M634.24 838.72l-16.32 5.76 6.08-6.72 16.64-5.44-6.4 6.4z" fill="#80A4BC" /><path d="M658.56 905.92l-16.32 5.44-4.16-2.56 16.32-5.44 4.16 2.56z" fill="#80A3BB" /><path d="M654.4 903.36l-16.32 5.44-4.48-16 16.32-5.44 4.48 16z" fill="#80A3BB" /><path d="M627.2 827.84l-16.64 5.76 3.2-3.84 16.64-5.76-3.2 3.84z" fill="#80A4BC" /><path d="M627.52 838.72l-16.64 5.76-0.32-10.88 16.64-5.76 0.32 10.88z" fill="#80A3BB" /><path d="M634.88 866.24l-16.32 5.76 14.08-8.64 16.64-5.76-14.4 8.64z" fill="#80A4BD" /><path d="M649.92 887.36l-16.32 5.44-14.72-8.64 16.32-5.44 14.72 8.64zM628.16 866.24l-16.64 5.76-0.32-17.6 16.32-5.44 0.64 17.28zM647.04 912.96l-16.32 5.44h-4.8l16.64-5.44h4.48zM616 837.44l-16.64 5.44v-5.12l16.64-5.44v5.12z" fill="#80A3BB" /><path d="M627.52 848.96l-16.32 5.44-11.84-11.52 16.64-5.44 11.52 11.52zM642.56 912.96l-16.64 5.44-6.4-6.72 16.32-5.44 6.72 6.72zM628.8 896l-16.64 5.76-0.32-17.6 16.64-5.44 0.32 17.28z" fill="#80A3BB" /><path d="M629.12 917.44l-16.32 5.44-0.32-11.2 16.32-5.44 0.32 11.2z" fill="#80A3BB" /><path d="M632.64 920.96l-16.64 5.44-3.2-3.52 16.32-5.44 3.52 3.52zM624.64 872.64l-16.64 5.76-14.72-8.96 16.64-5.76 14.72 8.96zM601.92 843.52l-16.32 5.76 2.24-4.48 16.64-5.76-2.56 4.48zM604.48 852.48l-16.32 5.76-2.56-8.96 16.32-5.76 2.56 8.96z" fill="#80A3BB" /><path d="M610.24 881.28l-16.32 5.44 14.08-8.32 16.64-5.76-14.4 8.64z" fill="#80A4BD" /><path d="M617.6 907.52l-16.64 5.76 11.2-11.52 16.64-5.76-11.2 11.52z" fill="#80A4BC" /><path d="M622.72 912.96l-16.64 5.44h-4.8l16.32-5.44h5.12zM617.6 912.96l-16.32 5.44-0.32-5.12 16.64-5.76v5.44zM592 853.12l-16.64 5.76-1.6-5.12 16.64-5.44 1.6 4.8z" fill="#80A3BB" /><path d="M601.28 858.56l-16.64 5.44-9.28-5.12 16.64-5.76 9.28 5.44zM609.92 863.68l-16.64 5.76-15.36 4.16 16.64-5.44 15.36-4.48zM605.76 905.92l-16.32 5.44-2.56-4.16 16.32-5.44 2.56 4.16z" fill="#80A3BB" /><path d="M603.2 901.76l-16.32 5.44 1.92-9.28 16.32-5.44-1.92 9.28zM594.56 868.16l-16.64 5.44-4.16-2.56 16.32-5.44 4.48 2.56z" fill="#80A3BB" /><path d="M590.08 865.6l-16.32 5.44 2.24-4.16 16.64-5.76-2.56 4.48zM601.92 886.4l-16.64 5.76-8.64-2.88 16.64-5.44 8.64 2.56z" fill="#80A3BB" /><path d="M590.4 879.36l-16.32 5.76 4.16-2.56 16.32-5.44-4.16 2.24z" fill="#80A4BD" /><path d="M593.28 883.84l-16.64 5.44-2.56-4.16 16.32-5.76 2.88 4.48z" fill="#80A3BB" /><path d="M592.64 891.84l-16.32 5.76 8.96-5.44 16.64-5.76-9.28 5.44z" fill="#80A4BD" /><path d="M596.16 897.92l-16.32 5.44-4.8-0.96 16.32-5.76 4.8 1.28z" fill="#80A3BB" /><path d="M630.4 824l3.84 3.84v10.88l6.4-6.4h4.8v5.12l-10.88 11.52 0.32 17.28 14.4-8.64 3.84-16 4.16-2.56 2.56 4.48-2.24 8.96 9.28-5.44 4.8 1.28-0.96 4.8-9.6 5.76 8.96 2.24 2.56 4.48-4.16 2.56-15.36-4.48-14.72 8.96 15.04 8.64 15.04-4.16 4.48 2.24-2.24 4.48-8.96 2.56 9.28 5.44 1.6 4.8-4.8 1.28-9.28-5.44 2.56 9.28-2.56 4.16-4.16-2.56-4.48-16-14.72-8.64 0.32 17.28 11.52 11.84v5.12h-4.48l-6.72-6.72 0.32 11.2-3.52 3.52-3.52-3.52-0.32-11.2-6.08 6.72h-5.12v-5.44l11.2-11.52-0.32-17.28-14.72 8.96-3.84 15.68-4.16 2.56-2.56-4.16 1.92-9.28-8.96 5.44-4.8-1.28 1.28-4.8 9.28-5.44-8.64-2.56-2.88-4.48 4.16-2.24 15.68 4.16 14.4-8.64-14.72-8.96-15.36 4.48-4.48-2.56 2.56-4.48 8.64-2.56-9.28-5.44-1.6-4.8 4.48-1.28 9.6 5.44-2.56-8.96 2.56-4.48 4.48 2.56 4.16 16 15.04 8.64-0.64-17.28-11.52-11.52v-5.12h4.8l6.72 6.4-0.32-10.88 3.2-3.84z" fill="#87C9F6" /><path d="M591.36 896.64l-16.32 5.76 1.28-4.8 16.32-5.76-1.28 4.8z" fill="#80A3BB" /><path d="M554.24 724.8l-16.64 5.44 11.84-7.04 16.64-5.76-11.84 7.36zM548.48 710.72l-16.64 5.44 5.12-3.52 16.64-5.44-5.12 3.52z" fill="#80A4BD" /><path d="M573.76 781.76l-16.64 5.76-6.08 1.6 16.64-5.76 6.08-1.6zM570.88 765.44l-16.32 5.44-11.2 2.88 16.32-5.44 11.2-2.88zM568 744.64l-16.32 5.76-20.16-5.44 16.32-5.44 20.16 5.12zM543.36 731.2l-16.64 5.76 5.12-20.8 16.64-5.44-5.12 20.48z" fill="#80A3BB" /><path d="M567.68 783.36l-16.64 5.76-12.16-7.04 16.64-5.76 12.16 7.04z" fill="#80A3BB" /><path d="M523.84 706.88l-16.64 5.76 8.32-8.64 16.32-5.76-8 8.64z" fill="#80A4BC" /><path d="M555.52 793.92l-16.64 5.44-5.44-3.2 16.32-5.76 5.76 3.52z" fill="#80A3BB" /><path d="M549.76 790.4l-16.32 5.76-5.76-20.8 16.32-5.76 5.76 20.8z" fill="#80A3BB" /><path d="M514.24 692.48l-16.32 5.76 4.48-5.12 16.64-5.44-4.8 4.8z" fill="#80A4BC" /><path d="M514.56 706.56l-16.32 5.76-0.32-14.08 16.32-5.76 0.32 14.08z" fill="#80A3BB" /><path d="M524.48 742.4l-16.32 5.76 18.56-11.2 16.64-5.76-18.88 11.2z" fill="#80A4BD" /><path d="M544 769.6l-16.32 5.76-19.2-11.2 16.64-5.76 18.88 11.2zM515.52 742.4l-16.64 5.76-0.32-22.72 16.32-5.44 0.64 22.4zM540.48 802.88l-16.64 5.76h-6.08l16.64-5.76h6.08zM500.16 704.64l-16.64 5.44v-6.4l16.32-5.76 0.32 6.72z" fill="#80A3BB" /><path d="M514.88 720l-16.32 5.44-15.04-15.36 16.64-5.44 14.72 15.36zM534.4 802.88l-16.64 5.76-8.64-8.64 16.64-5.44 8.64 8.32zM516.48 781.12l-16.64 5.76-0.64-22.72 16.64-5.76 0.64 22.72z" fill="#80A3BB" /><path d="M516.8 808.64l-16.32 5.44-0.32-14.08 16.32-5.44 0.32 14.08zM521.6 813.44l-16.32 5.44-4.8-4.8 16.32-5.44 4.8 4.8zM511.04 750.4l-16.32 5.76-19.2-11.2 16.64-5.44 18.88 10.88zM481.92 712.96l-16.64 5.44 3.2-5.76 16.32-5.44-2.88 5.76z" fill="#80A3BB" /><path d="M485.12 724.8l-16.32 5.44-3.52-11.84 16.64-5.44 3.2 11.84z" fill="#80A3BB" /><path d="M492.48 761.6l-16.32 5.76 18.56-11.2 16.32-5.76-18.56 11.2z" fill="#80A4BD" /><path d="M502.08 796.48l-16.32 5.44 14.08-15.04 16.64-5.76-14.4 15.36z" fill="#80A4BC" /><path d="M508.8 802.88l-16.64 5.44h-6.4l16.64-5.44h6.4zM502.4 802.88l-16.64 5.44v-6.4l16.32-5.44 0.32 6.4zM468.48 725.44l-16.32 5.76-1.92-6.4 16.64-5.44 1.6 6.08z" fill="#80A3BB" /><path d="M480.64 732.8l-16.32 5.44-12.16-7.04 16.32-5.76 12.16 7.36zM492.16 739.52l-16.64 5.44-19.84 5.44 16.32-5.76 20.16-5.12zM486.72 793.92l-16.32 5.44-3.52-5.76 16.64-5.44 3.2 5.76z" fill="#80A3BB" /><path d="M483.52 788.16l-16.64 5.44 2.88-11.52 16.32-5.76-2.56 11.84zM472 744.64l-16.32 5.76-5.76-3.52 16.64-5.44 5.44 3.2z" fill="#80A3BB" /><path d="M466.56 741.44l-16.64 5.44 3.2-5.76 16.64-5.44-3.2 5.76zM481.6 768.32l-16.64 5.44-11.2-2.88 16.64-5.76 11.2 3.2z" fill="#80A3BB" /><path d="M466.88 759.68l-16.64 5.76 5.44-3.52 16.64-5.76-5.44 3.52z" fill="#80A4BD" /><path d="M470.4 765.12l-16.64 5.76-3.52-5.44 16.64-5.76 3.52 5.44z" fill="#80A3BB" /><path d="M469.76 775.36l-16.64 5.76 11.84-7.36 16.64-5.44-11.84 7.04z" fill="#80A4BD" /><path d="M474.24 783.36l-16.32 5.76-6.08-1.6 16.32-5.76 6.08 1.6z" fill="#80A3BB" /><path d="M519.04 687.68l4.48 4.8 0.32 14.4 8-8.64h6.4v6.72l-14.08 15.04 0.32 22.4 18.88-11.2 5.12-20.48 5.12-3.52 3.52 5.76-2.88 11.84 11.84-7.36 6.08 1.92-1.6 6.08-11.84 7.36 11.52 3.2 3.2 5.44-5.44 3.2-20.16-5.12-18.56 10.88 19.2 11.2 19.84-5.44 5.76 3.52-3.2 5.76-11.2 2.88 12.16 7.04 1.92 6.4-6.08 1.6-12.16-7.04 3.2 11.84-3.2 5.76-5.76-3.52-5.76-20.8-18.88-11.2 0.32 22.72 14.72 15.36 0.32 6.4h-6.08l-8.64-8.32 0.32 14.08-4.48 4.8-4.8-4.8-0.32-14.08-7.68 8.32h-6.4l-0.32-6.4 14.4-15.36-0.64-22.72-18.56 11.2-5.12 20.8-5.44 3.52-3.2-5.76 2.56-11.84-11.84 7.04-6.08-1.6 1.6-6.4 11.84-7.04-11.2-3.2-3.52-5.44 5.44-3.52 20.16 5.44 18.56-11.2-18.88-10.88-20.16 5.12-5.44-3.2 3.2-5.76 10.88-2.88-12.16-7.36-1.6-6.08 6.08-1.92 12.16 7.36-3.2-11.84 2.88-5.76 5.76 3.52 6.08 20.48 18.88 11.2-0.64-22.4-14.72-15.36-0.32-6.72h6.4l8.32 8.64-0.32-14.08 4.8-4.8z" fill="#87C9F6" /><path d="M468.16 781.76l-16.32 5.76 1.28-6.4 16.64-5.76-1.6 6.4z" fill="#80A3BB" /><path d="M754.88 724.8l-16.64 5.44 11.84-7.04 16.32-5.76-11.52 7.36zM748.8 710.72l-16.32 5.44 5.44-3.52 16.32-5.44-5.44 3.52z" fill="#80A4BD" /><path d="M774.4 781.76l-16.64 5.76-6.08 1.6 16.64-5.76 6.08-1.6zM771.52 765.44l-16.64 5.44-10.88 2.88 16.32-5.44 11.2-2.88zM768.64 744.64l-16.32 5.76-20.16-5.44 16.32-5.44 20.16 5.12zM744 731.2l-16.64 5.76 5.12-20.8 16.32-5.44-4.8 20.48z" fill="#80A3BB" /><path d="M768.32 783.36l-16.64 5.76-12.16-7.04 16.32-5.76 12.48 7.04z" fill="#80A3BB" /><path d="M724.16 706.88l-16.32 5.76 8-8.64 16.64-5.76-8.32 8.64z" fill="#80A4BC" /><path d="M756.16 793.92l-16.32 5.44-5.76-3.2 16.64-5.76 5.44 3.52z" fill="#80A3BB" /><path d="M750.72 790.4l-16.64 5.76-6.08-20.8 16.64-5.76 6.08 20.8z" fill="#80A3BB" /><path d="M714.88 692.48l-16.32 5.76 4.16-5.12 16.64-5.44-4.48 4.8z" fill="#80A4BC" /><path d="M715.52 706.56l-16.64 5.76-0.32-14.08 16.32-5.76 0.64 14.08z" fill="#80A3BB" /><path d="M725.12 742.4l-16.64 5.76 18.88-11.2 16.64-5.76-18.88 11.2z" fill="#80A4BD" /><path d="M744.64 769.6l-16.64 5.76-19.2-11.2 16.64-5.76 19.2 11.2zM716.16 742.4l-16.64 5.76-0.32-22.72 16.32-5.44 0.64 22.4zM741.12 802.88l-16.32 5.76h-6.4l16.32-5.76h6.4zM700.48 704.64l-16.32 5.44-0.32-6.4 16.64-5.76v6.72z" fill="#80A3BB" /><path d="M715.52 720l-16.32 5.44-15.04-15.36 16.32-5.44 15.04 15.36zM734.72 802.88l-16.32 5.76-8.64-8.64 16.64-5.44 8.32 8.32zM717.12 781.12l-16.64 5.76-0.32-22.72 16.32-5.76 0.64 22.72z" fill="#80A3BB" /><path d="M717.76 808.64l-16.64 5.44-0.32-14.08 16.64-5.44 0.32 14.08zM722.24 813.44l-16.64 5.44-4.48-4.8 16.64-5.44 4.48 4.8zM712 750.4l-16.64 5.76-19.52-11.2 16.64-5.44 19.52 10.88zM682.24 712.96l-16.32 5.44 3.2-5.76 16.64-5.44-3.52 5.76z" fill="#80A3BB" /><path d="M685.76 724.8l-16.64 5.44-3.2-11.84 16.32-5.44 3.52 11.84z" fill="#80A3BB" /><path d="M693.12 761.6l-16.32 5.76 18.56-11.2 16.64-5.76-18.88 11.2z" fill="#80A4BD" /><path d="M703.04 796.48l-16.64 5.44 14.08-15.04 16.64-5.76-14.08 15.36z" fill="#80A4BC" /><path d="M709.12 802.88l-16.32 5.44h-6.4l16.64-5.44h6.08z" fill="#80A3BB" /><path d="M703.04 802.88l-16.64 5.44v-6.4l16.64-5.44v6.4zM669.44 725.44l-16.64 5.76-1.92-6.4 16.64-5.44 1.92 6.08z" fill="#80A3BB" /><path d="M681.6 732.8l-16.64 5.44-12.16-7.04 16.64-5.76 12.16 7.36zM692.48 739.52l-16.64 5.44-19.84 5.44 16.64-5.76 19.84-5.12zM687.36 793.92l-16.64 5.44-3.2-5.76 16.64-5.44 3.2 5.76z" fill="#80A3BB" /><path d="M684.16 788.16l-16.64 5.44 2.88-11.52 16.32-5.76-2.56 11.84zM672.64 744.64l-16.64 5.76-5.44-3.52 16.64-5.44 5.44 3.2z" fill="#80A3BB" /><path d="M667.2 741.44l-16.64 5.44 3.2-5.76 16.32-5.44-2.88 5.76zM682.24 768.32l-16.64 5.44-11.2-2.88 16.32-5.76 11.52 3.2z" fill="#80A3BB" /><path d="M667.52 759.68l-16.32 5.76 5.44-3.52 16.32-5.76-5.44 3.52z" fill="#80A4BD" /><path d="M670.72 765.12l-16.32 5.76-3.2-5.44 16.32-5.76 3.2 5.44z" fill="#80A3BB" /><path d="M670.4 775.36l-16.32 5.76 11.52-7.36 16.64-5.44-11.84 7.04z" fill="#80A4BD" /><path d="M675.2 783.36l-16.64 5.76-6.08-1.6 16.32-5.76 6.4 1.6z" fill="#80A3BB" /><path d="M719.36 687.68l4.48 4.8 0.32 14.4 8.32-8.64h6.4v6.72l-14.4 15.04 0.64 22.4 18.88-11.2 4.8-20.48 5.44-3.52 3.2 5.76-2.56 11.84 11.52-7.36 6.72 1.92-1.6 6.08-11.84 7.36 11.2 3.2 3.52 5.44-5.76 3.2-20.16-5.12-18.56 10.88 19.2 11.2 19.84-5.44 5.76 3.52-3.2 5.76-11.2 2.88 12.16 7.04 1.92 6.4-6.08 1.6-12.48-7.04 3.52 11.84-3.2 5.76-5.44-3.52-6.08-20.8-19.2-11.2 0.64 22.72 15.04 15.36v6.4h-6.4l-8.32-8.32v14.08l-4.16 4.8-4.48-4.8-0.32-14.08-8.32 8.32h-6.08v-6.4l14.08-15.36-0.64-22.72-18.56 11.2-5.12 20.8-5.44 3.52-3.2-5.76 2.56-11.84-11.52 7.04-6.4-1.6 1.6-6.4 11.84-7.04-11.52-3.2-3.2-5.44 5.44-3.52 20.16 5.44 18.88-11.2-19.52-10.88-19.84 5.12-5.44-3.2 2.88-5.76 11.52-2.88-12.16-7.36-1.92-6.08 6.08-1.92 12.16 7.36-3.52-11.84 3.52-5.76 5.44 3.52 5.76 20.48 19.2 11.2-0.64-22.4-15.04-15.36v-6.72h6.4l8.64 8.64-0.64-14.08 4.48-4.8z" fill="#87C9F6" /><path d="M668.8 781.76l-16.32 5.76 1.6-6.4 16.32-5.76-1.6 6.4z" fill="#80A3BB" /></svg>