<?xml version="1.0" standalone="no"?><!DOCTYPE svg PUBLIC "-//W3C//DTD SVG 1.1//EN" "http://www.w3.org/Graphics/SVG/1.1/DTD/svg11.dtd"><svg class="icon" width="200px" height="200.00px" viewBox="0 0 1024 1024" version="1.1" xmlns="http://www.w3.org/2000/svg"><path d="M0 0m128 0l768 0q128 0 128 128l0 768q0 128-128 128l-768 0q-128 0-128-128l0-768q0-128 128-128Z" fill="#10AAFF" opacity=".1" /><path d="M403.84 705.92h-4.16V704l3.84 2.24z" fill="#F7F7F7" /><path d="M403.84 705.92h-4.16V704l3.84 2.24z" fill="#F7F7F7" /><path d="M850.88 644.48l-32 22.08a172.8 172.8 0 0 1-97.92 29.76l32-22.08a175.04 175.04 0 0 0 97.92-29.76" fill="#BEBEBE" /><path d="M752.96 674.24l-32.64 22.08h-90.88l32.64-22.08h90.88z" fill="#BBBBBB" /><path d="M376.32 314.88l-32 22.08a176.32 176.32 0 0 1 76.48-148.48l32-22.4a176.32 176.32 0 0 0-76.48 148.8" fill="#BEBEBE" /><path d="M662.08 674.24l-32.64 22.08h-91.2l32.64-22.08h91.2z" fill="#BBBBBB" /><path d="M570.88 674.24l-32.64 22.08H295.36l32.64-22.08h242.88z" fill="#BBBBBB" /><path d="M328 674.24l-32 22.08a194.88 194.88 0 0 1-192-185.6 176.96 176.96 0 0 1 76.16-155.84l32-22.4a177.92 177.92 0 0 0-76.16 156.16 194.88 194.88 0 0 0 192 185.6" fill="#BEBEBE" /><path d="M550.08 136.32a194.56 194.56 0 0 1 188.8 166.4A194.88 194.88 0 0 1 928 488.64a174.08 174.08 0 0 1-173.76 185.6H328a194.88 194.88 0 0 1-192-185.6 174.4 174.4 0 0 1 175.04-185.92 184.64 184.64 0 0 1 64 12.16 173.76 173.76 0 0 1 175.04-178.56z" fill="#F8F8F8" /><path d="M360.96 877.76l-16.64 5.44-51.84-52.16 16.64-5.76 51.84 52.48zM309.12 825.28l-16.64 5.76 49.6-52.16 16.64-5.76-49.6 52.16z" fill="#B3B3B3" /><path d="M358.72 773.12l51.52 52.16-49.28 52.48-51.84-52.48 49.6-52.16z" fill="#E6E6E6" /><path d="M527.04 877.76l-16.32 5.44-51.84-52.16 16.32-5.76 51.84 52.48zM475.2 825.28l-16.32 5.76 49.28-52.16 16.64-5.76-49.6 52.16z" fill="#B3B3B3" /><path d="M524.8 773.12l51.84 52.16-49.6 52.48-51.84-52.48 49.6-52.16z" fill="#E6E6E6" /><path d="M693.44 877.76l-16.64 5.44-51.52-52.16 16.64-5.76 51.52 52.48zM641.92 825.28l-16.64 5.76 49.28-52.16 16.32-5.76-48.96 52.16z" fill="#B3B3B3" /><path d="M690.88 773.12l51.84 52.16-49.28 52.48-51.52-52.48 48.96-52.16z" fill="#E6E6E6" /></svg>