<?xml version="1.0" standalone="no"?><!DOCTYPE svg PUBLIC "-//W3C//DTD SVG 1.1//EN" "http://www.w3.org/Graphics/SVG/1.1/DTD/svg11.dtd"><svg class="icon" width="200px" height="200.00px" viewBox="0 0 1024 1024" version="1.1" xmlns="http://www.w3.org/2000/svg"><path d="M0 0m128 0l768 0q128 0 128 128l0 768q0 128-128 128l-768 0q-128 0-128-128l0-768q0-128 128-128Z" fill="#10AAFF" opacity=".1" /><path d="M403.84 705.92h-4.16V704l3.84 2.24z" fill="#F7F7F7" /><path d="M403.84 705.92h-4.16V704l3.84 2.24z" fill="#F7F7F7" /><path d="M850.56 642.56l-32 22.4a171.52 171.52 0 0 1-96 29.76l32-22.4a171.52 171.52 0 0 0 96-29.76" fill="#BEBEBE" /><path d="M753.28 672.32l-32.64 22.4h-91.2l32.64-22.4h91.2z" fill="#BBBBBB" /><path d="M376.64 312.96l-32 22.4a176 176 0 0 1 76.16-148.8l32-22.08a175.36 175.36 0 0 0-75.84 148.48" fill="#BEBEBE" /><path d="M662.08 672.32l-32.64 22.4h-91.2l32.64-22.4h91.2z" fill="#BBBBBB" /><path d="M570.88 672.32l-32.64 22.4H295.36l32.64-22.4h242.88z" fill="#BBBBBB" /><path d="M328 672l-32 22.4a194.88 194.88 0 0 1-192-185.92A177.28 177.28 0 0 1 181.12 352l32-22.4a178.24 178.24 0 0 0-76.48 156.16 194.56 194.56 0 0 0 192 185.6" fill="#BEBEBE" /><path d="M550.4 134.72a194.24 194.24 0 0 1 188.48 166.4 193.92 193.92 0 0 1 189.12 185.6A174.08 174.08 0 0 1 753.28 672H328a194.56 194.56 0 0 1-192-185.6 174.72 174.72 0 0 1 175.04-185.6 182.08 182.08 0 0 1 64 12.16 173.44 173.44 0 0 1 175.36-178.24z" fill="#F8F8F8" /><path d="M266.88 770.24l-16.32 5.76 42.56-26.24 16.64-5.76-42.88 26.24z" fill="#4D9BBA" /><path d="M309.76 864l-16.64 5.76a48.32 48.32 0 0 1-15.36 2.56 52.48 52.48 0 0 1-51.52-51.84 51.2 51.2 0 0 1 24.32-44.48l16.32-5.44a51.52 51.52 0 0 0-24 44.48 52.16 52.16 0 0 0 51.2 51.52 42.56 42.56 0 0 0 15.68-2.56" fill="#4D9BBB" /><path d="M309.76 744l25.92 44.8a55.36 55.36 0 0 1 7.36 25.92 49.28 49.28 0 0 1-48.96 51.52 52.16 52.16 0 0 1-51.2-51.52 51.52 51.52 0 0 1 24-44.48z" fill="#2BB8F0" /><path d="M462.4 770.24l-16.32 5.76 42.56-26.24 16.64-5.76-42.88 26.24z" fill="#4D9BBA" /><path d="M505.28 864l-16.64 5.44a48.32 48.32 0 0 1-15.36 2.56 52.16 52.16 0 0 1-51.2-51.84 49.6 49.6 0 0 1 24-44.48l16.32-5.44a50.88 50.88 0 0 0-24 44.48A51.84 51.84 0 0 0 505.28 864" fill="#4D9BBB" /><path d="M505.28 744l25.92 44.8a59.2 59.2 0 0 1 7.36 25.92 49.28 49.28 0 0 1-48.96 51.52 51.84 51.84 0 0 1-51.2-51.52 50.88 50.88 0 0 1 24-44.48z" fill="#2BB8F0" /><path d="M657.92 770.24l-16.32 5.76 42.56-26.24 16.32-5.76-42.56 26.24z" fill="#4D9BBA" /><path d="M700.8 864l-16.64 5.44a48.32 48.32 0 0 1-15.36 2.56 52.16 52.16 0 0 1-51.2-51.84 49.6 49.6 0 0 1 24-44.48l16.32-5.44a50.88 50.88 0 0 0-24 44.48A51.84 51.84 0 0 0 700.8 864" fill="#4D9BBB" /><path d="M700.48 744l26.24 44.8a55.36 55.36 0 0 1 7.36 25.92 49.28 49.28 0 0 1-48.96 51.52 51.84 51.84 0 0 1-51.2-51.52 50.88 50.88 0 0 1 24-44.48z" fill="#2BB8F0" /></svg>