<?xml version="1.0" standalone="no"?><!DOCTYPE svg PUBLIC "-//W3C//DTD SVG 1.1//EN" "http://www.w3.org/Graphics/SVG/1.1/DTD/svg11.dtd"><svg class="icon" width="200px" height="200.00px" viewBox="0 0 1024 1024" version="1.1" xmlns="http://www.w3.org/2000/svg"><path d="M0 0m128 0l768 0q128 0 128 128l0 768q0 128-128 128l-768 0q-128 0-128-128l0-768q0-128 128-128Z" fill="#10AAFF" opacity=".1" /><path d="M403.84 705.92h-4.16V704l3.84 2.24z" fill="#F7F7F7" /><path d="M918.4 471.68l-32 22.4a14.08 14.08 0 0 1-8 2.56l32-22.4a14.08 14.08 0 0 0 8-2.56" fill="#BEA159" /><path d="M910.4 474.24l-32.64 22.4h-37.76l32.64-22.4h37.76z" fill="#BBA05B" /><path d="M872.64 474.24l-32 22.4a15.68 15.68 0 0 1-9.28-28.16L864 448a15.68 15.68 0 0 0-6.4 12.8 16.32 16.32 0 0 0 15.68 15.04" fill="#BEA159" /><path d="M908.8 443.84a16.32 16.32 0 0 1 16 15.36 14.4 14.4 0 0 1-14.4 15.04h-37.76a16.32 16.32 0 0 1-15.68-15.04 14.72 14.72 0 0 1 14.4-15.36z" fill="#F8C441" /><path d="M886.08 621.12l-32 22.08a14.72 14.72 0 0 1-8 2.56 16 16 0 0 1-7.68-1.92l32-22.4a13.12 13.12 0 0 0 7.36 2.24 15.04 15.04 0 0 0 8.32-2.56" fill="#BEA159" /><path d="M870.4 621.44l-32.64 22.4-33.28-19.52 32.64-22.08 33.28 19.2z" fill="#BBA05B" /><path d="M837.12 602.24l-32 22.08a15.36 15.36 0 0 1-6.4-20.48 12.48 12.48 0 0 1 4.48-5.44l32-22.08a11.52 11.52 0 0 0-4.48 5.12 15.68 15.68 0 0 0 6.4 20.8" fill="#BEA159" /><path d="M884.16 594.88a15.68 15.68 0 0 1 6.4 20.8 14.08 14.08 0 0 1-12.8 8 13.12 13.12 0 0 1-7.36-2.24l-32-19.2a15.68 15.68 0 0 1-6.4-20.8 14.4 14.4 0 0 1 12.8-7.68 14.72 14.72 0 0 1 7.36 1.92z" fill="#F8C441" /><path d="M872.32 322.88l-32 22.4 32-22.08" fill="#BEA159" /><path d="M871.68 323.52l-32.64 22.08-31.36 18.88 32.64-22.08 31.36-18.88z" fill="#BBA05B" /><path d="M840.32 342.4l-32 22.08a12.48 12.48 0 0 1-7.36 2.24l32-22.4a14.72 14.72 0 0 0 7.36-1.92" fill="#BEA159" /><path d="M832 344.32l-32 22.4a16 16 0 0 1-13.44-7.68 15.04 15.04 0 0 1 3.84-20.48l32-22.08a14.72 14.72 0 0 0-3.84 20.16 15.36 15.36 0 0 0 13.44 7.68" fill="#BEA159" /><path d="M832 344.32a15.36 15.36 0 0 1-13.44-7.68 14.4 14.4 0 0 1 4.48-20.48l32-19.52a16.96 16.96 0 0 1 8.96-1.92 16.64 16.64 0 0 1 13.44 7.68 15.36 15.36 0 0 1-4.8 21.12l-32 18.88a14.72 14.72 0 0 1-8.64 1.92z" fill="#F8C441" /><path d="M722.24 613.44l-32 22.08a171.52 171.52 0 0 1-96 29.44 192 192 0 0 1-188.16-183.36A174.72 174.72 0 0 1 480 327.36l32-22.08a174.08 174.08 0 0 0-75.2 153.92 192 192 0 0 0 188.16 183.68 171.52 171.52 0 0 0 96-29.44" fill="#BEA159" /><path d="M470.821305 558.912886a186.24 177.28 55.73 1 0 293.005988-199.650405 186.24 177.28 55.73 1 0-293.005988 199.650405Z" fill="#F8C441" /><path d="M399.36 342.08l-32 22.08a14.72 14.72 0 0 1-8 2.56 14.08 14.08 0 0 1-7.68-2.24l32-22.08a16.96 16.96 0 0 0 7.68 1.92 15.04 15.04 0 0 0 8-2.24" fill="#BEA159" /><path d="M383.68 342.4l-32.64 22.08-33.28-18.88 32.64-22.08 33.28 18.88z" fill="#BBA05B" /><path d="M352 323.52l-32 22.08a15.68 15.68 0 0 1-6.4-20.8 12.48 12.48 0 0 1 2.24-4.8l32-22.08a11.52 11.52 0 0 0-4.48 5.12 16.32 16.32 0 0 0 6.4 21.12" fill="#BEA159" /><path d="M397.44 316.16a15.36 15.36 0 0 1 6.4 20.48 13.76 13.76 0 0 1-12.48 7.68 16.96 16.96 0 0 1-7.36-1.92l-32-18.88a16.32 16.32 0 0 1-6.4-21.12 14.08 14.08 0 0 1 12.48-7.68 16 16 0 0 1 7.68 1.92z" fill="#F8C441" /><path d="M488.32 247.04l-32 22.08 32-22.4" fill="#BEA159" /><path d="M448 208.64l-32 22.08a14.72 14.72 0 0 1 3.84-20.16l32-22.4a15.04 15.04 0 0 0-3.84 20.48" fill="#BEA159" /><path d="M466.88 241.6l-32.64 22.4-20.16-33.28 32.64-22.08 20.16 32.96z" fill="#BBA05B" /><path d="M487.68 247.36l-32 22.4a14.72 14.72 0 0 1-7.36 1.92 16 16 0 0 1-13.44-7.68l32-22.4a15.68 15.68 0 0 0 13.12 8 15.36 15.36 0 0 0 7.36-2.24" fill="#BEA159" /><path d="M466.88 241.6l-20.16-32a14.72 14.72 0 0 1 4.48-20.8 16.96 16.96 0 0 1 7.68-1.92 16 16 0 0 1 13.12 7.36l20.16 32a14.72 14.72 0 0 1-4.48 20.8 15.36 15.36 0 0 1-7.68 2.56 15.68 15.68 0 0 1-13.12-8z" fill="#F8C441" /><path d="M588.8 160l-32 22.08a14.4 14.4 0 0 1 6.08-12.8l32-22.4a15.36 15.36 0 0 0-6.08 13.12" fill="#BEA159" /><path d="M614.08 212.16l-32 22.08a13.12 13.12 0 0 1-8 2.56l32-22.4a15.68 15.68 0 0 0 8-2.24" fill="#BEA159" /><path d="M590.4 199.04l-32.64 22.4-1.6-38.08 32.32-22.08 1.92 37.76z" fill="#BBA05B" /><path d="M606.08 214.4l-32 22.4a16 16 0 0 1-15.68-15.36l32-22.4a16 16 0 0 0 15.68 15.36" fill="#BEA159" /><path d="M606.08 214.4a16 16 0 0 1-15.68-15.36L588.8 160a14.08 14.08 0 0 1 14.08-15.36 16 16 0 0 1 15.68 15.36l1.92 37.76a14.4 14.4 0 0 1-14.4 16.64z" fill="#F8C441" /><path d="M738.24 192l-32 22.08a21.44 21.44 0 0 1 4.48-4.8l32-22.4a17.92 17.92 0 0 0-4.48 5.12" fill="#BEA159" /><path d="M720.96 226.56l-32.64 22.08 17.28-33.28 32.64-22.08-17.28 33.28z" fill="#BBA05A" /><path d="M743.04 247.04l-32 22.08a14.08 14.08 0 0 1-8 2.56 16.96 16.96 0 0 1-7.68-1.92l32-22.4a17.6 17.6 0 0 0 8.64 2.24 14.08 14.08 0 0 0 8-2.56" fill="#BEA159" /><path d="M727.36 247.36l-32 22.4a16.64 16.64 0 0 1-6.4-21.12l32-22.08a16 16 0 0 0 6.4 20.8" fill="#BEA159" /><path d="M727.36 247.36a16 16 0 0 1-6.4-20.8l17.28-32a14.4 14.4 0 0 1 12.8-7.36 16.96 16.96 0 0 1 7.68 1.92 15.68 15.68 0 0 1 6.08 20.8l-16.96 32a14.4 14.4 0 0 1-12.8 8 17.6 17.6 0 0 1-7.68-2.56z" fill="#F8C441" /><path d="M779.52 832l-32 22.08a146.88 146.88 0 0 1-83.84 25.6l32-22.08a147.2 147.2 0 0 0 84.16-25.6" fill="#BEBEBE" /><path d="M695.36 856l-32.64 22.4h-93.44l32.32-22.4h93.76z" fill="#BBBBBB" /><path d="M359.68 551.04l-32 22.4v-16a152.64 152.64 0 0 1 65.6-134.72l32-22.4a153.6 153.6 0 0 0-65.6 135.04v15.68" fill="#BEBEBE" /><path d="M440.96 672.64l-32.64 22.4-3.2-1.92 32.64-22.4 3.2 1.92zM601.6 856l-32.32 22.4h-64l32.64-22.4h63.68z" fill="#BBBBBB" /><path d="M537.92 856l-32.64 22.4H272.96l32.64-22.4h232.32z" fill="#BBBBBB" /><path d="M305.6 856l-32 22.08a167.68 167.68 0 0 1-164.8-160 152.64 152.64 0 0 1 65.6-134.4l32-22.4a152.64 152.64 0 0 0-64 134.4 167.68 167.68 0 0 0 164.8 160" fill="#BEBEBE" /><path d="M680.96 535.36a168 168 0 0 1 164.48 160 150.4 150.4 0 0 1-150.08 160H305.6a167.68 167.68 0 0 1-164.8-160 150.4 150.4 0 0 1 150.08-160 157.12 157.12 0 0 1 68.8 15.68v-15.68a150.4 150.4 0 0 1 150.08-160 167.68 167.68 0 0 1 164.8 160zM437.76 672h3.2l-3.2-1.92V672" fill="#F8F8F8" /><path d="M403.84 705.92h-4.16V704l3.84 2.24z" fill="#F7F7F7" /></svg>