<?xml version="1.0" standalone="no"?><!DOCTYPE svg PUBLIC "-//W3C//DTD SVG 1.1//EN" "http://www.w3.org/Graphics/SVG/1.1/DTD/svg11.dtd"><svg class="icon" width="200px" height="200.00px" viewBox="0 0 1024 1024" version="1.1" xmlns="http://www.w3.org/2000/svg"><path d="M0 0m128 0l768 0q128 0 128 128l0 768q0 128-128 128l-768 0q-128 0-128-128l0-768q0-128 128-128Z" fill="#10AAFF" opacity=".1" /><path d="M403.84 705.92h-4.16V704l3.84 2.24z" fill="#F4B425" /><path d="M403.84 705.92h-4.16V704l3.84 2.24z" fill="#F4B425" /><path d="M837.12 598.08l-32 22.08a18.56 18.56 0 0 1-10.88 3.52l32-22.08a18.56 18.56 0 0 0 10.88-3.52" fill="#B8974C" /><path d="M826.24 601.6l-32.64 22.08h-318.08l32.64-22.08h318.08z" fill="#B6964E" /><path d="M508.16 601.6l-32 22.08a39.68 39.68 0 0 0-22.72 7.04l32-22.08a39.68 39.68 0 0 1 22.72-7.04" fill="#B8974C" /><path d="M525.44 727.68l-32 22.08a19.52 19.52 0 0 1-11.2 3.52 90.88 90.88 0 0 1-88.96-86.4 82.24 82.24 0 0 1 35.52-72l32-22.4a81.92 81.92 0 0 0-35.52 72 91.2 91.2 0 0 0 88.96 86.72 19.52 19.52 0 0 0 11.2-3.52" fill="#B8974C" /><path d="M824.32 558.08a23.04 23.04 0 0 1 22.08 21.44 20.8 20.8 0 0 1-20.16 22.08h-318.08a40.64 40.64 0 0 0-40.64 42.88A45.44 45.44 0 0 0 512 687.68a22.72 22.72 0 0 1 22.4 21.76 20.48 20.48 0 0 1-20.16 21.76 91.2 91.2 0 0 1-88.96-86.72 80.96 80.96 0 0 1 73.6-85.44h3.84z" fill="#EEB129" /><path d="M828.16 396.16l-32 22.08a19.52 19.52 0 0 1-11.2 3.52l32-22.08a19.52 19.52 0 0 0 11.2-3.52" fill="#B8974C" /><path d="M889.28 496.96l-32 22.4a19.52 19.52 0 0 1-11.2 3.52l32-22.4a19.52 19.52 0 0 0 11.2-3.52" fill="#B8974C" /><path d="M617.28 266.56l-32 22.08a19.52 19.52 0 0 1-11.2 3.52 38.72 38.72 0 0 0-22.4 7.04l32-22.4a37.76 37.76 0 0 1 22.4-6.72 19.52 19.52 0 0 0 11.2-3.52" fill="#B8974C" /><path d="M816.96 399.68l-32.64 22.08H579.2l32.64-22.08h205.12z" fill="#B6964E" /><path d="M611.84 399.68l-32 22.08a90.24 90.24 0 0 1-88.64-86.08 82.56 82.56 0 0 1 35.52-72.64l32-22.4a82.56 82.56 0 0 0-35.52 72.64 90.56 90.56 0 0 0 88.64 86.4" fill="#B8974C" /><path d="M604.16 226.88a22.72 22.72 0 0 1 22.08 21.44 20.48 20.48 0 0 1-20.16 21.76 40.32 40.32 0 0 0-40.32 43.2 44.8 44.8 0 0 0 44.16 43.2h205.12a22.72 22.72 0 0 1 22.08 21.44 20.16 20.16 0 0 1-20.16 21.76h-205.12a90.56 90.56 0 0 1-88.64-86.4 81.28 81.28 0 0 1 80.96-86.4z" fill="#EEB129" /><path d="M396.16 367.36l-32 22.4a20.48 20.48 0 0 1-11.52 3.52 41.28 41.28 0 0 0-22.72 6.72l32-22.08a38.72 38.72 0 0 1 22.4-7.04 20.8 20.8 0 0 0 11.84-3.52" fill="#B8974C" /><path d="M878.08 500.48l-32.64 22.4H357.76l32.64-22.4h487.68z" fill="#B6964E" /><path d="M390.4 500.48l-32 22.4a90.88 90.88 0 0 1-88.64-86.72 81.92 81.92 0 0 1 35.52-72.32l32-22.08a81.92 81.92 0 0 0-35.52 72.32 90.56 90.56 0 0 0 88.64 86.4" fill="#B8974C" /><path d="M384 327.68a22.4 22.4 0 0 1 22.4 21.76 20.16 20.16 0 0 1-20.48 21.44 40.64 40.64 0 0 0-40.32 43.2 45.76 45.76 0 0 0 44.48 43.2h486.08a23.04 23.04 0 0 1 22.08 21.76 20.16 20.16 0 0 1-20.16 21.44H390.4a90.56 90.56 0 0 1-88.64-86.4 81.28 81.28 0 0 1 82.24-86.4z" fill="#EEB129" /><path d="M335.04 624.32l-16.32 5.44a27.84 27.84 0 0 1-8.96 1.6 29.44 29.44 0 0 1-28.8-29.12 28.48 28.48 0 0 1 18.88-26.24l16.64-5.44a28.16 28.16 0 0 0-19.2 27.84 29.44 29.44 0 0 0 29.12 28.8 25.6 25.6 0 0 0 8.64 0" fill="#B8974C" /><path d="M325.12 567.36a30.08 30.08 0 0 1 28.8 29.44 27.84 27.84 0 0 1-27.52 28.8 29.44 29.44 0 0 1-29.12-28.8 28.48 28.48 0 0 1 27.84-29.44z" fill="#ECB02A" /><path d="M188.8 566.08l-16.32 5.44a27.84 27.84 0 0 1-8.96 1.6 29.44 29.44 0 0 1-28.8-29.12 28.48 28.48 0 0 1 18.88-27.84l16.32-4.16a28.16 28.16 0 0 0-18.56 27.84 29.12 29.12 0 0 0 28.8 28.8 25.6 25.6 0 0 0 8.64 0" fill="#B8974C" /><path d="M178.88 509.12a29.76 29.76 0 0 1 28.8 29.44 27.52 27.52 0 0 1-27.52 28.8 29.12 29.12 0 0 1-28.8-28.8 27.84 27.84 0 0 1 27.52-29.44z" fill="#ECB02A" /><path d="M616.64 741.12l-16.32 5.44a27.84 27.84 0 0 1-8.96 1.6 29.76 29.76 0 0 1-28.48-29.44 27.84 27.84 0 0 1 18.56-27.52l16.64-5.44a27.52 27.52 0 0 0-18.88 27.52 29.44 29.44 0 0 0 28.8 29.12 25.6 25.6 0 0 0 8.64 0" fill="#B8974C" /><path d="M608 684.16a29.76 29.76 0 0 1 29.12 29.12 28.16 28.16 0 0 1-27.84 29.12 29.44 29.44 0 0 1-28.8-29.12 27.84 27.84 0 0 1 27.52-29.12z" fill="#ECB02A" /><path d="M257.6 683.52l-16.32 5.44a10.24 10.24 0 0 1-4.48 0 14.72 14.72 0 0 1-12.8-13.76 14.08 14.08 0 0 1 9.6-14.08l16.32-5.44a14.72 14.72 0 0 0-9.6 14.08 15.04 15.04 0 0 0 14.72 14.4h4.16" fill="#B8974C" /><path d="M239.8058 674.229157a14.72 14.08 71.34 1 0 26.679738-9.009838 14.72 14.08 71.34 1 0-26.679738 9.009838Z" fill="#ECB02A" /><path d="M712.32 785.28l-16.64 5.76h-4.16a14.72 14.72 0 0 1-14.4-14.72 13.44 13.44 0 0 1 9.28-13.44l16.64-5.76a14.08 14.08 0 0 0-9.6 13.76 15.04 15.04 0 0 0 14.72 14.72 9.92 9.92 0 0 0 4.16 0" fill="#B8974C" /><path d="M707.52 757.12a14.4 14.4 0 0 1 14.08 14.4 13.76 13.76 0 0 1-13.44 14.72 15.04 15.04 0 0 1-14.72-14.72 14.08 14.08 0 0 1 14.08-14.4z" fill="#ECB02A" /><path d="M276.8 275.2l-16.32 5.76L256 281.6a14.72 14.72 0 0 1-14.4-14.4 14.4 14.4 0 0 1 9.28-14.08l16.64-5.44a14.4 14.4 0 0 0-9.6 14.08 14.72 14.72 0 0 0 14.72 14.08 9.6 9.6 0 0 0 4.16 0" fill="#B8974C" /><path d="M272 247.04a14.72 14.72 0 0 1 16 14.72 14.08 14.08 0 0 1-13.76 14.08 14.72 14.72 0 0 1-14.72-14.08 14.08 14.08 0 0 1 12.48-14.72z" fill="#ECB02A" /><path d="M710.72 304.32l-16.64 5.44a20.48 20.48 0 0 1-6.4 0 22.08 22.08 0 0 1-21.76-21.76 21.44 21.44 0 0 1 14.08-20.8l16.64-5.44a21.12 21.12 0 0 0-14.08 20.8 22.08 22.08 0 0 0 21.44 21.76h6.72" fill="#B8974C" /><path d="M704 261.76a22.08 22.08 0 0 1 21.76 21.76 21.12 21.12 0 0 1-20.8 21.76 22.08 22.08 0 0 1-21.44-21.76 20.8 20.8 0 0 1 20.48-21.76z" fill="#ECB02A" /><path d="M441.92 296.96l-16.32 5.76h-6.72a22.08 22.08 0 0 1-21.44-22.08 21.44 21.44 0 0 1 14.08-20.8l16.32-3.84a21.12 21.12 0 0 0-14.08 20.48 22.08 22.08 0 0 0 21.76 22.08 20.48 20.48 0 0 0 6.4 0" fill="#B8974C" /><path d="M434.56 254.08a22.08 22.08 0 0 1 21.44 21.76 20.8 20.8 0 0 1-20.48 22.08 22.08 22.08 0 0 1-21.76-22.08 21.12 21.12 0 0 1 20.8-21.76z" fill="#ECB02A" /><path d="M209.6 333.44l-17.6 5.44a15.68 15.68 0 0 1-6.72 0 22.08 22.08 0 0 1-21.44-22.08 21.12 21.12 0 0 1 14.08-20.8l16.32-5.76a21.76 21.76 0 0 0-14.08 20.8 22.08 22.08 0 0 0 21.76 22.08 20.48 20.48 0 0 0 6.4 0" fill="#B8974C" /><path d="M202.24 290.56a22.08 22.08 0 0 1 21.76 21.76 20.8 20.8 0 0 1-20.48 22.08 22.08 22.08 0 0 1-21.76-22.08 21.12 21.12 0 0 1 20.48-21.76z" fill="#ECB02A" /><path d="M754.88 704l-16.32 5.44a15.68 15.68 0 0 1-6.72 0 22.08 22.08 0 0 1-21.44-21.76 21.44 21.44 0 0 1 14.08-21.12l16.64-5.44a21.12 21.12 0 0 0-14.4 20.8 22.08 22.08 0 0 0 21.76 21.76 20.48 20.48 0 0 0 6.4 0" fill="#B8974C" /><path d="M747.52 662.08a22.4 22.4 0 0 1 21.76 22.08 21.12 21.12 0 0 1-20.8 21.76 22.08 22.08 0 0 1-21.76-21.76 21.12 21.12 0 0 1 20.8-22.08z" fill="#ECB02A" /><path d="M339.52 763.2l-16.32 4.8a15.68 15.68 0 0 1-6.72 0 22.08 22.08 0 0 1-21.76-21.76 21.44 21.44 0 0 1 14.08-20.8l16.64-5.44a21.12 21.12 0 0 0-14.4 20.48 22.4 22.4 0 0 0 22.08 21.76 20.48 20.48 0 0 0 6.4 0" fill="#B8974C" /><path d="M332.16 720.64a22.08 22.08 0 0 1 21.44 21.76 20.8 20.8 0 0 1-20.48 21.76 22.4 22.4 0 0 1-22.08-21.76 21.12 21.12 0 0 1 21.12-21.76z" fill="#ECB02A" /><path d="M233.92 464.64l-16.64 5.44a20.48 20.48 0 0 1-6.4 0 22.08 22.08 0 0 1-21.76-22.08 20.8 20.8 0 0 1 14.08-20.48l16.64-5.76a21.44 21.44 0 0 0-14.08 20.8 22.08 22.08 0 0 0 21.44 22.08h6.72" fill="#B8974C" /><path d="M226.24 421.76a22.08 22.08 0 0 1 21.76 21.76 20.8 20.8 0 0 1-20.8 22.08 22.08 22.08 0 0 1-21.44-22.08 20.8 20.8 0 0 1 20.48-21.76z" fill="#ECB02A" /></svg>