<?xml version="1.0" standalone="no"?><!DOCTYPE svg PUBLIC "-//W3C//DTD SVG 1.1//EN" "http://www.w3.org/Graphics/SVG/1.1/DTD/svg11.dtd"><svg class="icon" width="200px" height="200.00px" viewBox="0 0 1024 1024" version="1.1" xmlns="http://www.w3.org/2000/svg"><path d="M0 0m128 0l768 0q128 0 128 128l0 768q0 128-128 128l-768 0q-128 0-128-128l0-768q0-128 128-128Z" fill="#10AAFF" opacity=".1" /><path d="M403.84 705.92h-4.16V704l3.84 2.24z" fill="#F7F7F7" /><path d="M403.84 705.92h-4.16V704l3.84 2.24z" fill="#F7F7F7" /><path d="M867.52 515.2l-32 22.08a14.4 14.4 0 0 1-8.96 2.88l32-22.4a16.32 16.32 0 0 0 8.96-2.56" fill="#C6A962" /><path d="M858.56 517.76l-32.64 22.4h-46.72l32.64-22.4h46.72z" fill="#C3A863" /><path d="M811.84 517.76l-32 22.4a17.92 17.92 0 0 1-17.28-16.96 17.6 17.6 0 0 1 5.44-14.4l32-22.4a17.28 17.28 0 0 0 10.24 32" fill="#C6A962" /><path d="M856.96 483.84a17.92 17.92 0 0 1 17.6 16.96 16 16 0 0 1-16 16.96h-46.72a17.92 17.92 0 0 1-17.28-16.96 16 16 0 0 1 15.68-16.96z" fill="#F9C542" /><path d="M832 683.2L800 704a15.04 15.04 0 0 1-8.96 2.88 16 16 0 0 1-8.32-2.56l32-22.08a17.28 17.28 0 0 0 8.64 2.24 18.24 18.24 0 0 0 8.96-2.56" fill="#C6A962" /><path d="M813.76 683.52l-32.64 22.08-41.6-23.68 32.64-22.08 41.6 23.68z" fill="#C3A863" /><path d="M772.16 659.84l-32 22.08a17.6 17.6 0 0 1-7.04-23.04 14.72 14.72 0 0 1 5.12-5.76l32-22.08a12.8 12.8 0 0 0-5.12 5.76 17.6 17.6 0 0 0 7.04 23.04" fill="#C6A962" /><path d="M828.8 654.4a17.6 17.6 0 0 1 7.36 23.04 15.68 15.68 0 0 1-14.08 8.32 17.28 17.28 0 0 1-8.64-2.24l-41.28-23.68a17.6 17.6 0 0 1-7.04-23.04 16 16 0 0 1 14.08-8.64 15.36 15.36 0 0 1 8.32 2.24z" fill="#F9C542" /><path d="M384 265.6L352 288a16.32 16.32 0 0 1-8.32 2.24 17.6 17.6 0 0 1-15.04-8.64l32-22.08a18.24 18.24 0 0 0 15.04 8.64 17.92 17.92 0 0 0 8.32-2.56" fill="#C6A962" /><path d="M384 265.28L352 288l32-22.4" fill="#C6A962" /><path d="M336 218.24l-32 22.4a16.32 16.32 0 0 1 4.16-22.4l32-22.4a16.96 16.96 0 0 0-4.48 22.4" fill="#C6A962" /><path d="M361.28 259.52l-32.64 22.08-25.28-40.96 32.96-22.4 24.96 41.28z" fill="#C3A863" /><path d="M361.28 259.52l-25.28-41.28a16.64 16.64 0 0 1 5.12-22.72 16 16 0 0 1 8.32-3.52 17.6 17.6 0 0 1 14.72 8.32l25.28 41.28a16.64 16.64 0 0 1-5.44 24 17.92 17.92 0 0 1-8.32 2.56 18.24 18.24 0 0 1-14.4-8.64z" fill="#F9C542" /><path d="M664.96 201.28l-32 22.4a14.72 14.72 0 0 1 5.12-5.76l32-22.08a14.08 14.08 0 0 0-5.12 5.44" fill="#C6A962" /><path d="M643.52 242.56l-32.64 22.08 21.44-40.96 32.64-22.4-21.44 41.28z" fill="#C4A863" /><path d="M668.16 265.28l-32 22.4a17.28 17.28 0 0 1-8.96 2.56 15.36 15.36 0 0 1-8.96-2.24l32-22.4a17.92 17.92 0 0 0 8.64 2.56 15.68 15.68 0 0 0 8.96-2.88" fill="#C6A962" /><path d="M650.56 265.6l-32 22.4a17.92 17.92 0 0 1-7.36-23.36l32-22.08a17.6 17.6 0 0 0 7.04 23.04" fill="#C6A962" /><path d="M650.56 265.6a17.6 17.6 0 0 1-7.04-23.04l21.44-41.28a16.32 16.32 0 0 1 14.08-9.28 17.92 17.92 0 0 1 8.64 2.56 17.28 17.28 0 0 1 7.04 22.72L672 259.52a16 16 0 0 1-14.08 8.64 17.92 17.92 0 0 1-7.36-2.56z" fill="#F9C542" /><path d="M815.36 347.52l-32 22.08 32-22.08" fill="#C6A962" /><path d="M815.04 347.84l-32.64 22.08-39.36 23.68 32.64-22.4 39.36-23.36z" fill="#C3A863" /><path d="M775.68 371.2l-32 22.4a15.04 15.04 0 0 1-8 2.24l32-22.08a15.68 15.68 0 0 0 8-2.56" fill="#C6A962" /><path d="M768 373.76l-32 22.08a18.24 18.24 0 0 1-15.04-8.64 16.96 16.96 0 0 1 4.16-22.4l32-22.4a17.28 17.28 0 0 0-4.16 22.72 18.24 18.24 0 0 0 15.04 8.64" fill="#C6A962" /><path d="M768 373.76a18.24 18.24 0 0 1-15.04-8.64 16.64 16.64 0 0 1 5.12-23.04l39.04-24a20.16 20.16 0 0 1 8.32-2.24 18.24 18.24 0 0 1 15.04 8.64 17.6 17.6 0 0 1-5.12 23.36l-39.36 23.36a15.68 15.68 0 0 1-8 2.56z" fill="#F9C542" /><path d="M652.16 683.52l-32 22.4a200.32 200.32 0 0 1-113.92 34.56 226.88 226.88 0 0 1-224-217.28 207.36 207.36 0 0 1 88.96-182.72l32-22.08a206.72 206.72 0 0 0-88.96 182.4 227.2 227.2 0 0 0 224 217.6 200.64 200.64 0 0 0 113.92-34.88" fill="#C6A962" /><path d="M518.4 283.52a227.84 227.84 0 0 1 224 217.28 204.16 204.16 0 0 1-203.2 217.6 227.2 227.2 0 0 1-224-217.6 203.2 203.2 0 0 1 203.2-217.28z" fill="#F9C542" /><path d="M715.84 806.4l-32 22.08 32-22.08" fill="#C6A962" /><path d="M667.2 759.36l-32 22.08a16.64 16.64 0 0 1 4.48-22.72l32-22.4a17.28 17.28 0 0 0-4.16 23.04" fill="#C6A962" /><path d="M692.48 800.32l-32.64 22.4-25.28-41.28 32.64-22.08 25.28 40.96z" fill="#C3A863" /><path d="M715.52 806.72l-32 22.08a15.36 15.36 0 0 1-8.32 2.24 17.6 17.6 0 0 1-14.72-8.32l32-22.4a16.96 16.96 0 0 0 14.72 8.32 18.56 18.56 0 0 0 8.32-1.92" fill="#C6A962" /><path d="M695.36 742.08l25.28 41.28a17.6 17.6 0 0 1-5.12 23.36 18.56 18.56 0 0 1-8.32 1.92 16.96 16.96 0 0 1-14.72-8.32l-25.28-40.96A16.96 16.96 0 0 1 672 736a15.04 15.04 0 0 1 8-2.24 17.92 17.92 0 0 1 15.36 8.32z" fill="#F9C542" /><path d="M524.8 789.44l-32 22.08a17.92 17.92 0 0 1 7.04-14.4l32-22.08a17.6 17.6 0 0 0-7.04 14.4" fill="#C6A962" /><path d="M527.04 837.12l-32.64 22.08-2.24-47.68 32.64-22.08 2.24 47.68z" fill="#C3A863" /><path d="M553.28 850.88l-32 22.4a16.32 16.32 0 0 1-8.96 2.56 17.6 17.6 0 0 1-17.28-16.64l32-22.08a17.6 17.6 0 0 0 17.28 16.64 14.4 14.4 0 0 0 8.96-2.88" fill="#C6A962" /><path d="M540.48 772.16a17.92 17.92 0 0 1 17.6 17.28l2.24 47.68a15.68 15.68 0 0 1-16 16.64 17.6 17.6 0 0 1-17.28-16.64l-2.24-47.68a16 16 0 0 1 15.68-17.28z" fill="#F9C542" /><path d="M384 742.08l-32 22.4a13.44 13.44 0 0 1 5.44-5.76l32-22.4a22.08 22.08 0 0 0-5.12 5.76" fill="#C6A962" /><path d="M361.92 783.36l-32.64 22.4 21.44-41.28 32.64-22.08-21.44 40.96z" fill="#C4A863" /><path d="M386.56 806.08l-32 22.08a16 16 0 0 1-17.28 0l32-22.08a20.8 20.8 0 0 0 8.32 1.92 17.6 17.6 0 0 0 9.28-2.56" fill="#C6A962" /><path d="M368.96 806.72l-32 22.08a17.92 17.92 0 0 1-7.36-23.36l32-22.08a18.24 18.24 0 0 0 7.04 23.36" fill="#C6A962" /><path d="M406.08 736a17.92 17.92 0 0 1 7.04 23.36L391.68 800a15.68 15.68 0 0 1-14.4 8.32 20.8 20.8 0 0 1-8.32-1.92 18.24 18.24 0 0 1-7.04-23.36l22.08-40.96a15.68 15.68 0 0 1 14.08-8.32 17.28 17.28 0 0 1 8 2.24z" fill="#F9C542" /><path d="M288 370.88l-32 22.08a15.04 15.04 0 0 1-8.96 2.88 15.36 15.36 0 0 1-8.32-2.24l32-22.4a16 16 0 0 0 8.32 2.56 15.04 15.04 0 0 0 8.96-2.88" fill="#C6A962" /><path d="M220.48 324.48l-32 22.08a17.6 17.6 0 0 1 3.52-5.76l32-22.08a12.8 12.8 0 0 0-5.12 5.76" fill="#C6A962" /><path d="M269.12 371.2l-32.64 22.4-41.28-23.68 32.64-22.08 41.28 23.36z" fill="#C3A863" /><path d="M227.84 347.84l-32 22.08a17.92 17.92 0 0 1-7.36-23.36l32-22.08a17.92 17.92 0 0 0 7.36 23.36" fill="#C6A962" /><path d="M284.48 342.08a17.6 17.6 0 0 1 7.04 23.04 15.36 15.36 0 0 1-22.4 6.08l-41.28-23.36a17.92 17.92 0 0 1-7.36-23.36 16 16 0 0 1 14.08-8.64 21.76 21.76 0 0 1 8.64 2.24z" fill="#F9C542" /><path d="M299.84 659.2l-32 22.4 32-22.08" fill="#C6A962" /><path d="M298.88 659.84l-32.64 22.08-39.04 23.68 32.64-22.08 39.04-23.68z" fill="#C3A863" /><path d="M236.48 677.44l-32 22.08a16 16 0 0 1 3.84-22.4l32-22.08a16.64 16.64 0 0 0-4.16 22.4" fill="#C6A962" /><path d="M259.84 683.52l-32 22.08a16 16 0 0 1-8.32 2.56 17.28 17.28 0 0 1-14.72-8.64l32-22.08a17.6 17.6 0 0 0 15.04 8.32 15.36 15.36 0 0 0 8.32-2.24" fill="#C6A962" /><path d="M288 628.16a18.24 18.24 0 0 1 15.04 8.64 16.96 16.96 0 0 1-5.12 23.04l-39.04 23.68a15.36 15.36 0 0 1-8.32 2.24 17.6 17.6 0 0 1-15.04-8.32 16.64 16.64 0 0 1 5.12-23.04l39.36-24a15.04 15.04 0 0 1 8-2.24z" fill="#F9C542" /><path d="M256 515.2l-32 22.08a15.04 15.04 0 0 1-8.96 2.88l32-22.4A17.28 17.28 0 0 0 256 515.2" fill="#C6A962" /><path d="M246.08 517.76l-32.64 22.4H167.04l32.64-22.4h46.4z" fill="#C3A863" /><path d="M199.68 517.76l-32 22.4a18.24 18.24 0 0 1-17.6-16.96 16.32 16.32 0 0 1 7.04-14.4l32-22.08a16 16 0 0 0-7.04 14.08 17.92 17.92 0 0 0 17.6 16.96" fill="#C6A962" /><path d="M262.08 500.8a16 16 0 0 1-16 16.96H199.68a17.92 17.92 0 0 1-17.6-16.96 16 16 0 0 1 16-16.96h46.4a18.24 18.24 0 0 1 17.6 16.96z" fill="#F9C542" /><path d="M496.32 164.8l-32 22.08a16.96 16.96 0 0 1 7.04-14.08l32-22.08a16.64 16.64 0 0 0-7.04 14.08" fill="#C6A962" /><path d="M524.8 226.56l-32 22.4a17.28 17.28 0 0 1-8.96 2.56l32-22.08a15.04 15.04 0 0 0 8.96-2.88" fill="#C6A962" /><path d="M498.56 212.48l-32.64 22.08-2.24-47.68 32.64-22.08 2.24 47.68z" fill="#C3A863" /><path d="M515.84 229.44l-32 22.08a17.92 17.92 0 0 1-17.28-16.96l32-22.08a17.92 17.92 0 0 0 17.28 16.96" fill="#C6A962" /><path d="M515.84 229.44a17.92 17.92 0 0 1-17.28-16.96l-2.24-47.68a16 16 0 0 1 15.68-16.64 17.92 17.92 0 0 1 17.6 16.64l2.24 47.68a16 16 0 0 1-16 16.96z" fill="#F9C542" /></svg>