<?xml version="1.0" standalone="no"?><!DOCTYPE svg PUBLIC "-//W3C//DTD SVG 1.1//EN" "http://www.w3.org/Graphics/SVG/1.1/DTD/svg11.dtd"><svg class="icon" width="200px" height="200.00px" viewBox="0 0 1024 1024" version="1.1" xmlns="http://www.w3.org/2000/svg"><path d="M0 0m128 0l768 0q128 0 128 128l0 768q0 128-128 128l-768 0q-128 0-128-128l0-768q0-128 128-128Z" fill="#10AAFF" opacity=".1" /><path d="M403.84 705.92h-4.16V704l3.84 2.24z" fill="#F7F7F7" /><path d="M403.84 705.92h-4.16V704l3.84 2.24z" fill="#F7F7F7" /><path d="M905.92 434.24l-32 22.08a26.88 26.88 0 0 1-16 4.8l32-22.08a29.44 29.44 0 0 0 16-4.8" fill="#B8B8B8" /><path d="M889.92 439.04l-32.64 22.08h-212.48l32.64-22.08h212.48z" fill="#B6B6B6" /><path d="M677.44 439.04l-32 22.08a32 32 0 0 1-32-32 30.08 30.08 0 0 1 12.8-25.92l32-22.4a30.08 30.08 0 0 0-12.8 25.92 32 32 0 0 0 32 32" fill="#B8B8B8" /><path d="M887.04 377.28a32 32 0 0 1 32 32 28.8 28.8 0 0 1-28.8 32h-212.8a32 32 0 0 1-32-32 29.12 29.12 0 0 1 29.12-32z" fill="#EEEEEE" /><path d="M914.24 619.84l-32 22.4a29.44 29.44 0 0 1-16 4.8l32-22.08a27.2 27.2 0 0 0 16-5.12" fill="#B8B8B8" /><path d="M898.24 624.64l-32.64 22.4H137.28l32.32-22.4h728.64z" fill="#B6B6B6" /><path d="M169.92 624.96l-32 22.08a32 32 0 0 1-32-32 30.08 30.08 0 0 1 12.8-25.92l32-22.4a30.08 30.08 0 0 0-12.8 25.92 32 32 0 0 0 32 32" fill="#B8B8B8" /><path d="M896 562.56a32 32 0 0 1 32 32 29.76 29.76 0 0 1-29.12 32H169.92a32 32 0 0 1-32-32 29.44 29.44 0 0 1 29.44-32z" fill="#EEEEEE" /><path d="M922.88 805.44l-32 22.08a27.2 27.2 0 0 1-16 5.12l32-22.4a26.88 26.88 0 0 0 16-4.8" fill="#B8B8B8" /><path d="M906.88 810.24l-32.64 22.4H479.36l32.64-22.4h394.88z" fill="#B6B6B6" /><path d="M512 810.24L480 832a32 32 0 0 1-32-32 28.48 28.48 0 0 1 12.8-25.92l32-22.4a29.44 29.44 0 0 0-12.8 26.24 32 32 0 0 0 32 32" fill="#B8B8B8" /><path d="M904 748.48a32 32 0 0 1 32 32 28.8 28.8 0 0 1-28.8 32H512a32 32 0 0 1-32-32 29.12 29.12 0 0 1 28.8-32z" fill="#EEEEEE" /><path d="M407.04 805.44l-32 22.08a29.12 29.12 0 0 1-16.32 5.12l32-22.4a28.8 28.8 0 0 0 16.32-4.8" fill="#B8B8B8" /><path d="M390.72 810.24l-32.64 22.4H145.6l32.64-22.4h212.48z" fill="#B6B6B6" /><path d="M178.24 810.24l-32 22.4a32 32 0 0 1-32-32 29.44 29.44 0 0 1 12.8-25.92l32-22.08a29.44 29.44 0 0 0-12.8 25.92 32 32 0 0 0 32 32" fill="#B8B8B8" /><path d="M387.84 748.48a32 32 0 0 1 32 32 28.8 28.8 0 0 1-28.8 32H178.24a32 32 0 0 1-32-32 29.12 29.12 0 0 1 29.12-32z" fill="#EEEEEE" /><path d="M571.84 434.24l-32 22.08a26.88 26.88 0 0 1-16 4.8l32-22.08a29.44 29.44 0 0 0 16-4.8" fill="#B8B8B8" /><path d="M555.84 439.04l-32.64 22.08H128.64l32.64-22.08h394.56z" fill="#B6B6B6" /><path d="M160 439.04l-32 22.08a32 32 0 0 1-32-32 29.44 29.44 0 0 1 12.8-25.92l32-22.4a30.08 30.08 0 0 0-12.8 25.92 32 32 0 0 0 32 32" fill="#B8B8B8" /><path d="M160 439.04a32 32 0 0 1-32-32 29.12 29.12 0 0 1 29.12-32h395.84a32 32 0 0 1 32 32 28.8 28.8 0 0 1-28.8 32z" fill="#EEEEEE" /><path d="M897.6 248.32l-32 22.08a28.16 28.16 0 0 1-16.32 5.12l32-22.4a28.16 28.16 0 0 0 16.32-4.8" fill="#B8B8B8" /><path d="M881.28 253.44l-32.64 22.08H120.32l32.64-22.08h728.32z" fill="#B6B6B6" /><path d="M152.96 253.12l-32 22.4a32 32 0 0 1-32-32 29.44 29.44 0 0 1 12.8-25.92l32-22.08a30.08 30.08 0 0 0-12.8 25.92 32 32 0 0 0 32 32" fill="#B8B8B8" /><path d="M152.96 253.12a32 32 0 0 1-32-32 29.76 29.76 0 0 1 29.44-32h728a32 32 0 0 1 32 32 29.12 29.12 0 0 1-29.12 32z" fill="#EEEEEE" /></svg>