<?xml version="1.0" standalone="no"?><!DOCTYPE svg PUBLIC "-//W3C//DTD SVG 1.1//EN" "http://www.w3.org/Graphics/SVG/1.1/DTD/svg11.dtd"><svg t="1716029849122" class="icon" viewBox="0 0 1024 1024" version="1.1" xmlns="http://www.w3.org/2000/svg" p-id="3905" xmlns:xlink="http://www.w3.org/1999/xlink" width="200" height="200"><path d="M973.824 278.186667l-136.533333-85.333334A34.133333 34.133333 0 0 0 785.066667 221.866667V273.066667H318.122667L88.064 108.885333a34.133333 34.133333 0 0 0-51.541333 40.277334L99.669333 307.2l-63.146666 158.037333A34.133333 34.133333 0 0 0 68.266667 512a34.133333 34.133333 0 0 0 19.797333-6.485333L318.122667 341.333333H477.866667v307.2h-68.266667v341.333334h68.266667v-273.066667h68.266666v273.066667h68.266667V648.533333h-68.266667v-307.2h238.933334v51.2a34.133333 34.133333 0 0 0 17.749333 29.696 34.133333 34.133333 0 0 0 16.384 4.437334 34.133333 34.133333 0 0 0 18.090667-5.12l136.533333-85.333334a34.133333 34.133333 0 0 0 0-58.026666z" p-id="3906"></path></svg>