<?xml version="1.0" standalone="no"?><!DOCTYPE svg PUBLIC "-//W3C//DTD SVG 1.1//EN" "http://www.w3.org/Graphics/SVG/1.1/DTD/svg11.dtd"><svg t="1716029895726" class="icon" viewBox="0 0 1024 1024" version="1.1" xmlns="http://www.w3.org/2000/svg" p-id="5909" xmlns:xlink="http://www.w3.org/1999/xlink" width="200" height="200"><path d="M738.844 841.58c-113.108 0-204.8-91.692-204.8-204.8 0-163.161 143.268-310.37 190.135-354.163 0.137 0.137 0.289 0.259 0.431 0.393a19.936 19.936 0 0 1 29.2-0.292C800.981 326.287 943.644 471.7 943.644 636.78c0 113.108-91.692 204.8-204.8 204.8z m14.076-476.424c-0.021 0.02-0.044 0.036-0.065 0.056a16.955 16.955 0 0 0-27.02 0c-0.15-0.138-0.311-0.264-0.457-0.406C689.331 404.651 593.349 521.52 593.349 636.2c0 80.244 65.141 145.294 145.5 145.294S884.344 716.443 884.344 636.2c0-116.98-94.925-231.377-131.424-271.044z m5.424 367.344h-4a110 110 0 0 1-105.54-141h0.471a29.5 29.5 0 0 1 57.069 10.5c0 2.724-2 9.086-2 20.5a50 50 0 0 0 50 50c1.348 0 2.679-0.069 4-0.174v0.174a30 30 0 0 1 0 60z m-358 43a140.354 140.354 0 0 0 29-3.033v0.184c0.987-0.1 1.987-0.151 3-0.151a29.984 29.984 0 0 1 4 59.7v0.059a201.146 201.146 0 0 1-36 3.241c-110.457 0-200-89.543-200-200a200.472 200.472 0 0 1 5.225-45.528 29.982 29.982 0 1 1 59.325 8.528h0.4a140.077 140.077 0 0 0 135.05 177z m173-443a29.95 29.95 0 0 1-25.286-13.9c-0.121 0.157-0.255 0.3-0.368 0.466-51.356-75.812-106.381-131.477-132.256-156.466-0.14 0.161-0.3-0.695-0.445-0.538a17.964 17.964 0 0 0-29.292 0c-0.088-0.095-0.187-0.18-0.274-0.278C330.176 216.364 140.344 419.6 140.344 635.5c0 143.594 116.406 260 260 260a258.778 258.778 0 0 0 147.6-45.952 29.972 29.972 0 1 1 38.88 45.552c0.069 0.094 0.131 0.193 0.2 0.285a318.466 318.466 0 0 1-186.68 60.115c-176.731 0-320-143.269-320-320 0-264.941 241.8-503 305.017-560.713 0.08 0.078 0.169 0.145 0.249 0.222a19.931 19.931 0 0 1 28.46-1.029c0.085-0.093 0.181-0.177 0.265-0.272 31.707 28.469 111.748 104.84 182.017 209.046l-0.22 0.266a29.977 29.977 0 0 1-22.788 49.48z" fill="#333333" p-id="5910"></path></svg>