<?xml version="1.0" standalone="no"?><!DOCTYPE svg PUBLIC "-//W3C//DTD SVG 1.1//EN" "http://www.w3.org/Graphics/SVG/1.1/DTD/svg11.dtd"><svg t="1716029920815" class="icon" viewBox="0 0 1024 1024" version="1.1" xmlns="http://www.w3.org/2000/svg" p-id="6990" xmlns:xlink="http://www.w3.org/1999/xlink" width="200" height="200"><path d="M513 850.3C327 850.3 175.7 699 175.7 513c0-262.4 302.4-436.1 315.3-443.4 13.6-7.7 30.2-7.7 43.9-0.1 12.9 7.2 315.4 179.7 315.4 443.5 0 186-151.3 337.3-337.3 337.3z m0.1-689.1C448.8 203.4 265.2 338.9 265.2 513c0 136.6 111.2 247.8 247.8 247.8 136.6 0 247.8-111.2 247.8-247.8 0-175.6-183.3-310-247.7-351.8z" fill="#333333" p-id="6991"></path><path d="M513 960.2c-24.7 0-44.8-20-44.8-44.8V399.3c0-24.7 20-44.8 44.8-44.8 24.7 0 44.8 20 44.8 44.8v516.2c-0.1 24.7-20.1 44.7-44.8 44.7z" fill="#333333" p-id="6992"></path><path d="M513 572.1c-10.5 0-21-3.7-29.5-11.1L352.8 446c-18.6-16.3-20.4-44.6-4.1-63.2 16.3-18.5 44.6-20.4 63.2-4.1l130.7 115c18.6 16.3 20.4 44.6 4.1 63.2-9 10-21.3 15.2-33.7 15.2zM513 715c-12.8 0-25.6-5.5-34.4-16.1-15.8-19-13.3-47.2 5.7-63l132.8-110.6c19-15.8 47.2-13.2 63 5.7 15.8 19 13.3 47.2-5.7 63L541.6 704.6c-8.3 7-18.5 10.4-28.6 10.4z" fill="#333333" p-id="6993"></path></svg>